<?xml version="1.0" encoding="UTF-8" standalone="no"?>
<!-- Created with Inkscape (http://www.inkscape.org/) -->

<svg
   version="1.1"
   id="svg2"
   width="73.333336"
   height="60"
   viewBox="0 0 73.333336 60"
   sodipodi:docname="Logo_Gegenrecht.eps"
   xmlns:inkscape="http://www.inkscape.org/namespaces/inkscape"
   xmlns:sodipodi="http://sodipodi.sourceforge.net/DTD/sodipodi-0.dtd"
   xmlns="http://www.w3.org/2000/svg"
   xmlns:svg="http://www.w3.org/2000/svg">
  <defs
     id="defs6" />
  <sodipodi:namedview
     id="namedview4"
     pagecolor="#ffffff"
     bordercolor="#000000"
     borderopacity="0.25"
     inkscape:showpageshadow="2"
     inkscape:pageopacity="0.0"
     inkscape:pagecheckerboard="0"
     inkscape:deskcolor="#d1d1d1" />
  <g
     id="g8"
     inkscape:groupmode="layer"
     inkscape:label="ink_ext_XXXXXX"
     transform="matrix(1.3333333,0,0,-1.3333333,0,60)">
    <g
       id="g10"
       transform="scale(0.1)">
      <path
         d="m 14.2227,90.3711 v 76.9139 l 56.707,56.707 v 28.028 l 22.8125,24.117 106.8088,29.246 127.179,21.594 c 0,0 13.036,5.867 35.2,3.91 22.156,-1.953 43.015,-1.953 64.523,-11.731 21.512,-9.777 41.582,1.5 19.555,-6.093 -22.028,-7.594 45.625,15.218 45.625,15.218 l 43.668,-9.125 -59.313,-97.769 29.985,-52.145 -13.035,-13.039 -58.665,41.067 v 26.07 l -16.886,14.992 c 0,0 -64.582,-2.125 -109.555,-23.637 0,0 -31.937,-9.929 -59.965,-23.945 L 164.785,231.813 105.473,171.195 141.32,100.801 106.777,67.5586 72.2305,89.7188 14.2227,90.3711"
         style="fill:#d3d2d2;fill-opacity:1;fill-rule:evenodd;stroke:none"
         id="path12" />
      <path
         d="M 149.371,227.379 V 127.098 h 92.223 V 103.34 l 31.242,40.176 -31.242,41.039 v -22.992 h -54.09 v 65.816 h -38.133"
         style="fill:#231f20;fill-opacity:1;fill-rule:nonzero;stroke:none"
         id="path14" />
      <path
         d="M 149.371,227.379 V 127.098 h 92.223 V 103.34 l 31.242,40.176 -31.242,41.039 v -22.992 h -54.09 v 65.816 z"
         style="fill:none;stroke:#231f20;stroke-width:5;stroke-linecap:butt;stroke-linejoin:miter;stroke-miterlimit:3.86371;stroke-dasharray:none;stroke-opacity:1"
         id="path16" />
      <path
         d="M 407.125,227.379 V 127.098 H 314.906 V 103.34 l -31.242,40.176 31.242,41.039 v -22.992 h 54.086 v 65.816 h 38.133"
         style="fill:#231f20;fill-opacity:1;fill-rule:nonzero;stroke:none"
         id="path18" />
      <path
         d="M 407.125,227.379 V 127.098 H 314.906 V 103.34 l -31.242,40.176 31.242,41.039 v -22.992 h 54.086 v 65.816 z"
         style="fill:none;stroke:#231f20;stroke-width:5;stroke-linecap:butt;stroke-linejoin:miter;stroke-miterlimit:3.86371;stroke-dasharray:none;stroke-opacity:1"
         id="path20" />
      <path
         d="M 424.98,243.859 277.758,369.867 v -56.804 l 80.383,-69.204 h 66.839"
         style="fill:#231f20;fill-opacity:1;fill-rule:nonzero;stroke:none"
         id="path22" />
      <path
         d="M 424.98,243.859 277.758,369.867 v -56.804 l 80.383,-69.204 z"
         style="fill:none;stroke:#231f20;stroke-width:5;stroke-linecap:butt;stroke-linejoin:miter;stroke-miterlimit:3.86371;stroke-dasharray:none;stroke-opacity:1"
         id="path24" />
      <path
         d="M 130.539,243.859 277.758,369.867 V 313.063 L 197.375,243.859 H 130.539"
         style="fill:#231f20;fill-opacity:1;fill-rule:nonzero;stroke:none"
         id="path26" />
      <path
         d="M 130.539,243.859 277.758,369.867 V 313.063 L 197.375,243.859 Z"
         style="fill:none;stroke:#231f20;stroke-width:5;stroke-linecap:butt;stroke-linejoin:miter;stroke-miterlimit:3.86371;stroke-dasharray:none;stroke-opacity:1"
         id="path28" />
      <g
         id="g30"
         transform="scale(10)">
        <text
           xml:space="preserve"
           transform="matrix(1,0,0,-1,2.48594,2.96523)"
           style="font-variant:normal;font-weight:bold;font-size:3.19977px;font-family:Futura;-inkscape-font-specification:Futura-Bold;writing-mode:lr-tb;fill:#231f20;fill-opacity:1;fill-rule:nonzero;stroke:none"
           id="text44"><tspan
             x="0 2.3660171 4.4921007 6.8261762 7.7714887 9.8975725 12.199643 14.680902 17.046885 17.928259 19.875154 22.177225"
             y="0"
             sodipodi:role="line"
             id="tspan32">RECIPROCITÀ </tspan><tspan
             x="23.0648"
             y="-0.639844"
             id="tspan34">.</tspan><tspan
             x="23.946051 24.833527 27.19957 29.325653 31.659727 32.605042 34.731125 37.033195 39.514454 41.816525 42.761688 45.031612 47.365597"
             y="0"
             sodipodi:role="line"
             id="tspan36"> RECIPROCIDAD</tspan><tspan
             x="1.60425 4.0936103 6.2277956 8.7171555 10.915194 13.289413 15.631602 17.797619 20.107792 22.417965 24.372963"
             y="-36.374599"
             sodipodi:role="line"
             id="tspan38">GEGENRECHT </tspan><tspan
             x="25.262449"
             y="-37.014442"
             id="tspan40">.</tspan><tspan
             x="26.151903 27.041409 29.383547 31.549562 33.859734 34.813236 36.947422 39.257595 41.778862 44.089035 44.978512 46.93351"
             y="-36.374599"
             sodipodi:role="line"
             id="tspan42"> RÉCIPROCITÉ</tspan></text>
      </g>
      <path
         d="M 4.78906,438.938 H 542.813 V 11.8086 H 4.78906 Z"
         style="fill:none;stroke:#231f20;stroke-width:5.669;stroke-linecap:butt;stroke-linejoin:miter;stroke-miterlimit:3.86369;stroke-dasharray:none;stroke-opacity:1"
         id="path46" />
    </g>
  </g>
</svg>
