<svg xmlns="http://www.w3.org/2000/svg" width="793.355" height="331.188" viewBox="0 0 500.782 61.958"><g style="fill:none;fill-rule:evenodd;stroke:none;stroke-width:1"><g style="fill-rule:nonzero"><path d="M178.774 111.951a12.5 12.5 0 0 0-4.027-8.683A73.568 73.568 0 0 0 161.77 93.02l.348-.348a6.857 6.857 0 0 0 1.94-4.95 11.573 11.573 0 0 0-2.433-6.773 87.617 87.617 0 0 0-13.354-14.212l5.794-8.684c.6-.848.7-1.953.26-2.895l4.925-9.378a3.067 3.067 0 0 0-.979-4.013 3.072 3.072 0 0 0-4.09.597l-6.923 8.076a3.1 3.1 0 0 0-2.607 1.36l-5.504 8.163a88.267 88.267 0 0 0-27.606-12.041 34.159 34.159 0 0 0-7.966-4.487c-.318-1.042-.637-2.026-.985-2.894.432-.628.927-1.21 1.478-1.737a16.262 16.262 0 0 0 5.214-11.81 10.215 10.215 0 0 0-3.621-8.337l-.58-.434a3.072 3.072 0 0 0-4.576.984l-.348.666a23.653 23.653 0 0 1-7.097 8.54l-1.043-.493-.927-.434c-.144-1.679-.26-3.358-.26-4.92a24.212 24.212 0 0 1 1.622-10.16c.608-1.1 1.13-1.361 1.245-1.39.116-.03.58.29 1.101 1.331v.203a3.68 3.68 0 0 0 6.865-1.882 3.442 3.442 0 0 0-.144-1.042v-.202a10.22 10.22 0 0 0-5.07-5.79 8.406 8.406 0 0 0-6.865.203 9.212 9.212 0 0 0-2.897 1.882 7.563 7.563 0 0 0-4.982-2.2 5.794 5.794 0 0 0-4.924 2.894 11.716 11.716 0 0 0-1.507 6.803c.069 1.706.233 3.407.493 5.094a3.072 3.072 0 0 0-2.376.926 8.998 8.998 0 0 0-2.375 6.34c-.023.404-.023.81 0 1.215a11.805 11.805 0 0 0 2.375 5.79 8.683 8.683 0 0 0-2.549 4.168l-10.486 6.223a7.699 7.699 0 0 0-3.563 6.108v1.158c.003.699.071 1.397.203 2.084a88.72 88.72 0 0 0-14.483 7.641 51.42 51.42 0 0 1-5.794-12.273 3.07 3.07 0 0 0-2.433-2.113c-5.31-.934-10.414 2.471-11.587 7.729-.024.23-.024.464 0 .695a3.067 3.067 0 0 0 1.1 2.373 51.596 51.596 0 0 1 9.676 10.508 87.5 87.5 0 0 0-13.296 14.183 11.573 11.573 0 0 0-2.462 6.802 6.857 6.857 0 0 0 1.912 4.95l.347.347A73.77 73.77 0 0 0 7 103.441a12.5 12.5 0 0 0-4 8.51 6.858 6.858 0 0 0 1.97 4.95l11.587 11.579a31.332 31.332 0 0 0-4.055 14.01 3.766 3.766 0 0 0 7.27 1.447v.145a9.35 9.35 0 0 1 2.897-3.821c0 1.476-.203 2.894-.203 4.052a23.78 23.78 0 0 0 3.303 12.939 3.708 3.708 0 0 0 3.389 2.142 3.793 3.793 0 0 0 3.794-3.763c0-7.034 4.722-14.126 9.067-19.278A120.064 120.064 0 0 0 52.912 169.9a77.364 77.364 0 0 0 5.793 9.292l-1.738 2.605c-.245.365-.403.78-.463 1.216a1.275 1.275 0 0 1-.696.231c-1.535 0-4.663-1.997-8.864-7.728a35.326 35.326 0 0 1-5.3-15.891 3.07 3.07 0 0 0-6.112-.29c-1.652 10.131 2.896 26.312 13.788 35.922a47.318 47.318 0 0 0 26.592 12.331 3.072 3.072 0 0 0 3.389-3.068 2.285 2.285 0 0 0 0-.319l-.232-2.373a3.069 3.069 0 0 0-2.375-2.692 29.933 29.933 0 0 1-10.4-4.718c-1.448-1.216-2.23-1.853-2.23-2.895a5.324 5.324 0 0 1 1.043-2.518c.517-.217.96-.58 1.274-1.042a52.151 52.151 0 0 0 23.609 13.025h.144a3.03 3.03 0 0 0 1.478 0h.145a51.979 51.979 0 0 0 22.304-11.896h.724l1.304-.174 6.286 9.263a3.1 3.1 0 0 0 2.607 1.331l6.98 8.452a3.072 3.072 0 0 0 5.418-1.997 2.893 2.893 0 0 0-.348-1.418l-5.07-9.408c.44-.941.34-2.046-.26-2.894l-4.2-6.195c2.897-3.329 7.27-11.578 8.69-34.967a146.406 146.406 0 0 0 3.447-14.473c4.345 5.153 9.038 12.302 9.067 19.394a3.153 3.153 0 0 0 0 .492 3.796 3.796 0 0 0 7.01 1.274 23.73 23.73 0 0 0 3.679-13.315c0-1.216 0-2.576-.203-4.053a9.321 9.321 0 0 1 2.897 3.821 3.795 3.795 0 0 0 7.241-1.62 31.563 31.563 0 0 0-4.055-14.01l11.587-11.579a6.828 6.828 0 0 0 1.912-5.066z" style="fill:#cfd0d0" transform="translate(322 -73.547)"/><path d="M175.78 109.098a12.509 12.509 0 0 0-4.027-8.689 73.627 73.627 0 0 0-12.953-10.05l.347-.347a6.862 6.862 0 0 0 1.942-4.953 11.58 11.58 0 0 0-2.434-6.777 87.658 87.658 0 0 0-13.388-14.22l5.796-8.688c.34-.506.52-1.1.521-1.71a2.895 2.895 0 0 0-.29-1.245l4.927-9.383a3.069 3.069 0 0 0-1.015-3.968 3.073 3.073 0 0 0-4.057.55l-6.925 8.08a3.072 3.072 0 0 0-2.608 1.362l-5.506 8.138a88.32 88.32 0 0 0-27.616-12.048 34.054 34.054 0 0 0-7.969-4.489c-.318-1.043-.637-2.027-.985-2.896.42-.638.906-1.23 1.449-1.767a16.301 16.301 0 0 0 5.303-11.903 10.221 10.221 0 0 0-3.767-8.428l-.58-.434a3.073 3.073 0 0 0-4.578.984l-.348.666a23.752 23.752 0 0 1-7.129 8.544l-1.043-.492-.927-.435c-.145-1.68-.26-3.36-.26-4.923A24.287 24.287 0 0 1 89.281 9.41c.608-1.1 1.16-1.361 1.246-1.39.087-.029.58.29 1.101 1.332v.203a3.681 3.681 0 0 0 6.868-1.882 3.358 3.358 0 0 0-.145-1.043v-.203a10.225 10.225 0 0 0-5.07-5.791 8.408 8.408 0 0 0-6.868.203 9.273 9.273 0 0 0-2.898 1.882A7.565 7.565 0 0 0 78.502.52a5.796 5.796 0 0 0-4.926 2.896 11.753 11.753 0 0 0-1.507 6.806c.027 1.802.163 3.601.406 5.387a3.073 3.073 0 0 0-2.376.927 9.004 9.004 0 0 0-2.377 6.342 11.32 11.32 0 0 0 2.464 7.038 8.688 8.688 0 0 0-2.55 4.17l-10.49 6.227a7.703 7.703 0 0 0-3.565 6.111v1.159c.012.7.09 1.399.232 2.085a88.979 88.979 0 0 0-14.489 7.646 51.829 51.829 0 0 1-5.795-12.28 3.071 3.071 0 0 0-2.434-2.114c-5.311-.935-10.418 2.472-11.592 7.733-.027.23-.027.464 0 .695a3.07 3.07 0 0 0 1.102 2.375 51.765 51.765 0 0 1 9.562 10.484 87.542 87.542 0 0 0-13.33 14.191 11.58 11.58 0 0 0-2.463 6.806 6.862 6.862 0 0 0 1.942 4.953l.348.347A74.002 74.002 0 0 0 4 100.583a12.509 12.509 0 0 0-3.999 8.544 6.862 6.862 0 0 0 1.97 4.952l11.592 11.585a31.295 31.295 0 0 0-4.057 14.017 3.767 3.767 0 0 0 7.273 1.448v.174a9.413 9.413 0 0 1 2.898-3.823c0 1.477-.203 2.896-.203 4.055a23.825 23.825 0 0 0 3.536 13.061 3.71 3.71 0 0 0 3.39 2.144 3.795 3.795 0 0 0 3.796-3.765c0-7.038 4.724-14.134 9.07-19.289a120.405 120.405 0 0 0 10.896 33.567 77.64 77.64 0 0 0 5.795 9.296l-1.738 2.607a2.895 2.895 0 0 0-.464 1.216 1.275 1.275 0 0 1-.695.232c-1.536 0-4.666-1.998-8.867-7.733a35.32 35.32 0 0 1-5.622-15.9 3.07 3.07 0 0 0-6.114-.29c-1.681 10.137 3.042 26.327 13.793 35.942a47.39 47.39 0 0 0 26.602 12.338 3.073 3.073 0 0 0 3.39-3.07 2.895 2.895 0 0 0 0-.319l-.232-2.374a3.07 3.07 0 0 0-2.376-2.694 30.029 30.029 0 0 1-10.403-4.779C61.753 190.51 61 189.872 61 188.83a5.327 5.327 0 0 1 1.043-2.52c.517-.216.96-.579 1.275-1.042A52.168 52.168 0 0 0 86.935 198.3h.145c.485.118.992.118 1.477 0h.145a51.937 51.937 0 0 0 22.313-11.904h.725l1.304-.173 6.288 9.267a3.072 3.072 0 0 0 2.608 1.362l6.926 8.08a3.073 3.073 0 0 0 4.091.598 3.069 3.069 0 0 0 .98-4.016l-4.927-9.383c.44-.942.34-2.048-.26-2.896l-4.202-6.198c2.898-3.33 7.273-11.585 8.693-34.986a146.247 146.247 0 0 0 3.449-14.48c4.346 5.154 9.012 12.308 9.07 19.404a2.895 2.895 0 0 0 0 .492 3.795 3.795 0 0 0 7.012 1.274 23.739 23.739 0 0 0 3.68-13.322c0-1.217 0-2.578-.231-4.055a9.297 9.297 0 0 1 2.897 3.823 3.797 3.797 0 0 0 7.158-1.593 31.613 31.613 0 0 0-4.057-14.017l11.591-11.585a6.833 6.833 0 0 0 1.97-4.894z" style="fill:#fff" transform="translate(322 -73.547)"/><path d="M131.883 100.256A105.945 105.945 0 0 0 127 98c1.02 7.969 2.522 18.105 3.139 26.367a245.527 245.527 0 0 0 1.744-24.111zm-17.133-6.098A98.582 98.582 0 0 0 109.888 93a30.473 30.473 0 0 1-45.123 0 106.72 106.72 0 0 0-17.742 5.53v.29h16.295l-16.121 2.055a4.692 4.692 0 0 1-.145.637l27.207 19.05-28.307-17.37-.52.434 5.788 19.6-7.873-18.877H43c2.2 48.611 17.742 79.098 44.167 86.307 12.562-3.445 22.663-12.16 30.044-25.565a128.964 128.964 0 0 0 2.894-30.718c.145-18.645-1.94-33.672-5.355-40.215zm.406 53.707a185.499 185.499 0 0 1-18.553 1.621v18.558c-2.894 0-6.107.203-9.262.203-3.155 0-6.28 0-9.29-.203v-18.558c-6.687-.26-12.967-.84-18.553-1.621v-18.559a185.73 185.73 0 0 0 18.552 1.622v-18.559c3.03.116 6.127.174 9.291.174 3.165 0 6.252-.058 9.262-.174v18.559c6.686-.261 12.967-.84 18.553-1.622z" style="fill:#e3000f" transform="translate(322 -73.547)"/><path d="M141.798 75.931c-3.173 2.934 1.528 6.133 0 7.6-.693.645-1.471 0-2.135-.675a6.873 6.873 0 0 1-1.557-2.934L136 81.477c.51 1.063 1.16 2.05 1.933 2.934 1.73 1.966 4.038 3.345 6.287 1.29 3.144-2.933-1.5-6.16 0-7.452.75-.675 1.673.264 2.193.851a6.275 6.275 0 0 1 1.326 2.318l1.933-1.467a10.198 10.198 0 0 0-1.673-2.582c-1.702-1.878-4.096-3.433-6.201-1.438z" style="fill:#1a1a18" transform="translate(322 -73.547)"/><path d="M168.815 102.647a73.17 73.17 0 0 0-15.668-11.84l3.087-3.099c1.645-1.65 1.299-4.835-.808-7.73a84.297 84.297 0 0 0-14.918-15.489l7.3-10.856-.634-1.332 5.598-10.741-7.878 9.235h-1.414l-7.127 10.539a85.305 85.305 0 0 0-29.663-13.405 30.932 30.932 0 0 0-9.148-5.066 56.065 56.065 0 0 0-1.846-5.588 10.826 10.826 0 0 1 2.626-3.59 13.347 13.347 0 0 0 4.386-9.728 7.25 7.25 0 0 0-2.395-5.79l-.577-.434-.347.666a26.033 26.033 0 0 1-8.483 9.93c-1.068.695-1.962.29-3.751-.637a24.833 24.833 0 0 0-2.424-1.1c-.78-6.514-.606-14.707 1.558-18.616 2.164-3.908 5.771-3.85 7.762 0a.606.606 0 0 0 .52.319.607.607 0 0 0 .605-.608v-.145a5.788 5.788 0 0 0-2.956-3.88 5.754 5.754 0 0 0-4.863-.231 8.47 8.47 0 0 0-3.78 3.88c-3.03-4.46-5.772-4.951-7.532-2.49-1.76 2.46-1.212 9.35 1.126 19.657a16.29 16.29 0 0 1-4.935-6.137c-2.568 2.692-1.933 8.685 2.482 11.58l-1.097.927a6.166 6.166 0 0 0-3.462 4.98L58.617 42.66a4.723 4.723 0 0 0-2.05 3.764c-.014.28-.014.56 0 .84a5.456 5.456 0 0 0 .895 3.27v.464a85.585 85.585 0 0 0-18.9 10.336l-1.125-1.68A55.085 55.085 0 0 1 30.684 45.7c-3.648-.595-7.127 1.765-7.935 5.385a54.744 54.744 0 0 1 10.36 11.58l1.269 1.882a84.414 84.414 0 0 0-14.89 15.49c-2.135 2.894-2.452 6.079-.807 7.73l3.087 3.097A73.228 73.228 0 0 0 6.1 102.705c-3.117 3.156-4.04 7.151-2.05 9.149l12.957 13.173a29.771 29.771 0 0 0-4.732 14.475.696.696 0 0 0 .692.724.693.693 0 0 0 .635-.463c1.414-2.895 2.712-4.806 9.58-8.686a65.379 65.379 0 0 0-1.068 10.307 20.752 20.752 0 0 0 3.232 11.754.635.635 0 0 0 .606.377.691.691 0 0 0 .722-.695c0-10.423 8.656-20.585 13.879-25.767l.202-.231a123.92 123.92 0 0 0 11.542 38.852 72.964 72.964 0 0 0 6.723 10.683l-2.885 4.343.26.521c-3.81 5.298-9.782.695-15.207-6.688a38.215 38.215 0 0 1-5.771-17.37c-1.443 8.685 2.885 24.174 12.754 33.12a44.431 44.431 0 0 0 24.758 11.58l-.231-2.373a32.758 32.758 0 0 1-11.542-5.328c-4.069-3.387-4.415-5.442-1.097-10.451h.577l2.078-3.098a49.168 49.168 0 0 0 24.73 14.881h.288a48.749 48.749 0 0 0 22.045-12.16 5.754 5.754 0 0 0 1.645.261c.467-.001.932-.06 1.385-.173.453.113.918.172 1.385.173h.26l7.07 10.48h1.413l7.676 9.12-5.483-10.856.635-1.332-5.771-8.483c6.608-4.198 8.916-21.51 9.667-34.944a150.98 150.98 0 0 0 4.472-20.816l.202.26c5.223 5.154 13.735 15.373 13.88 25.825a.692.692 0 0 0 1.327.26 20.752 20.752 0 0 0 3.232-11.783 65.03 65.03 0 0 0-1.068-10.306c6.868 3.966 8.166 5.79 9.58 8.685a.72.72 0 0 0 1.356-.203 30.207 30.207 0 0 0-4.732-14.475l13.043-13.115c1.904-2.085 1.01-6.11-2.136-9.265zm-59.413-52.72a83.847 83.847 0 0 1 44.986 30.804c1.731 2.345 2.106 4.893.952 6.08a4.735 4.735 0 0 0 0-.666 7.775 7.775 0 0 0-1.53-4.111.144.144 0 0 0-.201 0 .145.145 0 0 0 0 .202c.923 1.593 1.702 4.459.577 5.79l-.318.348a4.764 4.764 0 0 0 0-.666 7.716 7.716 0 0 0-1.529-4.11c.923 1.592 1.702 4.458.577 5.79l-.317.318a4.299 4.299 0 0 0 0-.666 7.804 7.804 0 0 0-1.53-4.111.144.144 0 0 0-.202 0 .145.145 0 0 0 0 .203c.924 1.592 1.703 4.458.577 5.79l-.317.318a4.386 4.386 0 0 0 0-.666 7.746 7.746 0 0 0-1.53-4.11.145.145 0 0 0 0 .202c.924 1.592 1.703 4.459.578 5.79l-.318.319a4.299 4.299 0 0 0 0-.666 7.746 7.746 0 0 0-1.529-4.111.149.149 0 1 0-.26.145c.924 1.592 1.703 4.458.577 5.79l-.317.318a4.415 4.415 0 0 0 0-.666 7.746 7.746 0 0 0-1.53-4.11.144.144 0 0 0-.201 0 .145.145 0 0 0 0 .202c.923 1.592 1.702 4.458.577 5.79l-.318.319a4.735 4.735 0 0 0 0-.666 7.746 7.746 0 0 0-1.529-4.111c.923 1.592 1.703 4.458.577 5.79l-.317.318a4.067 4.067 0 0 0 0-.665 7.746 7.746 0 0 0-1.53-4.111.144.144 0 0 0-.202 0 .145.145 0 0 0 0 .202c.924 1.592 1.703 4.459.578 5.79a8.211 8.211 0 0 0-1.443-4.342 66.245 66.245 0 0 0-23.864-21.743h-.144a30.934 30.934 0 0 0-.26-3.821 8.315 8.315 0 0 0 2.886 2.316c1.028.55 2.124.959 3.26 1.216l1.01-2.23a8.203 8.203 0 0 1-2.885-.84 3.746 3.746 0 0 1-.432-6.467 3.719 3.719 0 0 1 3.721-.249 6.096 6.096 0 0 1 2.309 2.143l1.414-2.114a12.007 12.007 0 0 0-2.886-2.171 5.9 5.9 0 0 0-4.842-.856 5.92 5.92 0 0 0-3.814 3.114c-.25.477-.444.983-.577 1.505a31.045 31.045 0 0 0-9.119-14.041zm24.066 44.556 3.145 1.824a12.011 12.011 0 0 0 5.944 2.432 3.66 3.66 0 0 1 0 .492 7.54 7.54 0 0 1-6.175-1.419v-.839l-.375-.174a111.21 111.21 0 0 0-10.417-4.4l7.647-7.673a65.348 65.348 0 0 1 7.098 8.454h-.144a29.509 29.509 0 0 0-3.636-1.824l3.145 1.824 1.5.869.318.463c.318.484.589.998.808 1.534a20.717 20.717 0 0 1-3.434-1.65 30.805 30.805 0 0 0-3.664-1.824.144.144 0 0 0-.173 0 .145.145 0 0 0 0 .203l3.145 1.824a19.251 19.251 0 0 0 4.328 2.2c.087.322.145.652.173.984a11.342 11.342 0 0 1-5.453-1.708 29.912 29.912 0 0 0-3.665-1.824.144.144 0 0 0-.173 0 .174.174 0 0 0 .058.232zm8.656 5.559-.144.202c-1.01 1.014-3.03.869-5.165-.347l-.49-.29V98.45a7.916 7.916 0 0 0 5.741 1.622zm10.128 15.575a26.394 26.394 0 0 0 4.329 3.62 8.7 8.7 0 0 1 .721 1.65 17.736 17.736 0 0 1-6.32-3.88.144.144 0 0 0-.201 0 .145.145 0 0 0 0 .203 15.577 15.577 0 0 0 6.665 4.371c.023.26.023.522 0 .782-2.395.376-4.76-1.303-7.993-3.908a.145.145 0 0 0 0 .202c2.453 2.259 5.194 4.777 8.08 4.459a2.47 2.47 0 0 1 0 .318c-2.886 1.39-5.454-.463-9.292-3.532a.144.144 0 0 0-.202 0 .145.145 0 0 0 0 .203c2.51 2.316 5.54 5.095 8.657 4.343-2.885 2.345-6.579-.522-8.108-1.911a60.318 60.318 0 0 0-7.532-5.53 8.434 8.434 0 0 0-5.078-1.447l7.358-7.412a52.791 52.791 0 0 1 11.542 8.685c.375.38.722.787 1.039 1.216a41.04 41.04 0 0 1-3.434-2.547.148.148 0 0 0-.202-.058.15.15 0 0 0-.057.202zm-16.707-1.679c.25-3.069.452-6.215.606-9.438 2.078.927 4.04 1.882 5.771 2.895zm-7.704 14.128-.693-.26v-1.969h.202c.577.203 1.27.463 1.299.753v1.766zm.837 1.97v1.794l-.808-.347-.693-.29v-1.997h.202c.635.29 1.27.55 1.27.84zm-.982-5.357-.663-.26v-1.998h.202c.577.203 1.27.434 1.298.695v1.795zm-.173-3.358-.663-.232v-1.997h.202c.577.173 1.298.405 1.298.694v1.824l-.837-.29zm-.23-3.387-.664-.232c0-.666 0-1.332-.145-1.998h.174c.548.145 1.298.377 1.327.637v1.824l-.693-.231zm-.29-3.388-.634-.202a10.2 10.2 0 0 0-.202-1.998h.173c.548 0 1.328.347 1.356.608 0 .608 0 1.187.174 1.795l-.866-.203zm-.374-3.358-.635-.174c0-.666-.144-1.36-.23-2.026h.143c.606 0 1.328.29 1.357.579 0 .608.144 1.216.23 1.852zm-8.282 60.798c-.49-.377-1.096-.81-1.01-1.1.145-.55.289-1.1.433-1.709l.722.55c.461.319 1.096.724 1.038 1.014-.057.29-.346 1.245-.52 1.824l-.663-.58zm.202 1.94c-.23.636-.461 1.273-.692 1.852l-.664-.608c-.462-.376-.981-.81-.894-1.07.086-.261.375-1.101.577-1.68l.721.579c.404.203.923.608.952.84v.086zm.808-5.472c-.49-.348-1.096-.753-1.067-1.043.028-.29.26-1.158.375-1.737l.779.521c.49.29 1.125.695 1.096.956-.029.26-.288 1.245-.433 1.853zm-33.991-67.168H82.48l7.79-13.636h2.886zm7.242 0h-2.885L88.28 98.74l1.443-2.519 2.885 5.066zm-65.588 18.53a.144.144 0 0 0-.202 0c-3.838 3.068-6.464 4.921-9.292 3.531a2.527 2.527 0 0 1 0-.318c2.886.318 5.771-2.2 8.109-4.459a.145.145 0 0 0 0-.202c-3.232 2.605-5.627 4.314-7.993 3.908a4.85 4.85 0 0 1 0-.781 15.55 15.55 0 0 0 6.492-4.401 17.851 17.851 0 0 1-6.32 3.88c.12-.598.303-1.18.55-1.738a26.504 26.504 0 0 0 4.356-3.474.145.145 0 0 0 0-.202 41.099 41.099 0 0 1-3.433 2.547c.317-.43.664-.836 1.038-1.216a52.705 52.705 0 0 1 11.543-8.685l7.387 7.411a8.636 8.636 0 0 0-5.079 1.477 61.413 61.413 0 0 0-7.531 5.5c-1.53 1.42-5.31 4.285-8.109 1.94 3.146.753 6.175-2.026 8.657-4.342a.208.208 0 0 0-.173-.377zm5.77-12.392a80.288 80.288 0 0 1 5.916-2.895c.154 3.223.356 6.379.606 9.467l-6.521-6.572zm6.032-10.596-.375.174v.81a7.512 7.512 0 0 1-6.175 1.419 3.224 3.224 0 0 1 0-.492 11.982 11.982 0 0 0 5.944-2.432l3.145-1.824a.145.145 0 0 0 0-.203.144.144 0 0 0-.173 0 30.603 30.603 0 0 0-3.665 1.824 11.317 11.317 0 0 1-5.31 1.998 5.14 5.14 0 0 1 .174-.985 19.482 19.482 0 0 0 4.328-2.2l3.145-1.824a.145.145 0 0 0 0-.202 29.884 29.884 0 0 0-3.635 1.824 21.38 21.38 0 0 1-3.434 1.65 7.97 7.97 0 0 1 .808-1.535l.288-.434 1.5-.868 3.146-1.824a.145.145 0 0 0 0-.203.144.144 0 0 0-.173 0 29.71 29.71 0 0 0-3.636 1.824h-.144a65.089 65.089 0 0 1 7.098-8.483l7.647 7.672a111.95 111.95 0 0 0-10.474 4.314h-.03zm-.289 2.895-.49.29c-2.107 1.245-4.127 1.39-5.166.347v-.203a7.916 7.916 0 0 0 5.772-1.62c-.087.433-.087.694-.087 1.07zm3.953-15.778c.981-.927 1.963-1.824 2.886-2.693l6.839 10.191-1.76.608zm7.07-5.79a64.001 64.001 0 0 1 6.78-4.314 31.022 31.022 0 0 0 4.733 15.257l-3.636.955-7.877-11.899ZM75.208 59.19c0 .84 0 2.027-.23 3.474a8.278 8.278 0 0 1-1.126 1.506l-.404.347c0-.26-.23-.492-.375-.753l-.317-.607-.577.347c-.49.298-.953.637-1.385 1.013l-.722.55c.071-.693.071-1.391 0-2.084l.231-.377a9.759 9.759 0 0 0 3.838-3.068zm0-1.39v-.173.174zm-5.136 25.767a8.344 8.344 0 0 1 1.905 3.214 9.812 9.812 0 0 0-3.088.695 8.14 8.14 0 0 1-3.895-6.428 8.644 8.644 0 0 1 5.05 2.288zm-5.771-5.356a8.117 8.117 0 0 1-.894-1.795 8.422 8.422 0 0 1-.433-3.677 8.708 8.708 0 0 1 .548-1.968 8.492 8.492 0 0 1 3.895 7.932 10.014 10.014 0 0 0-3.145-.723zm12.062 11.58a8.665 8.665 0 0 1 4.27 3.678 8.327 8.327 0 0 1-9.926-3.793 8.63 8.63 0 0 1 5.627 0l.029.116zm-.26-2.489a9.412 9.412 0 0 0-1.53-.434 8.705 8.705 0 0 1-1.442-4.4 8.443 8.443 0 0 1 7.07 7.816 9.814 9.814 0 0 0-4.127-3.098zm-3.722-7.672h-.693v.695c-.05.578-.05 1.159 0 1.737v.231a9.257 9.257 0 0 0-.923-1.1 9.79 9.79 0 0 0-1.5-1.245 8.481 8.481 0 0 1-.174-2.229v-.984a8.878 8.878 0 0 1 .78-2.143 8.48 8.48 0 0 1 3.318 4.488v.52zm0-21.222a8.383 8.383 0 0 1-2.597 2.664 10.087 10.087 0 0 0-1.5-2.895 8.7 8.7 0 0 1 .807-1.795l.144-.203c1.385.348 2.636.628 3.752.84-.215.445-.466.87-.75 1.274zm-2.742 8.715a8.67 8.67 0 0 1 1.472-1.419 8.712 8.712 0 0 1 .664 4.864c0 .26 0 .521-.174.782-.173.26 0 .318-.173.492l-.663-.492-.577-.377-.347.608c-.284.5-.526 1.023-.721 1.564l-.202.463v-.521a9.886 9.886 0 0 0-.981-2.027c.035-.243.083-.485.144-.724a9.886 9.886 0 0 0 1.558-3.213zm-1.846-1.158a8.327 8.327 0 0 1-1.212 3.532 9.815 9.815 0 0 0-2.54-1.969 8.714 8.714 0 0 1 0-1.997 8.697 8.697 0 0 1 2.453-5.125 8.534 8.534 0 0 1 1.299 5.617zm-4.415-3.3a9.924 9.924 0 0 0-1.299-1.593 8.714 8.714 0 0 1 0-1.882 8.471 8.471 0 0 1 1.616-4.4l1.212.202a8.477 8.477 0 0 1 .981 4.198 9.93 9.93 0 0 0-2.54 3.532l.03-.058zm-.75 3.966a9.646 9.646 0 0 0 .144 1.679 8.531 8.531 0 0 0-.375 1.129 9.954 9.954 0 0 0-.578 1.824 9.807 9.807 0 0 0-1.933-1.245 8.238 8.238 0 0 1-.721-1.766 8.16 8.16 0 0 1 .461-5.79 8.685 8.685 0 0 1 3.001 4.227v-.058zm-.982 7.846a9.61 9.61 0 0 0 .462 2.142 9.914 9.914 0 0 0 1.299 2.548v.781a9.786 9.786 0 0 0-2.886-.81 8.126 8.126 0 0 1-1.27-1.419 8.707 8.707 0 0 1-1.471-5.443 8.65 8.65 0 0 1 3.866 2.2zM59.54 81.86a8.633 8.633 0 0 1 4.415 1.042 9.91 9.91 0 0 0 2.337 4.054l.404.376a9.923 9.923 0 0 0-2.395.203 8.158 8.158 0 0 1-1.674-.927 8.515 8.515 0 0 1-3.058-4.777l-.03.03zm9.868 8.28a9.977 9.977 0 0 0 2.886 3.243 9.738 9.738 0 0 0-1.847.868 8.056 8.056 0 0 1-1.875-.347 8.66 8.66 0 0 1-4.473-3.445 8.63 8.63 0 0 1 5.338-.348l-.029.03zm6.897 4.893c.671.07 1.348.07 2.02 0a8.932 8.932 0 0 1 3.607 1.68 8.26 8.26 0 0 1-10.59.144 8.64 8.64 0 0 1 4.992-1.853l-.03.029zm5.482-7.267h2.886l1.962 3.474-1.443 2.52zm14.63 7.412a9.52 9.52 0 0 0 2.02 0 8.64 8.64 0 0 1 4.963 1.968 8.232 8.232 0 0 1-10.56-.144 8.934 8.934 0 0 1 3.606-1.853zm28.711 32.888-.663-.26v-1.969h.202c.577.203 1.298.463 1.298.753v1.766zm.837 1.97v1.794l-.808-.347-.692-.29v-1.997h.202c.461.29 1.24.55 1.24.84zm-.981-5.357-.664-.26v-1.998h.202c.577.203 1.27.434 1.299.695v1.795zm-.144-3.358-.664-.232v-1.997h.202c.577.173 1.299.405 1.299.694v1.824l-.837-.29zm-.231-3.387-.664-.232a11.9 11.9 0 0 0-.173-1.998h.173c.548.145 1.299.377 1.328.637v1.824zm-.289-3.388-.634-.202-.202-1.998h.173c.548 0 1.327.347 1.356.608 0 .608 0 1.187.173 1.795zm-.375-3.358-.635-.174c0-.666-.173-1.36-.26-2.026h.145c.606 0 1.327.29 1.356.579 0 .608.144 1.216.231 1.852zm-1.702 16.878c-.606-.231-1.27-.463-1.299-.781v-1.708l.808.318c.577.203 1.299.463 1.299.753v1.766zm.837 1.97v1.794l-.808-.347c-.578-.232-1.27-.492-1.299-.81-.029-.32 0-1.159 0-1.738l.808.347c.693.203 1.356.464 1.356.753h-.057zm-.837-5.328c-.577-.203-1.27-.434-1.299-.753v-1.708l.837.319c.577.202 1.27.434 1.299.695v1.795zm-.145-3.358c-.577-.203-1.298-.434-1.327-.724v-1.737l.837.29c.577.173 1.298.405 1.298.694v1.824zm-.23-3.388c-.577-.173-1.328-.405-1.328-.723 0-.58 0-1.158-.144-1.737l.837.26c.548.145 1.298.377 1.327.637v1.824l-.692-.26zm-1.443 34.482.779.434c.548.26 1.212.608 1.183.897 0 .608 0 1.216-.173 1.795l-.808-.463c-.52-.26-1.154-.608-1.183-.897-.029-.29.058-1.187.115-1.766zm1.327-.724c-.52-.26-1.183-.58-1.212-.898-.029-.318 0-1.187 0-1.766l.75.377c.75.347 1.241.608 1.212.955v1.795zm.202-3.445c-.548-.261-1.183-.55-1.154-.84v-1.766l.692.318c.924.377 1.299.608 1.27.985v1.737zm0-3.446c-.635-.26-1.125-.492-1.125-.752v-1.709l.808.406c.548.231 1.24.55 1.212.81v1.68zm.26-3.213c-.577-.26-1.27-.55-1.27-.869v-1.737l.75.348c.75.318 1.27.55 1.27.868v1.766zm0-3.417c-.577-.231-1.212-.52-1.212-.84v-1.707l.78.347c.605.232 1.269.521 1.269.84v1.766zm0-3.387c-.577-.231-1.24-.492-1.24-.81v-1.709l.807.348c.577.231 1.27.492 1.27.782v1.766zm1.039-27.011-.433-.145-.26-1.824h.144c.606 0 1.328.26 1.385.55 0 .521.174 1.071.231 1.621zm-.49-3.185h-.607c0-.608-.202-1.216-.317-1.795h.404c.548 0 1.327.203 1.385.463.058.26.202 1.1.288 1.65l-1.154-.318zm-.578-3.156h-.606c0-.666-.288-1.303-.433-1.94.577 0 1.356.232 1.472.493l.375 1.708-.808-.26zm-4.126-12.883-.78.26h-.173c-.275-.43-.574-.846-.894-1.245.1-.19.226-.366.375-.52a7.542 7.542 0 0 1 1.616 1.534l-.144-.03zm-.49-2.23.605.174v.203l-.606-.376zm1.355 3.446c.373.587.71 1.196 1.01 1.824h-1.385c-.25-.54-.51-1.043-.779-1.506.722-.29 1.183-.434 1.299-.318zm0-2.114c.104-.188.23-.363.375-.52a7.616 7.616 0 0 1 1.501 1.418l-.78.26h-.172c-.23-.398-.481-.785-.75-1.158zm1.703 5.501c.23.608.49 1.274.721 1.94l-.837-.174h-.663c-.231-.695-.49-1.36-.75-1.998.779-.086 1.5-.028 1.673.232zm-.346 2.895c.606 0 1.385.232 1.558.521.173.29.317 1.072.461 1.65l-.894-.173h-.606c-.173-.637-.346-1.245-.52-1.853v-.145zm2.308-1.36c-.23-.695-.49-1.361-.75-1.998.606 0 1.356 0 1.53.347.172.348.49 1.274.72 1.94l-.836-.174zm-.75-3.272h-.548c-.26-.521-.491-1.042-.78-1.505.578-.203 1.01-.348 1.155-.232.372.587.71 1.196 1.01 1.824zm-2.164-5.79a5.758 5.758 0 0 0-3.117-.956h-.086a2.243 2.243 0 0 0-.78 0 31.003 31.003 0 0 0 2.886-11.58 64.5 64.5 0 0 1 6.55 4.777zm-4.444-8.194a8.155 8.155 0 0 1-1.27 1.42 9.7 9.7 0 0 0-2.885.81v-.782c.55-.784.986-1.642 1.298-2.548.235-.694.39-1.413.462-2.142a8.651 8.651 0 0 1 3.722-2.258 8.71 8.71 0 0 1-1.154 5.761l-.173-.26zm.173 8.686v.203zm0-18.268a8.208 8.208 0 0 1-.75 1.766c-.69.34-1.339.757-1.934 1.245a9.896 9.896 0 0 0-.577-1.795c-.102-.384-.228-.76-.375-1.13.1-.554.148-1.116.144-1.679a8.683 8.683 0 0 1 3.03-4.082c.405.916.65 1.896.722 2.895a8.714 8.714 0 0 1 0 3.156zm-2.886-7.122a9.895 9.895 0 0 0-1.298 1.592 9.96 9.96 0 0 0-2.424-3.474 2.902 2.902 0 0 1-.778-3.193 2.886 2.886 0 0 1 2.697-1.865c1.198 0 2.27.743 2.697 1.865a2.902 2.902 0 0 1-.778 3.193c.13.745.16 1.505.086 2.258zm-.865 11.348a8.712 8.712 0 0 1-.433 3.677 8.378 8.378 0 0 1-.895 1.795c-1.078.061-2.14.296-3.145.695a8.521 8.521 0 0 1 3.925-8.106c.354.734.606 1.513.75 2.316zm-1.991 8.338a8.525 8.525 0 0 1-2.338 5.183 8.402 8.402 0 0 1-1.558 1.245 9.812 9.812 0 0 0-3.087-.695 8.344 8.344 0 0 1 1.875-3.214 8.641 8.641 0 0 1 5.28-2.142zm-3.78-7.672v.521l-.202-.463a9.917 9.917 0 0 0-.722-1.563l-.346-.608-.577.376-.664.492c0-.173 0-.318-.173-.492-.173-.173 0-.52-.173-.781a8.508 8.508 0 0 1 .664-4.864 9.45 9.45 0 0 1 1.471 1.418 9.592 9.592 0 0 0 1.703 3.098c.06.239.108.48.144.724a9.864 9.864 0 0 0-.923 2.519zm-1.356 1.245c.352.677.614 1.397.779 2.143v.984a8.394 8.394 0 0 1-.174 2.258 9.587 9.587 0 0 0-1.5 1.245 9.72 9.72 0 0 0-.923 1.13v-.232a9.295 9.295 0 0 0 0-1.737v-.695h-1.53v-.521a8.505 8.505 0 0 1 3.55-4.227zm-3.03 7.99a8.705 8.705 0 0 1-1.443 4.401 9.47 9.47 0 0 0-1.53.435 9.782 9.782 0 0 0-4.126 2.895 8.443 8.443 0 0 1 7.099-7.846v.116zm-3.232 7.297a8.63 8.63 0 0 1 5.771 0 8.327 8.327 0 0 1-9.926 3.792 8.661 8.661 0 0 1 4.357-3.416zm3.953 3.705a9.948 9.948 0 0 0 2.886-3.242 8.63 8.63 0 0 1 5.251.318 8.66 8.66 0 0 1-4.472 3.446 7.912 7.912 0 0 1-1.876.347 9.845 9.845 0 0 0-1.587-.521zm8.022-5.79a9.693 9.693 0 0 0-2.395-.203l.404-.376a9.85 9.85 0 0 0 2.366-4.053 8.633 8.633 0 0 1 4.444-1.042 8.687 8.687 0 0 1-3.146 4.748 8.443 8.443 0 0 1-1.471 1.1zm4.068 0c.333.294.642.613.924.956l-.78.26-.547.203-.722-.29c.464-.206.917-.438 1.356-.695l-.23-.434zm0 2.548.433-.145c.606-.232 1.068-.376 1.212-.232.373.588.71 1.197 1.01 1.824h-.865c-.635 0-1.386 0-1.616-.347l-.433-.666.26-.434zm1.76 2.634c.635 0 1.415 0 1.588.348.173.347.49 1.274.721 1.94l-.837-.174a3.627 3.627 0 0 1-1.529-.463 34.672 34.672 0 0 0-.693-1.708zm1.241 3.359c.606 0 1.386.231 1.559.52.173.29.317 1.072.461 1.651l-.894-.174a3.224 3.224 0 0 1-1.414-.434 29.473 29.473 0 0 0-.49-1.708zm.924 3.242c.577 0 1.356.232 1.471.492.116.261.26 1.13.376 1.709l-.866-.174c-.548 0-1.212-.203-1.385-.434-.173-.232-.26-1.187-.404-1.766zm1.125 3.735c.548 0 1.299.203 1.385.463.087.26.202 1.1.289 1.65l-.895-.202c-.577 0-1.24-.232-1.356-.492-.115-.26-.202-1.072-.288-1.593zm.548 3.156c.606 0 1.357.26 1.386.55 0 .52.173 1.071.23 1.621l-.894-.232c-.577 0-1.27-.289-1.356-.55-.087-.26-.145-1.042-.231-1.563zm.462 3.155c.606 0 1.327.29 1.356.58 0 .607.145 1.215.231 1.852l-.865-.26c-.549 0-1.241-.319-1.357-.58l-.23-1.794zm.433 3.388c.548 0 1.327.347 1.327.608 0 .608 0 1.187.173 1.795l-.865-.29c-.577-.174-1.27-.347-1.356-.637-.087-.29 0-1.158-.174-1.737l.895.26zm-.808 43.427.78.434c.547.29 1.211.637 1.182.927a7.18 7.18 0 0 1-.23 1.795l-.78-.464c-.52-.29-1.183-.637-1.183-.955 0-.319.173-1.216.26-1.824zm.375 3.821c.52.261 1.183.637 1.154.927 0 .608-.173 1.216-.26 1.824l-.778-.492c-.549-.319-1.212-.695-1.155-.985 0-.55.173-1.129.231-1.708zm-.52 3.359c.491.29 1.184.666 1.126.955 0 .608-.202 1.216-.317 1.795l-.75-.492c-.52-.319-1.126-.695-1.126-1.013 0-.319.202-1.13.289-1.737l.779.492zm.376 9.872c.404.29.923.695.952.927.029.231-.462 1.273-.692 1.853l-.664-.608-.346-.29c.346-.55.577-1.303.779-1.969l-.03.087zm.837-.926-.462-.377c.173-.637.346-1.302.52-1.968.461.318 1.096.723 1.038 1.013-.058.29-.346 1.245-.52 1.824zm.865-3.33-.49-.347.433-1.998c.49.29 1.125.695 1.096.956-.029.26-.288 1.245-.433 1.853zm.722-3.358-.52-.347.347-1.998c.49.29 1.183.666 1.125.955 0 .608-.23 1.216-.346 1.795zm.577-3.358-.548-.319c0-.666.202-1.332.288-1.998h.144c.49.261 1.183.637 1.155.927 0 .608-.174 1.216-.26 1.824l-.78-.434zm.49-3.359-.577-.347c0-.666.145-1.332.231-1.998.548.29 1.212.637 1.183.927 0 .608 0 1.187-.23 1.795zm.375-3.387-.577-.319c0-.665 0-1.331.174-1.997h.173c.548.26 1.212.608 1.183.897 0 .608 0 1.216-.173 1.795zm.318-3.387-.606-.319c0-.666 0-1.36.144-2.026.75.347 1.241.608 1.241.955v1.795l-.78-.405zm.202-3.446-.577-.29v-2.055c.923.377 1.298.608 1.27.985v1.737zm0-3.445-.548-.231v-1.911h.202c.548.231 1.212.55 1.212.81v1.68zm.26-3.213-.664-.319v-2.026h.173c.75.318 1.27.55 1.27.868v1.766l-.78-.29zm0-3.417-.635-.29V136h.173c.606.232 1.27.521 1.27.84v1.766l-.808-.319zm0-3.387-.664-.29V132.64h.23c.578.232 1.27.493 1.27.783v1.766zm1.038-27.012-.606-.144c0-.608-.173-1.216-.26-1.824h.145c.606 0 1.327.26 1.385.55 0 .52.173 1.071.23 1.621zm-.49-3.184h-.606c0-.608-.231-1.216-.318-1.795h.174c.548 0 1.298.202 1.385.463.086.26.202 1.1.288 1.65zm-.577-3.156h-.606c0-.666-.289-1.303-.433-1.94.577 0 1.356.232 1.472.492l.375 1.709zm-.78-3.3h-.605c-.173-.637-.347-1.245-.52-1.853.606 0 1.385.231 1.558.52.174.29.318 1.072.462 1.651l-.894-.318zm0-6.34a37.79 37.79 0 0 0-.952-1.883l5.945-8.83c1.01.869 2.02 1.766 2.885 2.722l-7.877 7.99zm-13.36-26.29a8.22 8.22 0 0 1 0 1.998 9.93 9.93 0 0 0-2.539 1.969 8.298 8.298 0 0 1-1.212-3.532 8.476 8.476 0 0 1 1.357-5.501 8.523 8.523 0 0 1 2.395 5.066zm-7.415-18.152a8.675 8.675 0 0 1 3.809 4.198c.239.587.413 1.199.519 1.824a9.488 9.488 0 0 0-.75 2.142 9.855 9.855 0 0 0-3.607-3.503 8.711 8.711 0 0 1-.318-1.708 8.48 8.48 0 0 1 .462-2.953zm-1.79 5.182a8.441 8.441 0 0 1 5.166 5.385 9.943 9.943 0 0 0-1.472 2.895 8.267 8.267 0 0 1-2.597-2.663 8.705 8.705 0 0 1-1.183-3.532 9.15 9.15 0 0 1 .087-2.085zm3.03 9.641.231.376a9.789 9.789 0 0 0 0 2.085l-.721-.55a10.447 10.447 0 0 0-1.385-1.014l-.606-.347-.346.608-.347.753-.404-.348a9.114 9.114 0 0 1-.865-1.07V58.96l.779.26a9.82 9.82 0 0 0 3.665 3.156v-.087zm-5.078-16.01c.412.48.77 1.005 1.068 1.563a10.08 10.08 0 0 0 0 3.098l-.376-.145a10.147 10.147 0 0 0-1.298-1.274 70.272 70.272 0 0 0-.866-4.43 8.142 8.142 0 0 1 1.472 1.188zm.577 26.056v-6.05c2.842 5.946 1.187 13.075-3.983 17.149a13.988 13.988 0 0 1-17.55-.182c-5.084-4.18-6.593-11.342-3.629-17.228v6.311a12.691 12.691 0 0 0 6.131 11.485 12.603 12.603 0 0 0 12.986 0 12.691 12.691 0 0 0 6.132-11.485zm-22.19-65.69c.75-2.635 2.54-1.303 4.704 1.447a.605.605 0 0 0 .461.232 35.05 35.05 0 0 0-2.337 17.37c-1.125-4.69-3.809-15.604-2.828-19.107v.057zm-1.76 29.935a.93.93 0 0 1 0-.26 8.49 8.49 0 0 1 2.078-3.648c1.125-.985 2.366-.898 2.885 0 .52.897.26 1.824-1.212 2.432-1.471.608-1.414 1.592-1.904 2.171a.98.98 0 0 1-.808.434h-.318a1.01 1.01 0 0 1-.72-1.129zM59.31 43.963l12.004-7.151a18.699 18.699 0 0 1 4.01-5.443 37.378 37.378 0 0 0 3.637-3.764c-2.02 5.501-4.213 10.857-7.012 12.218-2.8 1.36-8.455 3.648-9.811 4.198a6.157 6.157 0 0 1-3.607.55c.212-.258.478-.466.779-.608zm-.548 3.069a9.466 9.466 0 0 0 4.184-.811 1.188 1.188 0 0 0-.318-2.287 2.22 2.22 0 0 1 2.147 1.009c.462.723.469 1.648.018 2.378 0 0 1.962 2.287 7.185-1.1 6.03-3.88 17.688 1.274 21.468-10.451-1.039-.203-3.203-3.098.577-6.66a22.245 22.245 0 0 0 5.771-9.235l.173-.29a6.76 6.76 0 0 1 1.385 4.401 11.933 11.933 0 0 1-.836 4.227 12.247 12.247 0 0 1-3.174 4.575 11.582 11.582 0 0 0-2.886 4.197v.232c3.059 14.476 0 24.377-13.158 35.64-4.3-4.257-4.819-11.35-4.675-14.853v-.55a33.68 33.68 0 0 0 3.752.29V56.47a60.91 60.91 0 0 1-14.428-2.895c-5.973-.695-6.781-1.65-6.983-2.577 2.683.56 5.453.56 8.137 0l-.202-1.245c-2.757.691-5.64.691-8.397 0a2.322 2.322 0 0 1 .26-2.721zM22.69 83.8a.144.144 0 0 0-.201 0 7.92 7.92 0 0 0-1.53 4.169 4.56 4.56 0 0 0 0 .579l-.288-.29c-1.126-1.302-.347-4.169.577-5.79a.145.145 0 0 0 0-.203.144.144 0 0 0-.202 0 7.89 7.89 0 0 0-1.558 4.17 3.66 3.66 0 0 0 0 .578c-1.184-1.187-.78-3.734.952-6.08a83.709 83.709 0 0 1 37.512-28.372c.462.869 1.53 1.564 4.068 2.114a31.088 31.088 0 0 0-4.847 11.175 8.028 8.028 0 0 1-2.049 1.708 3.712 3.712 0 0 1-3.769.126 3.736 3.736 0 0 1-1.944-3.242 3.737 3.737 0 0 1 1.875-3.282 6.13 6.13 0 0 1 3.059-.782l-1.01-2.316a12.006 12.006 0 0 0-3.318 1.158 5.927 5.927 0 0 0-3.483 3.66 5.952 5.952 0 0 0 .597 5.026 6.004 6.004 0 0 0 3.895 2.903 5.986 5.986 0 0 0 4.762-.935l.721-.434c0 .984-.173 1.998-.173 2.895h-.144a66.447 66.447 0 0 0-23.835 21.743 8.27 8.27 0 0 0-1.443 4.371c-1.125-1.303-.346-4.198.577-5.79a.145.145 0 0 0 0-.203 7.861 7.861 0 0 0-1.558 4.17 4.212 4.212 0 0 0 0 .578l-.288-.29c-1.126-1.302-.347-4.197.577-5.79a.145.145 0 0 0 0-.202.144.144 0 0 0-.202 0 7.89 7.89 0 0 0-1.558 4.169 3.805 3.805 0 0 0 0 .579l-.289-.29c-1.125-1.302-.346-4.169.577-5.79a.15.15 0 0 0-.058-.203.148.148 0 0 0-.202.058 7.862 7.862 0 0 0-1.529 4.17 4.212 4.212 0 0 0 0 .578l-.288-.29c-1.126-1.302-.347-4.168.577-5.79a.145.145 0 0 0 0-.202 7.861 7.861 0 0 0-1.559 4.169 3.805 3.805 0 0 0 0 .579l-.288-.29c-1.125-1.302-.346-4.169.577-5.79a.145.145 0 0 0 0-.202.144.144 0 0 0-.202 0 7.89 7.89 0 0 0-1.53 4.169 3.776 3.776 0 0 0 0 .579l-.288-.29c-1.125-1.303-.346-4.169.577-5.79a.145.145 0 0 0 0-.203.144.144 0 0 0-.202 0 7.89 7.89 0 0 0-1.53 4.17 4.59 4.59 0 0 0 0 .578l-.288-.29c-1.414-1.042-.634-3.908.26-5.5h-.086zm-6.665 38.331a6.33 6.33 0 0 1 .721-5.558.145.145 0 0 0 0-.203.144.144 0 0 0-.202 0 7.92 7.92 0 0 0-1.529 4.17 4.183 4.183 0 0 0 0 .607l-.26-.26c-1.212-1.274-.404-4.227.52-5.79a.145.145 0 0 0 0-.203.144.144 0 0 0-.202 0 7.861 7.861 0 0 0-1.559 4.169 4.502 4.502 0 0 0 0 .608l-.26-.261c-1.211-1.274-.403-4.227.52-5.79a.145.145 0 0 0 0-.203.144.144 0 0 0-.202 0 7.89 7.89 0 0 0-1.53 4.17 3.689 3.689 0 0 0 0 .607l-.259-.26c-1.183-1.274-.404-4.227.548-5.79a.15.15 0 0 0-.057-.203.148.148 0 0 0-.202.057 7.862 7.862 0 0 0-1.53 4.17 3.66 3.66 0 0 0 0 .607l-.26-.26c-1.182-1.274-.403-4.227.549-5.79a.15.15 0 0 0-.058-.203.148.148 0 0 0-.202.058 7.89 7.89 0 0 0-1.53 4.169 3.98 3.98 0 0 0 0 .608l-.259-.26c-1.183-1.275-.375-4.199.548-5.791a.145.145 0 0 0 0-.203 7.92 7.92 0 0 0-1.558 4.17 4.27 4.27 0 0 0 0 .607l-.26-.26c-1.183-1.303-.375-4.198.549-5.79a.145.145 0 0 0 0-.203.144.144 0 0 0-.202 0 7.92 7.92 0 0 0-1.53 4.169 3.921 3.921 0 0 0 0 .608l-.26-.29c-1.153-1.303-.374-4.198.549-5.79a.145.145 0 0 0 0-.203.144.144 0 0 0-.202 0 7.832 7.832 0 0 0-1.558 4.17 3.747 3.747 0 0 0 0 .578c-1.414-1.447-.462-4.777 2.049-7.324a72.448 72.448 0 0 1 15.697-11.812l1.039 1.042a55.458 55.458 0 0 0-5.944 3.677.144.144 0 0 0 .202 0s2.885-1.766 6.232-3.504l1.04 1.043a56.581 56.581 0 0 0-5.974 3.677.145.145 0 0 0 0 .202.144.144 0 0 0 .202 0s2.886-1.766 6.262-3.474l1.038 1.042a55.711 55.711 0 0 0-6.002 3.62s2.886-1.738 6.291-3.446l1.039 1.042a56.69 56.69 0 0 0-6.031 3.62.145.145 0 0 0 0 .202.144.144 0 0 0 .202 0s2.886-1.737 6.32-3.416l1.038 1.042a55.997 55.997 0 0 0-6.03 3.59.144.144 0 0 0 .201 0s2.886-1.737 6.348-3.388l1.04 1.043a55.821 55.821 0 0 0-6.06 3.56.144.144 0 0 0 .202 0s2.885-1.707 6.377-3.358l.49.493c.192.188.405.353.635.492a57.316 57.316 0 0 0-6.204 3.56s3.26-1.823 6.781-3.502a5.753 5.753 0 0 0 3.665-.203 66.008 66.008 0 0 0-9.119 4.922.145.145 0 0 0 0 .202.144.144 0 0 0 .202 0 105.414 105.414 0 0 1 10.475-3.647v1.302a62.538 62.538 0 0 0-19.506 12.71 9.77 9.77 0 0 0-3.03 6.253zm23.632 4.054c-4.991 4.98-13.013 14.475-14.052 24.782a19.74 19.74 0 0 1-2.222-9.64 68.259 68.259 0 0 1 1.24-11.379l.232-1.302-1.155.665c-5.973 3.359-8.368 5.327-9.926 7.644a30.693 30.693 0 0 1 4.213-11.147c2.482 1.65 5.771.84 9.263-2.345a56.088 56.088 0 0 1 4.617-3.56c-.39.446-.805.871-1.241 1.273a.144.144 0 0 0 .202 0 14.275 14.275 0 0 0 2.712-2.606l1.068-.694a8.65 8.65 0 0 1 1.24-.666 15.081 15.081 0 0 1-3.78 5.211.145.145 0 0 0 0 .203.144.144 0 0 0 .203 0 12.328 12.328 0 0 0 4.472-5.79c.35-.107.706-.184 1.068-.232a13.094 13.094 0 0 1-4.3 7.238.145.145 0 0 0 0 .202.144.144 0 0 0 .202 0 11.061 11.061 0 0 0 4.848-7.324h.693a11.101 11.101 0 0 1-4.271 8.685.144.144 0 0 0 .202 0 11.868 11.868 0 0 0 4.617-6.34c0 .868.173 1.737.288 2.605a15.399 15.399 0 0 1-3.664 4.98.174.174 0 0 0 0 .203.144.144 0 0 0 .202 0 13.59 13.59 0 0 0 3.607-3.938c0 .637.173 1.274.26 1.882zm47.727 66.588c-13.504-3.532-24.296-12.826-32.03-27.243a52.543 52.543 0 0 0 22.768 25.274 55.793 55.793 0 0 1-24.672-25.622c-8.656-16.473-13.129-39.084-13.706-67.254a109.76 109.76 0 0 1 20.487-7.44l1.674-.406a30.933 30.933 0 0 0 25.266 13.438 30.93 30.93 0 0 0 25.462-13.061c.414.408.764.876 1.039 1.39 3.26 5.529 6.175 21.452 6.175 42.529a145.624 145.624 0 0 1-3.982 36.97 48.81 48.81 0 0 1-28.452 21.28zm24.787-10.567a4.343 4.343 0 0 1-.952 0h-.548l1.442-1.535v.232c.087.38.116.77.087 1.158zM96.59 190.89a53.454 53.454 0 0 0 18.554-17.37 14.725 14.725 0 0 1-2.25 4.37 49.858 49.858 0 0 1-16.275 12.826zm16.996-9.322v-.869a4.125 4.125 0 0 1 0-1.505l.635-.753c.196.263.408.515.635.753.253.234.467.508.635.81a7.046 7.046 0 0 1-1.905 1.564zm2.107-3.272c-.462-.492-.837-.926-.722-1.158.307-.545.586-1.106.837-1.68.21.207.43.4.664.58.52.434.894.753.836.984a17.937 17.937 0 0 1-1.067 1.882zm.634 3.272v-.608c.47-.544.895-1.125 1.27-1.737.245.234.45.508.606.81a7.044 7.044 0 0 1-1.962 1.535zm2.136-3.272-.231-.26a26.48 26.48 0 0 0 .98-2.027c.491.434.895.753.838.984-.325.65-.692 1.279-1.097 1.882zm.634 3.272v-.608c.47-.544.895-1.125 1.27-1.737.243.237.447.51.606.81a7.101 7.101 0 0 1-1.99 1.535zm2.655-2.635-.548-.608-.23-.26a26.48 26.48 0 0 0 .98-2.027c.52.434.895.753.837.984a16.194 16.194 0 0 1-1.154 1.882l.115.03zm1.703-3.242-.664-.608-.375-.29c.23-.637.462-1.274.664-1.94.404.29.923.695.952.927.029.231-.433 1.303-.693 1.882zm1.183-3.243-.664-.55-.462-.376c.174-.637.347-1.303.52-1.97.461.32 1.096.725 1.039 1.014-.058.29-.347 1.274-.549 1.853zm.923-3.33-.721-.55-.49-.347c.153-.656.297-1.322.432-1.998.49.29 1.125.695 1.097.956-.03.26-.289 1.274-.433 1.91l.115.03zm.75-3.387-.75-.492-.52-.347.347-1.998c.49.29 1.183.666 1.125.955a46.23 46.23 0 0 1-.317 1.853l.115.03zm.606-3.358-.779-.492-.548-.319c0-.666.202-1.332.289-1.997.49.26 1.183.637 1.154.926-.058.637-.173 1.245-.26 1.853zm.49-3.387-.778-.464-.577-.347c0-.666.144-1.332.23-1.998h.145c.548.29 1.212.637 1.183.927l-.202 1.882zm.376-3.388-.808-.463-.577-.318c0-.666 0-1.332.173-1.998h.144c.549.26 1.212.608 1.183.897a21.533 21.533 0 0 0-.23 1.853l.115.03zm.317-3.387-.808-.434-.606-.319.145-2.026c.75.347 1.24.608 1.212.955-.03.695-.03 1.187-.03 1.766zm.26-3.416-.866-.464-.577-.29v-2.055c.924.377 1.299.608 1.27.985.144.608.087 1.216.058 1.766zm.202-3.446a7.491 7.491 0 0 0-.923-.434l-.52-.231v-1.911h.202c.549.231 1.212.55 1.212.81-.038.56-.067 1.13-.086 1.709zm0-3.271-.779-.376-.664-.319v-2.026h.173c.75.318 1.27.55 1.27.868.058.608.029 1.187 0 1.795zm0-3.416-.837-.406-.635-.29v-1.997h.202c.606.232 1.27.521 1.27.84.116.608.116 1.187.116 1.795zm0-3.388-.837-.376-.663-.29V132.639h.23c.578.232 1.27.493 1.27.783v.81c.144.319.144.637.144.956zm1.154 6.457v-7.412c0-8.077-.461-28.951-4.934-40.677a115.704 115.704 0 0 1 10.013 4.198 201.27 201.27 0 0 1-4.963 43.833zm31.193-4.806c-1.558-2.316-3.924-4.285-9.926-7.644l-1.154-.665.23 1.302a68.137 68.137 0 0 1 1.241 11.378 19.709 19.709 0 0 1-2.222 9.641c-1.01-10.19-9.06-19.803-14.052-24.782l-.866-1.014c0-.637.173-1.273.26-1.881a13.56 13.56 0 0 0 3.607 3.908.145.145 0 0 0 0-.203 15.399 15.399 0 0 1-3.665-4.98c0-.868.202-1.736.289-2.605a11.839 11.839 0 0 0 4.616 6.311.144.144 0 0 0 .202 0 .145.145 0 0 0 0-.202 11.072 11.072 0 0 1-4.27-8.686h.692a11.092 11.092 0 0 0 4.82 7.499.145.145 0 0 0 0-.203 13.152 13.152 0 0 1-4.3-7.238 6.79 6.79 0 0 1 1.067.232 12.328 12.328 0 0 0 4.473 5.79.144.144 0 0 0 .202 0 .145.145 0 0 0 0-.202 15.111 15.111 0 0 1-3.751-5.212c.43.19.845.412 1.24.666l1.068.695c.787.983 1.7 1.86 2.713 2.606a.144.144 0 0 0 .202 0 .145.145 0 0 0 0-.203c-.438-.4-.852-.826-1.241-1.274 1.645 1.158 3.203 2.345 4.617 3.561 3.462 3.156 6.752 3.966 9.262 2.345a30.77 30.77 0 0 1 4.761 11.002zm8.945-26.057a4.067 4.067 0 0 0 0-.665 7.775 7.775 0 0 0-1.53-4.112.148.148 0 1 0-.259.145c.924 1.592 1.731 4.517.548 5.79l-.288.319a5.345 5.345 0 0 0 0-.666 7.746 7.746 0 0 0-1.53-4.111.156.156 0 1 0-.26.174c.924 1.592 1.732 4.516.55 5.79l-.29.29a4.473 4.473 0 0 0 0-.666 7.765 7.765 0 0 0-1.529-4.14.144.144 0 0 0-.202 0c.924 1.592 1.732 4.516.548 5.79l-.288.29a4.531 4.531 0 0 0 0-.667 7.746 7.746 0 0 0-1.53-4.11.149.149 0 1 0-.26.144c.924 1.592 1.732 4.545.55 5.79l-.29.29c.02-.222.02-.445 0-.666a7.746 7.746 0 0 0-1.529-4.111.145.145 0 0 0 0 .203c.924 1.592 1.732 4.545.52 5.79l-.289.29a4.618 4.618 0 0 0 0-.667 7.746 7.746 0 0 0-1.53-4.11.144.144 0 0 0-.201 0 .145.145 0 0 0 0 .202c.923 1.621 1.731 4.545.548 5.79l-.289.29a4.56 4.56 0 0 0 0-.666 7.806 7.806 0 0 0-1.27-3.995.148.148 0 1 0-.259.144c.923 1.622 1.731 4.575.52 5.79l-.26.29c.02-.231.02-.463 0-.695a7.804 7.804 0 0 0-1.443-4.082 6.33 6.33 0 0 1 .721 5.559 9.768 9.768 0 0 0-3.116-6.225 62.508 62.508 0 0 0-19.506-12.68v-1.303a106.986 106.986 0 0 1 10.56 5.095.144.144 0 0 0 .203 0 65.397 65.397 0 0 0-9.35-4.921 5.756 5.756 0 0 0 3.636.202c3.52 1.68 6.753 3.503 6.781 3.503a57.662 57.662 0 0 0-6.203-3.56c.23-.14.443-.305.634-.493l.49-.492c3.377 1.65 6.35 3.33 6.378 3.358a55.072 55.072 0 0 0-6.06-3.56l1.04-1.043c3.346 1.65 6.318 3.358 6.347 3.387a.144.144 0 0 0 .202 0 56.348 56.348 0 0 0-5.742-4.43l1.039-1.041c3.347 1.679 6.29 3.387 6.32 3.416a.144.144 0 0 0 .201 0 56.172 56.172 0 0 0-6.03-3.62l1.038-1.041c3.319 1.679 6.262 3.416 6.29 3.445a.144.144 0 0 0 .203 0 55.13 55.13 0 0 0-6.175-4.14l1.038-1.042c3.319 1.708 6.233 3.445 6.262 3.474a.144.144 0 0 0 .202 0 .145.145 0 0 0 0-.203 56.927 56.927 0 0 0-5.973-3.677l1.039-1.042c3.29 1.708 6.204 3.474 6.233 3.503a.144.144 0 0 0 .202 0 55.44 55.44 0 0 0-6.118-3.995l1.039-1.042a72.332 72.332 0 0 1 15.697 11.812c2.626 2.547 3.463 5.935 2.136 7.353zM94.051 34.206a17.847 17.847 0 0 1 2.193-2.577 10.624 10.624 0 0 0 2.886-3.995c.385-1 .609-2.056.663-3.127a23.151 23.151 0 0 1-4.472 5.79 4.26 4.26 0 0 0-1.616 2.896c-.035.372.091.74.346 1.013z" style="fill:#000" transform="translate(322 -73.547)"/><path d="M35.418 79.775c-3.17-2.966-5.763 2.283-7.262.978-.778-.682 0-1.75.548-2.342a6.244 6.244 0 0 1 2.103-1.632L29.137 75a10.022 10.022 0 0 0-2.306 2.017c-1.527 1.809-2.882 4.448-.663 6.346 3.199 2.966 5.763-2.313 7.434-.86.692.623.23 1.483-.403 2.254a6.836 6.836 0 0 1-2.68 1.958l1.758 1.957a12.38 12.38 0 0 0 2.65-2.343c1.701-1.987 2.767-4.508.49-6.554zm5.982-2.613 3.39-2.971 2.24 1.426 2.642-2.229L38.872 67 36 69.466l3.906 12.182 2.442-2.05zm-2.528-6.834 3.935 2.733-2.269 1.902zM135.678 67 125 73.57l2.475 2.012 2.245-1.42 3.426 2.781-.864 2.545 2.677 2.16 3.713-12.251zm-1.755 7.694-2.274-1.864 4-2.723z" style="fill:#1a1a18" transform="translate(322 -73.547)"/><path d="M.482 12.486c1.219.621 2.57.94 3.94.93 1.218 0 2.38-.253 2.38-1.38C6.802 9.388 0 11.05 0 5.866 0 2.43 3.373 1.502 6.264 1.502c1.258-.013 2.51.167 3.713.535l-.255 2.817a7.75 7.75 0 0 0-3.203-.648c-.964 0-2.58 0-2.58 1.324 0 2.31 6.803.76 6.803 5.915 0 3.719-3.118 4.704-6.32 4.704-1.45 0-2.891-.208-4.28-.62l.34-3.042zm21.693-4.482a4.023 4.023 0 0 0-2.262-.615c-1.581 0-2.863 1.312-2.863 2.93-.002.819.33 1.602.918 2.159a2.823 2.823 0 0 0 2.174.77 5 5 0 0 0 2.319-.527v2.93a9.896 9.896 0 0 1-3.063.497c-3.163 0-5.726-2.623-5.726-5.859 0-3.236 2.563-5.859 5.726-5.859a6.57 6.57 0 0 1 2.863.615l-.086 2.96zM24.414.523h3.837v6.424a4.38 4.38 0 0 1 3.69-1.88c1.125-.05 2.22.37 3.017 1.156a3.938 3.938 0 0 1 1.17 2.981v6.944h-3.836v-5.295c0-2.054-.732-2.893-1.757-2.893-1.581 0-2.372 1.07-2.372 3.414v4.63h-3.749V.524Zm13.672 4.883h3.947l1.784 7.73 1.9-7.73h4.59l1.872 7.73 1.754-7.73h3.684l-3.362 10.742h-4.328l-1.87-7.786-2.106 7.786h-4.444zm24.502 6.042c.21 1.518 1.407 2.131 3.323 2.131a7.485 7.485 0 0 0 3.443-.846v2.685c-1.33.487-2.741.725-4.161.701a6.086 6.086 0 0 1-4.627-1.489 5.773 5.773 0 0 1-1.96-4.35 5.412 5.412 0 0 1 1.636-4.243 5.71 5.71 0 0 1 4.352-1.595c4.192 0 5.719 2.919 5.719 6.189v.7zm4.311-2.16a1.982 1.982 0 0 0-.526-1.664 2.094 2.094 0 0 0-1.66-.642c-1.406 0-2.095 1.05-2.185 2.306H66.9Zm10.249-5.871h-3.906V.523h3.906zm-3.906 1.794h3.906v10.937h-3.906zm6.836 8.096 5.182-5.059h-5.062V5.406h9.556v2.842l-5.182 5.059h5.272v2.841h-9.766zm14.707-1.859c.21 1.518 1.407 2.131 3.323 2.131a7.485 7.485 0 0 0 3.473-.846v2.685c-1.33.487-2.742.725-4.162.701a6.086 6.086 0 0 1-4.626-1.489 5.773 5.773 0 0 1-1.96-4.35 5.412 5.412 0 0 1 1.636-4.243 5.71 5.71 0 0 1 4.352-1.595c4.191 0 5.718 2.919 5.718 6.189v.7zm4.311-2.16c0-1.285-.599-2.306-2.186-2.306-1.586 0-2.095 1.05-2.185 2.306zm13.209-1.474a4.04 4.04 0 0 0-1.25 0c-1.733 0-2.841 1.319-2.841 3.538v4.796h-3.722V4.696h3.38v2.099c.476-1.42 1.756-2.36 3.183-2.339a7.431 7.431 0 0 1 1.25 0zM126.377 1.5h4.69l5.652 14.648h-4.182l-1.074-3.12h-5.368l-1.13 3.12h-3.871zm2.346 2.89-1.837 5.778h3.588l-1.751-5.779zm9.949-3.867h3.906v15.625h-3.906zm6.836 4.18h3.618v1.985c.835-1.488 2.481-2.366 4.215-2.248 1.4.112 2.697.762 3.606 1.808a5.085 5.085 0 0 1 1.238 3.767c0 3.269-1.794 5.837-5.172 5.837a3.945 3.945 0 0 1-3.588-1.81v6.013h-3.917zm6.309 2.685c-1.436 0-2.392 1.226-2.392 2.919-.093.699.11 1.404.56 1.955a2.68 2.68 0 0 0 1.832.963c1.465 0 2.362-1.196 2.362-2.918.15-.711-.03-1.45-.491-2.02a2.533 2.533 0 0 0-1.901-.928zm12.303 4.06c.21 1.518 1.408 2.131 3.324 2.131a7.53 7.53 0 0 0 3.473-.846v2.685c-1.33.487-2.742.724-4.162.701a6.086 6.086 0 0 1-4.627-1.489 5.773 5.773 0 0 1-1.96-4.35 5.412 5.412 0 0 1 1.637-4.243 5.71 5.71 0 0 1 4.351-1.595c4.192 0 5.719 2.919 5.719 6.189v.7l-7.754.117zm4.312-2.16a1.982 1.982 0 0 0-.526-1.664 2.094 2.094 0 0 0-1.66-.642c-1.407 0-2.095 1.05-2.185 2.306h4.37zm5.396-4.625h3.458v1.946c.757-1.43 2.338-2.286 4.01-2.169a4.083 4.083 0 0 1 3.085 1.107 3.718 3.718 0 0 1 1.157 2.952v6.673h-3.807v-5.088c0-1.974-.726-2.78-1.743-2.78-1.569 0-2.354 1.029-2.354 3.28v4.449h-3.806zm14.649 4.65h5.859v2.93h-5.86zm19.531 7.167a15.73 15.73 0 0 1-4.318.594 7.36 7.36 0 0 1-5.87-1.922c-1.6-1.476-2.513-3.59-2.507-5.806 0-5.23 3.54-7.846 8.377-7.846 1.468.04 2.922.3 4.318.773l-.317 3.269a7.475 7.475 0 0 0-3.8-1.07c-1.666.058-3.175 1.03-3.96 2.549a4.953 4.953 0 0 0 .159 4.815c.882 1.46 2.452 2.324 4.118 2.265a9.972 9.972 0 0 0 3.627-.772l.173 3.15zm2.93-15.957h3.906v15.625h-3.906zm18.554 15.394h-3.456V13.97c-.763 1.425-2.34 2.278-4.008 2.169a4.08 4.08 0 0 1-3.108-1.125 3.716 3.716 0 0 1-1.133-2.99V5.406h3.805v5.089c0 1.974.726 2.78 1.743 2.78 1.568 0 2.352-1.029 2.352-3.28v-4.45h3.805zm2.96-15.394h3.917v6.031c.94-1.12 2.39-1.731 3.886-1.637 1.4.11 2.697.75 3.606 1.778a4.952 4.952 0 0 1 1.238 3.707c0 3.216-1.794 5.743-5.172 5.743-1.628.061-3.144-.79-3.887-2.182v1.953h-3.618zm6.219 7.266c-1.435 0-2.392 1.206-2.392 2.871-.092.688.11 1.383.561 1.924a2.693 2.693 0 0 0 1.83.948c1.466 0 2.363-1.177 2.363-2.872a2.34 2.34 0 0 0-.495-1.956 2.547 2.547 0 0 0-1.867-.915zm15.717 4.698c1.219.62 2.57.939 3.94.93 1.219 0 2.38-.254 2.38-1.381 0-2.648-6.802-.986-6.802-6.17 0-3.436 3.373-4.365 6.264-4.365a12.23 12.23 0 0 1 3.713.535l-.255 2.817a7.75 7.75 0 0 0-3.203-.648c-.963 0-2.579 0-2.579 1.324 0 2.31 6.802.76 6.802 5.915 0 3.719-3.117 4.704-6.32 4.704-1.45 0-2.891-.208-4.28-.62zM272.391 1.5h4.904l5.908 14.648h-4.372l-1.122-3.12h-5.613l-1.447 3.12h-4.047l5.79-14.648Zm2.452 2.89-1.92 5.778h3.634l-1.714-5.779zm22.032 12.09a15.78 15.78 0 0 1-4.318.594 7.36 7.36 0 0 1-5.87-1.922c-1.6-1.476-2.513-3.59-2.507-5.806 0-5.23 3.54-7.846 8.377-7.846 1.468.04 2.923.3 4.318.773l-.432 3.24a7.475 7.475 0 0 0-3.8-1.07c-1.666.058-3.175 1.03-3.96 2.548a4.953 4.953 0 0 0 .159 4.815c.882 1.46 2.452 2.324 4.118 2.266a10 10 0 0 0 3.627-.773l.288 3.18zM134.485 30.5a5.359 5.359 0 0 0-2.801-.834c-3.095 0-5.603 2.665-5.603 5.952s2.508 5.952 5.603 5.952a6.64 6.64 0 0 0 3.082-.744v2.112a8.434 8.434 0 0 1-3.25.536c-2.01.15-3.981-.627-5.413-2.131-1.432-1.504-2.185-3.59-2.068-5.725-.058-2.113.722-4.154 2.15-5.626 1.428-1.471 3.373-2.238 5.359-2.111a7.446 7.446 0 0 1 3.194.654l-.253 1.964zm4.187-4.586h2.021V41.54h-1.992zm15.625 16.345h-2.095V40.59c-.719 1.232-2.098 1.974-3.57 1.922-2.95 0-4.1-1.696-4.1-4.494v-6.217h2.005V37.2c0 2.43.561 3.646 2.331 3.73 2.302 0 3.334-1.752 3.334-4.295v-4.862h2.006zm3.906-16.345h1.885v6.368a3.634 3.634 0 0 1 3.409-1.698 4.565 4.565 0 0 1 3.367 1.642 4.766 4.766 0 0 1 1.068 3.65c0 2.83-1.303 5.66-4.407 5.66a4.1 4.1 0 0 1-3.493-1.726v1.471h-1.801zm4.934 6.254c-2.051 0-3.05 1.982-3.05 3.934 0 1.953.888 3.906 3.022 3.906s2.772-2.32 2.772-3.962c0-1.642-.693-3.764-2.744-3.764zm18.913-4.301h2.197l6.183 14.649h-2.283l-1.502-3.699h-7.166l-1.502 3.699h-2.196l6.27-14.649zm1.041 1.965-2.89 7.252h5.78zm10.269-3.918h1.992V41.54h-1.993zm5.859 5.153h1.83v1.542c.809-1.19 2.121-1.87 3.496-1.808 2.997 0 4.44 2.608 4.44 5.543 0 2.934-1.305 5.928-4.412 5.928-1.367.137-2.692-.548-3.44-1.778v5.928h-1.887zm4.938 1.364c-2.053 0-3.052 2.075-3.052 4.12s.888 4.09 3.024 4.09c2.137 0 2.775-2.43 2.775-4.15 0-1.718-.805-4.03-2.747-4.03zm10.989-3.271h-2.255v-2.27h2.255zm-2.138 2.448H215v10.908h-1.992zm6.778-.554h1.965v1.667c.726-1.231 2.117-1.974 3.603-1.922 2.977 0 4.138 1.696 4.138 4.494v6.218h-2.024v-5.398c0-2.43-.566-3.646-2.352-3.73-2.323 0-3.365 1.78-3.365 4.323v4.833h-2.024l.06-10.485zm26.408-1.634a6.85 6.85 0 0 0-3.02-.625c-1.238 0-2.688.447-2.688 2.024 0 2.976 6.584 2.232 6.584 7.203 0 3.214-2.537 4.494-5.587 4.494a10.4 10.4 0 0 1-3.02-.625l.21-2.024a9.355 9.355 0 0 0 3.172.744 2.776 2.776 0 0 0 2.037-.61 2.696 2.696 0 0 0 .983-1.86c0-3.363-6.584-2.44-6.584-7.143 0-2.679 2.145-4.107 4.923-4.107 1.11.002 2.212.183 3.262.535zm13.542 12.839h-1.971V40.59c-.728 1.232-2.124 1.974-3.614 1.922-2.986 0-4.151-1.696-4.151-4.494v-6.217h2.03V37.2c0 2.43.568 3.646 2.33 3.73 2.33 0 3.375-1.752 3.375-4.295v-4.862h2.03l-.03 10.486zm6.192-13.099h-2.256v-2.27h2.256zm-2.139 2.448h1.992v10.908h-1.992zm4.941 8.422a5.265 5.265 0 0 0 2.483.783c.906 0 2.045-.391 2.045-1.594 0-2.046-4.703-1.865-4.703-4.993 0-2.316 1.665-3.43 3.827-3.43.845.02 1.682.172 2.483.452l-.175 1.805a5.71 5.71 0 0 0-2.104-.572c-1.022 0-1.899.451-1.899 1.354 0 2.286 4.704 1.624 4.704 5.173a3.566 3.566 0 0 1-1.133 2.605 3.355 3.355 0 0 1-2.636.884 6.041 6.041 0 0 1-2.921-.602l.029-1.864zm8.789 0a5.236 5.236 0 0 0 2.483.783c.906 0 2.045-.391 2.045-1.594 0-2.046-4.703-1.865-4.703-4.993 0-2.316 1.665-3.43 3.827-3.43.845.02 1.682.173 2.483.452l-.175 1.805a5.71 5.71 0 0 0-2.104-.572c-1.022 0-1.899.451-1.899 1.354 0 2.286 4.704 1.624 4.704 5.173a3.566 3.566 0 0 1-1.133 2.605 3.355 3.355 0 0 1-2.636.884 6.041 6.041 0 0 1-2.921-.602l.029-1.864zm17.571 1.8a8.421 8.421 0 0 1-3.373.664 5.224 5.224 0 0 1-4.162-1.486 4.782 4.782 0 0 1-1.376-4.054 4.65 4.65 0 0 1 1.31-3.662 5.06 5.06 0 0 1 3.708-1.518c3.577 0 4.701 2.493 4.701 5.79h-7.613a3.288 3.288 0 0 0 1.042 2.361c.66.624 1.55.97 2.476.962a6.495 6.495 0 0 0 3.288-1.025v1.967zm-1.268-5.707a2.542 2.542 0 0 0-.71-1.93 2.761 2.761 0 0 0-1.943-.84c-1.593 0-2.884 1.24-2.884 2.77zM96.375 56.04a5.294 5.294 0 0 0-2.77-.825c-3.06 0-5.54 2.638-5.54 5.892 0 3.254 2.48 5.892 5.54 5.892a6.61 6.61 0 0 0 3.075-.737v2.062a8.33 8.33 0 0 1-3.214.53c-2.03.19-4.035-.582-5.482-2.109-1.446-1.527-2.187-3.654-2.024-5.815-.058-2.09.713-4.112 2.125-5.568 1.412-1.457 3.335-2.216 5.298-2.09a7.328 7.328 0 0 1 3.158.647zm4.211-3.759h1.992v15.625h-1.992zM116.21 68.57h-1.928v-1.606c-.74 1.224-2.145 1.962-3.647 1.917-3.014 0-4.19-1.692-4.19-4.482v-6.202h1.809v5.412c0 2.425.572 3.637 2.38 3.721 2.352 0 3.407-1.747 3.407-4.313v-4.876h2.05l.12 10.43zm3.907-16.289h1.885v6.368a3.634 3.634 0 0 1 3.409-1.698 4.565 4.565 0 0 1 3.367 1.642 4.766 4.766 0 0 1 1.068 3.65c0 2.83-1.303 5.66-4.407 5.66a4.1 4.1 0 0 1-3.493-1.726v1.471h-1.829zm4.934 6.255c-2.051 0-3.05 1.98-3.05 3.933 0 1.953.888 3.906 3.022 3.906s2.772-2.32 2.772-3.962c0-1.642-.721-3.906-2.772-3.906zm19.874-4.302h2.2l6.195 14.649h-2.287l-1.505-3.698h-7.18l-1.476 3.698h-2.2zm1.042 1.965-2.895 7.252h5.79zm9.336-3.918h1.963v15.625h-1.993zm6.807 5.154h1.8v1.541c.808-1.19 2.12-1.87 3.493-1.808 1.3.039 2.522.664 3.367 1.72a5.155 5.155 0 0 1 1.068 3.823c0 2.964-1.303 5.928-4.407 5.928-1.366.137-2.69-.548-3.437-1.778v5.928h-1.885V57.435Zm4.933 1.393c-2.051 0-3.049 2.075-3.049 4.12s.887 4.09 3.021 4.09 2.772-2.43 2.772-4.15c0-1.718-.61-4.09-2.744-4.09zm10.994-3.304h-2.256v-2.266h2.256zm-2.139 2.442h1.993v10.917h-1.993zm5.802-.544h1.965v1.672c.726-1.235 2.117-1.98 3.603-1.927 2.977 0 4.138 1.7 4.138 4.505v6.234h-2.024v-5.412c0-2.437-.566-3.655-2.352-3.74-2.323 0-3.365 1.756-3.365 4.307v4.845h-2.024l.06-10.484zm18.021-.255a5.102 5.102 0 0 1 3.886 1.641 5.527 5.527 0 0 1 1.457 4.088c.146 2.085-.842 4.08-2.56 5.17a5.2 5.2 0 0 1-5.594 0c-1.718-1.09-2.706-3.085-2.56-5.17a5.526 5.526 0 0 1 1.466-4.099 5.1 5.1 0 0 1 3.905-1.63zm0 9.834a3.482 3.482 0 0 0 2.486-1.32 3.762 3.762 0 0 0 .782-2.785c.247-1.375-.322-2.771-1.444-3.544a3.249 3.249 0 0 0-3.704 0c-1.123.773-1.692 2.169-1.445 3.544a3.76 3.76 0 0 0 .802 2.805 3.478 3.478 0 0 0 2.523 1.3zm22.059-11.213a6.82 6.82 0 0 0-3.02-.625c-1.238 0-2.688.446-2.688 2.023 0 2.977 6.584 2.233 6.584 7.203 0 3.214-2.537 4.494-5.587 4.494a10.4 10.4 0 0 1-3.02-.625l.21-2.024a9.386 9.386 0 0 0 3.172.744 2.776 2.776 0 0 0 2.037-.61 2.696 2.696 0 0 0 .983-1.86c0-3.363-6.584-2.44-6.584-7.143 0-2.679 2.145-4.107 4.923-4.107 1.11.004 2.211.184 3.262.536zm9.065 13.095h-2.307L224.61 58.14h2.136l2.847 8.71 2.847-8.71h1.936zm8.715-13.359h-2.255v-2.266h2.256v2.266zm-2.138 2.442h1.992v10.917h-1.992zm4.766 9.303 6.269-7.514h-5.86V58.14h8.292v1.76l-6.387 7.368h6.475v1.614h-8.79zm11.718 0 6.22-7.514h-5.84V58.14h8.03v1.76l-6.103 7.368h6.482v1.614h-8.76zm19.727-.049a8.528 8.528 0 0 1-3.384.665c-1.555.14-3.092-.407-4.174-1.486-1.082-1.08-1.59-2.572-1.38-4.055a4.642 4.642 0 0 1 1.304-3.651 5.081 5.081 0 0 1 3.7-1.529c3.587 0 4.715 2.493 4.715 5.79h-7.636a3.279 3.279 0 0 0 1.014 2.416 3.58 3.58 0 0 0 2.515.991 6.528 6.528 0 0 0 3.297-1.025l.03 1.884zm-1.273-5.707a2.51 2.51 0 0 0-.702-1.938 2.745 2.745 0 0 0-1.959-.832c-1.597 0-2.892 1.24-2.892 2.77zm4.984-4.093h1.794v1.615a3.167 3.167 0 0 1 2.804-1.87c.424-.004.848.044 1.261.14v1.73a2.777 2.777 0 0 0-1.065-.199c-1.71 0-2.804 1.644-2.804 4.28v4.79h-1.906l-.084-10.487zm13.084-.249a5.097 5.097 0 0 1 3.962 1.595 5.522 5.522 0 0 1 1.494 4.132c.146 2.085-.841 4.08-2.56 5.168a5.2 5.2 0 0 1-5.594 0c-1.718-1.088-2.706-3.083-2.56-5.168a5.526 5.526 0 0 1 1.428-4.053 5.107 5.107 0 0 1 3.83-1.674zm0 9.83a3.48 3.48 0 0 0 2.505-1.309 3.76 3.76 0 0 0 .791-2.794c.247-1.375-.322-2.77-1.444-3.543a3.25 3.25 0 0 0-3.704 0c-1.123.773-1.692 2.168-1.445 3.543a3.76 3.76 0 0 0 .792 2.794 3.48 3.48 0 0 0 2.505 1.31zM123.743 82.287a5.359 5.359 0 0 0-2.801-.833c-3.095 0-5.604 2.664-5.604 5.951 0 3.287 2.51 5.952 5.604 5.952a6.666 6.666 0 0 0 3.081-.744v2.083a8.434 8.434 0 0 1-3.25.536c-2.008.149-3.98-.628-5.412-2.131-1.432-1.504-2.185-3.59-2.068-5.725-.058-2.113.722-4.154 2.15-5.626 1.428-1.471 3.372-2.238 5.359-2.112a7.42 7.42 0 0 1 3.193.655zm3.21-3.639h1.992v15.625h-1.992zm16.572 16.342h-1.971V93.3c-.728 1.248-2.124 2-3.614 1.947-2.986 0-4.15-1.718-4.15-4.553v-6.186h2.03v5.498c0 2.463.567 3.695 2.33 3.78 2.329 0 3.374-1.803 3.374-4.38v-4.898h2.03l-.03 10.482zm2.959-16.342h1.885v6.368a3.634 3.634 0 0 1 3.41-1.698 4.565 4.565 0 0 1 3.366 1.642 4.766 4.766 0 0 1 1.068 3.65c0 2.83-1.303 5.66-4.407 5.66a4.1 4.1 0 0 1-3.492-1.726v1.472h-1.802zm4.878 6.255c-2.05 0-3.048 1.98-3.048 3.962 0 1.981.887 3.905 3.02 3.905 2.135 0 2.772-2.32 2.772-3.962 0-1.641-.637-3.905-2.744-3.905zm19.947-5.278h2.196l6.183 14.648h-2.283l-1.502-3.698h-7.166l-1.502 3.698h-2.196zm1.04 1.965-2.89 7.252h5.78zm10.268-2.942h1.992v15.625h-1.992zm5.86 5.154h1.801v1.541c.807-1.19 2.118-1.87 3.492-1.808 1.3.04 2.522.664 3.367 1.72a5.156 5.156 0 0 1 1.068 3.823c0 2.964-1.303 5.928-4.407 5.928-1.366.138-2.69-.548-3.437-1.778v5.928h-1.884zm4.933 1.363c-2.05 0-3.049 2.075-3.049 4.15s.887 4.09 3.021 4.09 2.772-2.43 2.772-4.15c0-1.718-.693-4.208-2.744-4.208zm10.994-3.27h-2.256v-2.27h2.256zm-2.138 2.447h1.992V95.25h-1.992zm5.772-.553h1.97v1.672c.729-1.235 2.124-1.98 3.614-1.927 2.987 0 4.151 1.7 4.151 4.505v6.234h-2.03V88.72c0-2.437-.568-3.655-2.33-3.74-2.33 0-3.374 1.785-3.374 4.307v4.874h-2.031l.03-10.371zm27.414-1.634a6.82 6.82 0 0 0-3.02-.625c-1.238 0-2.688.416-2.688 2.024 0 2.976 6.584 2.232 6.584 7.202 0 3.214-2.507 4.494-5.587 4.494a10.4 10.4 0 0 1-3.02-.625l.21-2.024a9.416 9.416 0 0 0 3.172.744 2.776 2.776 0 0 0 2.037-.61 2.696 2.696 0 0 0 .983-1.86c0-3.363-6.584-2.44-6.584-7.143 0-2.678 2.144-4.107 4.923-4.107 1.11.002 2.212.183 3.262.536zm7.946 13.095h-2.307l-3.786-10.742h2.135l2.847 8.805 2.847-8.805h1.936zm8.946-13.355H250v-2.27h2.256zm-2.139 2.447h1.992V95.25h-1.992zm5.655 9.026 6.166-7.412h-5.763v-1.448h8.155v1.737l-6.138 7.412h6.368v1.593h-8.645zm10.742 0 6.166-7.412h-5.763v-1.448h8.155v1.737l-6.167 7.412h6.398v1.593h-8.645zm19.7.219a8.481 8.481 0 0 1-3.375.665 5.224 5.224 0 0 1-4.16-1.486 4.782 4.782 0 0 1-1.377-4.054 4.65 4.65 0 0 1 1.31-3.662 5.06 5.06 0 0 1 3.708-1.518c3.577 0 4.701 2.493 4.701 5.79h-7.614a3.283 3.283 0 0 0 1.012 2.415 3.564 3.564 0 0 0 2.507.991 6.495 6.495 0 0 0 3.288-1.025zm-1.27-5.706a2.515 2.515 0 0 0-.7-1.938 2.733 2.733 0 0 0-1.952-.832c-1.593 0-2.885 1.24-2.885 2.77h5.538zm5.984-4.095h1.794v1.611a3.167 3.167 0 0 1 2.803-1.866c.425-.002.848.045 1.262.142v1.724a2.782 2.782 0 0 0-1.065-.17c-1.71 0-2.804 1.64-2.804 4.269v4.777H291.1Z" style="fill:#1a1a18" transform="translate(0 -12.547)"/></g></g></svg>