<svg id="Ebene_1" data-name="Ebene 1" xmlns="http://www.w3.org/2000/svg" viewBox="0 0 155.52 72.15"><defs><style>.cls-1{fill:#1a1a18;}.cls-2{fill:#cfd0d0;}.cls-3{fill:#fff;}.cls-4{fill:#e3000f;}</style></defs><title>sac_logo_cmyk_f_pos</title><path class="cls-1" d="M412.14,46.27a5.61,5.61,0,0,1-1.5.2,2.62,2.62,0,0,1-2.92-2.6c0-1.77,1.24-2.65,2.91-2.65a5.25,5.25,0,0,1,1.5.26l-.11,1.1a2.66,2.66,0,0,0-1.32-.36,1.62,1.62,0,1,0,.11,3.24,3.56,3.56,0,0,0,1.26-.26Z" transform="translate(-407.72 -19.73)"/><path class="cls-1" d="M413,40.93h1.31v5.45H413Z" transform="translate(-407.72 -19.73)"/><path class="cls-1" d="M419.52,46.38h-1.19v-.7h0a1.43,1.43,0,0,1-1.38.78A1.37,1.37,0,0,1,415.49,45V42.6h1.31v1.83c0,.71.25,1,.6,1,.54,0,.82-.37.82-1.18V42.6h1.31Z" transform="translate(-407.72 -19.73)"/><path class="cls-1" d="M420.49,40.93h1.31v2.15h0a1.54,1.54,0,0,1,1.3-.57,1.77,1.77,0,0,1,1.62,1.91c0,1.12-.6,2-1.73,2a1.4,1.4,0,0,1-1.3-.76h0v.68h-1.2Zm2.11,2.58c-.48,0-.8.42-.8,1a.89.89,0,0,0,.8,1c.49,0,.79-.41.79-1A.84.84,0,0,0,422.6,43.51Z" transform="translate(-407.72 -19.73)"/><path class="cls-1" d="M429.54,41.31h1.66l2,5.07h-1.48l-.38-1.08h-1.9l-.4,1.08h-1.37Zm.83,1h0l-.65,2H431Z" transform="translate(-407.72 -19.73)"/><path class="cls-1" d="M434,40.93h1.31v5.45H434Z" transform="translate(-407.72 -19.73)"/><path class="cls-1" d="M436.39,42.6h1.21v.68h0a1.49,1.49,0,0,1,1.41-.77,1.77,1.77,0,0,1,1.62,1.91c0,1.12-.6,2-1.73,2a1.31,1.31,0,0,1-1.2-.62h0v2.06h-1.31Zm2.11.91c-.48,0-.8.42-.8,1a.89.89,0,0,0,.8,1c.49,0,.79-.41.79-1A.84.84,0,0,0,438.5,43.51Z" transform="translate(-407.72 -19.73)"/><path class="cls-1" d="M442.92,42h-1.31V41h1.31Zm-1.31.62h1.31v3.79h-1.31Z" transform="translate(-407.72 -19.73)"/><path class="cls-1" d="M444.07,42.6h1.19v.7h0a1.44,1.44,0,0,1,1.38-.79A1.37,1.37,0,0,1,448.1,44v2.36H446.8V44.55c0-.71-.25-1-.6-1-.54,0-.81.37-.81,1.18v1.6h-1.31Z" transform="translate(-407.72 -19.73)"/><path class="cls-1" d="M451.59,45.13a3,3,0,0,0,1.39.33c.43,0,.83-.09.83-.49,0-.94-2.4-.35-2.4-2.19,0-1.22,1.19-1.56,2.21-1.56a4.26,4.26,0,0,1,1.31.19l-.09,1a2.72,2.72,0,0,0-1.13-.23c-.34,0-.91,0-.91.47,0,.82,2.4.27,2.4,2.1,0,1.31-1.1,1.67-2.23,1.67a5.31,5.31,0,0,1-1.51-.22Z" transform="translate(-407.72 -19.73)"/><path class="cls-1" d="M460.17,46.38H459v-.7h0a1.44,1.44,0,0,1-1.38.78A1.37,1.37,0,0,1,456.14,45V42.6h1.31v1.83c0,.71.25,1,.6,1,.54,0,.82-.37.82-1.18V42.6h1.31Z" transform="translate(-407.72 -19.73)"/><path class="cls-1" d="M462.63,42h-1.31V41h1.31Zm-1.31.62h1.31v3.79h-1.31Z" transform="translate(-407.72 -19.73)"/><path class="cls-1" d="M463.71,45.33a3.22,3.22,0,0,0,1.23.26c.27,0,.53,0,.53-.3,0-.64-1.86-.19-1.86-1.56,0-.87.86-1.23,1.61-1.23a3.61,3.61,0,0,1,1.33.22l-.1.91a2.15,2.15,0,0,0-1-.25c-.28,0-.6.05-.6.26,0,.59,1.95.12,1.95,1.56,0,1-.91,1.26-1.76,1.26a4.26,4.26,0,0,1-1.37-.18Z" transform="translate(-407.72 -19.73)"/><path class="cls-1" d="M467.53,45.33a3.24,3.24,0,0,0,1.23.26c.27,0,.53,0,.53-.3,0-.64-1.86-.19-1.86-1.56,0-.87.86-1.23,1.61-1.23a3.63,3.63,0,0,1,1.33.22l-.1.91a2.14,2.14,0,0,0-1-.25c-.28,0-.6.05-.6.26,0,.59,1.95.12,1.95,1.56,0,1-.91,1.26-1.77,1.26a4.26,4.26,0,0,1-1.37-.18Z" transform="translate(-407.72 -19.73)"/><path class="cls-1" d="M472.56,44.87c.07.52.47.73,1.11.73a2.45,2.45,0,0,0,1.16-.29v.92a3.79,3.79,0,0,1-1.39.24,2,2,0,0,1-2.2-2,1.88,1.88,0,0,1,2-2c1.4,0,1.91,1,1.91,2.12v.24Zm1.44-.74a.69.69,0,0,0-.73-.79c-.47,0-.7.36-.73.79Z" transform="translate(-407.72 -19.73)"/><path class="cls-1" d="M482.75,46.27a5.64,5.64,0,0,1-1.5.2,2.62,2.62,0,0,1-2.91-2.6c0-1.77,1.23-2.65,2.91-2.65a5.26,5.26,0,0,1,1.5.26l-.11,1.1a2.65,2.65,0,0,0-1.32-.36,1.62,1.62,0,1,0,.11,3.24,3.55,3.55,0,0,0,1.26-.26Z" transform="translate(-407.72 -19.73)"/><path class="cls-1" d="M485.06,41.31h1.66l2,5.07h-1.48l-.38-1.08h-1.9l-.4,1.08h-1.37Zm.83,1h0l-.65,2h1.27Z" transform="translate(-407.72 -19.73)"/><path class="cls-1" d="M489.4,45.13a3,3,0,0,0,1.4.33c.43,0,.84-.09.84-.49,0-.94-2.4-.35-2.4-2.19,0-1.22,1.19-1.56,2.21-1.56a4.25,4.25,0,0,1,1.31.19l-.09,1a2.72,2.72,0,0,0-1.13-.23c-.34,0-.91,0-.91.47,0,.82,2.4.27,2.4,2.1,0,1.31-1.11,1.67-2.23,1.67a5.3,5.3,0,0,1-1.51-.22Z" transform="translate(-407.72 -19.73)"/><path class="cls-1" d="M424.15,51.23a2.05,2.05,0,0,0-1-.28,2,2,0,0,0,0,4,2.5,2.5,0,0,0,1.11-.25l0,.7a3.16,3.16,0,0,1-1.16.18,2.5,2.5,0,0,1-2.67-2.64,2.53,2.53,0,0,1,2.68-2.6,2.82,2.82,0,0,1,1.14.22Z" transform="translate(-407.72 -19.73)"/><path class="cls-1" d="M425.29,50H426v5.45h-.68Z" transform="translate(-407.72 -19.73)"/><path class="cls-1" d="M430.69,55.47H430v-.59h0a1.33,1.33,0,0,1-1.21.68c-1,0-1.39-.6-1.39-1.59v-2.2h.69v1.92c0,.86.19,1.28.78,1.32.78,0,1.13-.63,1.13-1.53V51.76h.68Z" transform="translate(-407.72 -19.73)"/><path class="cls-1" d="M432,50h.68v2.25h0a1.32,1.32,0,0,1,1.23-.6c1.08,0,1.6.88,1.6,1.88s-.47,2-1.59,2a1.49,1.49,0,0,1-1.26-.61h0v.52H432Zm1.78,2.21c-.74,0-1.1.7-1.1,1.39S433,55,433.81,55s1-.82,1-1.4S434.55,52.23,433.81,52.23Z" transform="translate(-407.72 -19.73)"/><path class="cls-1" d="M440.54,50.4h.76l2.14,5.07h-.79l-.52-1.28h-2.49l-.51,1.28h-.76Zm.36.68-1,2.51h2Z" transform="translate(-407.72 -19.73)"/><path class="cls-1" d="M444.38,50h.68v5.45h-.68Z" transform="translate(-407.72 -19.73)"/><path class="cls-1" d="M446.5,51.76h.65v.52h0a1.48,1.48,0,0,1,1.26-.61c1.08,0,1.6.88,1.6,1.88s-.47,2-1.59,2a1.33,1.33,0,0,1-1.24-.6h0v2h-.68Zm1.78.47c-.74,0-1.1.7-1.1,1.39S447.5,55,448.27,55s1-.82,1-1.4S449,52.23,448.28,52.23Z" transform="translate(-407.72 -19.73)"/><path class="cls-1" d="M451.94,50.94h-.77v-.77h.77Zm-.73.83h.68v3.71h-.68Z" transform="translate(-407.72 -19.73)"/><path class="cls-1" d="M453.33,51.76H454v.59h0a1.34,1.34,0,0,1,1.21-.68c1,0,1.39.6,1.39,1.59v2.2h-.68V53.55c0-.86-.19-1.29-.78-1.32-.78,0-1.13.63-1.13,1.53v1.72h-.68Z" transform="translate(-407.72 -19.73)"/><path class="cls-1" d="M459.6,51.68a1.83,1.83,0,0,1,1.88,1.94,1.89,1.89,0,1,1-3.77,0A1.83,1.83,0,0,1,459.6,51.68Zm0,3.33a1.24,1.24,0,0,0,1.16-1.39,1.18,1.18,0,1,0-2.32,0A1.24,1.24,0,0,0,459.6,55Z" transform="translate(-407.72 -19.73)"/><path class="cls-1" d="M467.15,51.16a2.24,2.24,0,0,0-1-.21c-.41,0-.89.14-.89.68,0,1,2.18.75,2.18,2.42,0,1.08-.84,1.51-1.85,1.51a3.38,3.38,0,0,1-1-.21l.07-.68a3.09,3.09,0,0,0,1.05.25.91.91,0,0,0,1-.83c0-1.13-2.18-.82-2.18-2.4,0-.9.71-1.38,1.63-1.38a3.43,3.43,0,0,1,1.08.18Z" transform="translate(-407.72 -19.73)"/><path class="cls-1" d="M470.24,55.47h-.81l-1.33-3.71h.75l1,3h0l1-3h.68Z" transform="translate(-407.72 -19.73)"/><path class="cls-1" d="M473.24,50.94h-.77v-.77h.77Zm-.73.83h.68v3.71h-.68Z" transform="translate(-407.72 -19.73)"/><path class="cls-1" d="M474.36,54.87l2.14-2.56h-2v-.55h2.83v.6l-2.14,2.56h2.22v.55h-3Z" transform="translate(-407.72 -19.73)"/><path class="cls-1" d="M478.18,54.87l2.13-2.56h-2v-.55h2.83v.6L479,54.92h2.21v.55h-3Z" transform="translate(-407.72 -19.73)"/><path class="cls-1" d="M485.1,55.32a2.85,2.85,0,0,1-1.17.24,1.77,1.77,0,0,1-1.92-2,1.72,1.72,0,0,1,1.74-1.87c1.23,0,1.63.9,1.63,2.09h-2.64A1.21,1.21,0,0,0,484,55a2.18,2.18,0,0,0,1.14-.37Zm-.44-2.06a.93.93,0,0,0-.92-1,1,1,0,0,0-1,1Z" transform="translate(-407.72 -19.73)"/><path class="cls-1" d="M486.49,51.76h.64v.57h0a1.13,1.13,0,0,1,1-.66,1.92,1.92,0,0,1,.45.05v.61a1,1,0,0,0-.38-.07c-.61,0-1,.58-1,1.51v1.69h-.68Z" transform="translate(-407.72 -19.73)"/><path class="cls-1" d="M491.14,51.68A1.83,1.83,0,0,1,493,53.62a1.89,1.89,0,1,1-3.77,0A1.83,1.83,0,0,1,491.14,51.68Zm0,3.33a1.24,1.24,0,0,0,1.15-1.39,1.18,1.18,0,1,0-2.32,0A1.25,1.25,0,0,0,491.14,55Z" transform="translate(-407.72 -19.73)"/><path class="cls-1" d="M418.91,60.25a2.24,2.24,0,0,0-1-.21c-.41,0-.89.14-.89.68,0,1,2.18.75,2.18,2.42,0,1.08-.83,1.51-1.85,1.51a3.39,3.39,0,0,1-1-.21l.07-.68a3.07,3.07,0,0,0,1.05.25.91.91,0,0,0,1-.83c0-1.13-2.18-.82-2.18-2.4,0-.9.71-1.38,1.63-1.38a3.39,3.39,0,0,1,1.08.18Z" transform="translate(-407.72 -19.73)"/><path class="cls-1" d="M422.71,61.48a2,2,0,0,0-.74-.16,1.27,1.27,0,0,0-1.19,1.39A1.25,1.25,0,0,0,422,64.09a1.43,1.43,0,0,0,.73-.21l.05.61a2.11,2.11,0,0,1-.86.15,1.87,1.87,0,0,1-1.89-1.94,1.83,1.83,0,0,1,1.89-1.94,2.55,2.55,0,0,1,.83.15Z" transform="translate(-407.72 -19.73)"/><path class="cls-1" d="M423.77,59.11h.68v2.27h0a1.35,1.35,0,0,1,1.19-.62c1,0,1.39.6,1.39,1.59v2.2h-.68V62.64c0-.86-.19-1.29-.79-1.32-.78,0-1.12.63-1.12,1.53v1.72h-.68Z" transform="translate(-407.72 -19.73)"/><path class="cls-1" d="M432.59,64.56h-.79l-1-3.11h0l-.94,3.11h-.79l-1.19-3.71h.75l.85,3.07h0l.95-3.07h.81l.93,3.07h0l.9-3.07h.67Z" transform="translate(-407.72 -19.73)"/><path class="cls-1" d="M437.48,64.41a2.85,2.85,0,0,1-1.17.24,1.77,1.77,0,0,1-1.92-2,1.72,1.72,0,0,1,1.74-1.87c1.24,0,1.63.9,1.63,2.09h-2.64a1.21,1.21,0,0,0,1.22,1.24,2.19,2.19,0,0,0,1.14-.37ZM437,62.35a.94.94,0,0,0-.92-1,1,1,0,0,0-1,1Z" transform="translate(-407.72 -19.73)"/><path class="cls-1" d="M439.68,60h-.77v-.77h.77Zm-.73.83h.68v3.71H439Z" transform="translate(-407.72 -19.73)"/><path class="cls-1" d="M440.8,64l2.14-2.56h-2v-.55h2.83v.6L441.59,64h2.21v.55h-3Z" transform="translate(-407.72 -19.73)"/><path class="cls-1" d="M447.73,64.41a2.86,2.86,0,0,1-1.17.24,1.77,1.77,0,0,1-1.92-2,1.72,1.72,0,0,1,1.74-1.87c1.24,0,1.64.9,1.64,2.09h-2.65a1.21,1.21,0,0,0,1.22,1.24,2.2,2.2,0,0,0,1.14-.37Zm-.44-2.06a.94.94,0,0,0-.92-1,1,1,0,0,0-1,1Z" transform="translate(-407.72 -19.73)"/><path class="cls-1" d="M449.11,60.85h.64v.57h0a1.12,1.12,0,0,1,1-.66,2,2,0,0,1,.45,0v.61a1.05,1.05,0,0,0-.38-.06c-.61,0-1,.58-1,1.51v1.69h-.68Z" transform="translate(-407.72 -19.73)"/><path class="cls-1" d="M456,59.49h.76l2.14,5.07h-.79l-.51-1.28h-2.49l-.52,1.28h-.76Zm.36.68-1,2.51h2Z" transform="translate(-407.72 -19.73)"/><path class="cls-1" d="M459.85,59.11h.68v5.45h-.68Z" transform="translate(-407.72 -19.73)"/><path class="cls-1" d="M462,60.85h.65v.52h0a1.48,1.48,0,0,1,1.26-.61c1.08,0,1.6.88,1.6,1.87s-.47,2-1.59,2a1.33,1.33,0,0,1-1.24-.6h0v2H462Zm1.78.46c-.74,0-1.1.71-1.1,1.4s.32,1.38,1.09,1.38,1-.82,1-1.4S464.48,61.32,463.75,61.32Z" transform="translate(-407.72 -19.73)"/><path class="cls-1" d="M469.43,64.41a2.85,2.85,0,0,1-1.17.24,1.77,1.77,0,0,1-1.92-2,1.72,1.72,0,0,1,1.74-1.87c1.23,0,1.64.9,1.64,2.09h-2.65a1.21,1.21,0,0,0,1.22,1.24,2.19,2.19,0,0,0,1.14-.37ZM469,62.35a.94.94,0,0,0-.92-1,1,1,0,0,0-1,1Z" transform="translate(-407.72 -19.73)"/><path class="cls-1" d="M470.81,60.85h.66v.59h0a1.33,1.33,0,0,1,1.21-.68c1,0,1.39.6,1.39,1.59v2.2h-.68V62.64c0-.86-.19-1.29-.79-1.32-.78,0-1.13.63-1.13,1.53v1.72h-.68Z" transform="translate(-407.72 -19.73)"/><path class="cls-1" d="M475.13,62.33H477v.55h-1.87Z" transform="translate(-407.72 -19.73)"/><path class="cls-1" d="M481.61,60.32a2,2,0,0,0-1-.28,2,2,0,0,0,0,4,2.49,2.49,0,0,0,1.1-.25l0,.71a3.18,3.18,0,0,1-1.16.18A2.5,2.5,0,0,1,477.85,62a2.53,2.53,0,0,1,2.68-2.6,2.8,2.8,0,0,1,1.14.22Z" transform="translate(-407.72 -19.73)"/><path class="cls-1" d="M482.76,59.11h.68v5.45h-.68Z" transform="translate(-407.72 -19.73)"/><path class="cls-1" d="M488.15,64.56h-.66V64h0a1.33,1.33,0,0,1-1.21.68c-1,0-1.39-.6-1.39-1.59v-2.2h.68v1.92c0,.86.19,1.28.78,1.32.78,0,1.13-.62,1.13-1.53V60.85h.68Z" transform="translate(-407.72 -19.73)"/><path class="cls-1" d="M489.5,59.11h.68v2.25h0a1.32,1.32,0,0,1,1.23-.6,1.66,1.66,0,0,1,1.6,1.87c0,1-.47,2-1.59,2a1.49,1.49,0,0,1-1.26-.61h0v.52h-.65Zm1.78,2.21c-.74,0-1.1.71-1.1,1.4s.32,1.38,1.09,1.38,1-.82,1-1.4S492,61.32,491.28,61.32Z" transform="translate(-407.72 -19.73)"/><path class="cls-1" d="M433.4,69.41a2,2,0,0,0-1-.28,2,2,0,0,0,0,4,2.5,2.5,0,0,0,1.1-.25l0,.7a3.16,3.16,0,0,1-1.15.18,2.5,2.5,0,0,1-2.67-2.64,2.53,2.53,0,0,1,2.68-2.6,2.81,2.81,0,0,1,1.14.22Z" transform="translate(-407.72 -19.73)"/><path class="cls-1" d="M434.54,68.2h.68v5.45h-.68Z" transform="translate(-407.72 -19.73)"/><path class="cls-1" d="M439.94,73.65h-.66v-.59h0a1.33,1.33,0,0,1-1.21.68c-1,0-1.39-.6-1.39-1.59v-2.2h.68v1.92c0,.86.19,1.29.79,1.32.78,0,1.13-.63,1.13-1.53V69.94h.68Z" transform="translate(-407.72 -19.73)"/><path class="cls-1" d="M441.29,68.2H442v2.25h0a1.33,1.33,0,0,1,1.23-.6,1.66,1.66,0,0,1,1.6,1.88c0,1-.47,2-1.59,2a1.49,1.49,0,0,1-1.26-.61h0v.52h-.65Zm1.78,2.21c-.74,0-1.1.7-1.1,1.39s.32,1.38,1.09,1.38,1-.82,1-1.4S443.81,70.41,443.07,70.41Z" transform="translate(-407.72 -19.73)"/><path class="cls-1" d="M449.79,68.57h.76l2.14,5.07h-.79l-.52-1.28H448.9l-.52,1.28h-.76Zm.36.68-1,2.51h2Z" transform="translate(-407.72 -19.73)"/><path class="cls-1" d="M453.64,68.2h.68v5.45h-.68Z" transform="translate(-407.72 -19.73)"/><path class="cls-1" d="M455.75,69.94h.65v.52h0a1.48,1.48,0,0,1,1.26-.61c1.07,0,1.6.88,1.6,1.88s-.47,2-1.59,2a1.33,1.33,0,0,1-1.24-.6h0v2h-.68Zm1.78.46c-.74,0-1.1.7-1.1,1.39s.32,1.38,1.09,1.38,1-.82,1-1.4S458.27,70.41,457.53,70.41Z" transform="translate(-407.72 -19.73)"/><path class="cls-1" d="M461.19,69.11h-.77v-.77h.77Zm-.73.83h.68v3.71h-.68Z" transform="translate(-407.72 -19.73)"/><path class="cls-1" d="M462.58,69.94h.66v.59h0a1.33,1.33,0,0,1,1.21-.68c1,0,1.39.6,1.39,1.59v2.2h-.68V71.73c0-.86-.19-1.29-.78-1.32-.78,0-1.12.63-1.12,1.53v1.72h-.68Z" transform="translate(-407.72 -19.73)"/><path class="cls-1" d="M471.78,69.34a2.22,2.22,0,0,0-1-.21c-.41,0-.89.14-.89.68,0,1,2.18.75,2.18,2.42,0,1.08-.84,1.51-1.85,1.51a3.39,3.39,0,0,1-1-.21l.07-.68a3.08,3.08,0,0,0,1.06.25.91.91,0,0,0,1-.83c0-1.14-2.18-.82-2.18-2.4,0-.9.71-1.38,1.63-1.38a3.41,3.41,0,0,1,1.08.18Z" transform="translate(-407.72 -19.73)"/><path class="cls-1" d="M474.87,73.65h-.81l-1.33-3.71h.75l1,3h0l1-3h.68Z" transform="translate(-407.72 -19.73)"/><path class="cls-1" d="M477.86,69.11h-.77v-.77h.77Zm-.73.83h.68v3.71h-.68Z" transform="translate(-407.72 -19.73)"/><path class="cls-1" d="M479,73.05l2.14-2.56h-2v-.55h2.83v.6l-2.14,2.56H482v.55h-3Z" transform="translate(-407.72 -19.73)"/><path class="cls-1" d="M482.8,73.05l2.14-2.56h-2v-.55h2.83v.6l-2.14,2.56h2.22v.55h-3Z" transform="translate(-407.72 -19.73)"/><path class="cls-1" d="M489.73,73.49a2.84,2.84,0,0,1-1.17.24,1.77,1.77,0,0,1-1.92-2,1.72,1.72,0,0,1,1.74-1.87c1.24,0,1.63.9,1.63,2.09h-2.64a1.21,1.21,0,0,0,1.22,1.24,2.19,2.19,0,0,0,1.14-.37Zm-.44-2.06a.93.93,0,0,0-.92-1,1,1,0,0,0-1,1Z" transform="translate(-407.72 -19.73)"/><path class="cls-1" d="M491.11,69.94h.64v.57h0a1.13,1.13,0,0,1,1-.66,1.91,1.91,0,0,1,.45.05v.61a1,1,0,0,0-.38-.06c-.61,0-1,.58-1,1.51v1.69h-.68Z" transform="translate(-407.72 -19.73)"/><path class="cls-2" d="M563.24,58.33a4.33,4.33,0,0,0-1.39-3,25.53,25.53,0,0,0-4.48-3.54l.12-.12a2.36,2.36,0,0,0,.67-1.71,4,4,0,0,0-.84-2.34,30.1,30.1,0,0,0-4.62-4.91l2-3a1,1,0,0,0,.09-1l1.7-3.24a1.06,1.06,0,0,0-1.75-1.19l-2.39,2.79a1.06,1.06,0,0,0-.9.47l-1.9,2.82A30.51,30.51,0,0,0,540,36.25a11.68,11.68,0,0,0-2.75-1.55c-.11-.36-.22-.7-.34-1a4,4,0,0,1,.51-.6,5.61,5.61,0,0,0,1.83-4.12A3.53,3.53,0,0,0,538,26.06l-.2-.15a1.06,1.06,0,0,0-1.58.34l-.12.22a8.21,8.21,0,0,1-2.46,3l-.36-.17L533,29.1c-.05-.58-.09-1.16-.09-1.7a8.36,8.36,0,0,1,.56-3.51c.21-.38.4-.47.43-.48s.2.1.38.46l0,.07a1.27,1.27,0,0,0,2.37-.65,1.2,1.2,0,0,0-.05-.36l0-.07a3.53,3.53,0,0,0-1.75-2,2.9,2.9,0,0,0-2.37.07,3.21,3.21,0,0,0-1,.65,2.61,2.61,0,0,0-1.72-.76,2,2,0,0,0-1.7,1,4,4,0,0,0-.52,2.35,15.72,15.72,0,0,0,.14,1.86,1.05,1.05,0,0,0-.82.32,3.11,3.11,0,0,0-.82,2.19,3.86,3.86,0,0,0,0,.42,4.06,4.06,0,0,0,.82,2,3,3,0,0,0-.88,1.44l-3.62,2.15a2.66,2.66,0,0,0-1.23,2.11l0,.4a3.9,3.9,0,0,0,.07.72,30.56,30.56,0,0,0-5,2.64,17.82,17.82,0,0,1-2-4.24,1.06,1.06,0,0,0-.84-.73,3.48,3.48,0,0,0-4,2.67,1,1,0,0,0,0,.24,1.06,1.06,0,0,0,.38.82,17.8,17.8,0,0,1,3.3,3.62,30.24,30.24,0,0,0-4.59,4.9,4,4,0,0,0-.85,2.35,2.36,2.36,0,0,0,.67,1.71l.12.12a25.52,25.52,0,0,0-4.49,3.55,4.33,4.33,0,0,0-1.38,2.95A2.37,2.37,0,0,0,503.2,60l4,4a10.82,10.82,0,0,0-1.4,4.84h0a1.3,1.3,0,0,0,2.51.5l0,.06a3.22,3.22,0,0,1,1-1.32c0,.51-.07,1-.07,1.4A8.22,8.22,0,0,0,510.41,74a1.28,1.28,0,0,0,1.17.74,1.31,1.31,0,0,0,1.31-1.3c0-2.43,1.63-4.88,3.13-6.66a41.56,41.56,0,0,0,3.76,11.59,26.65,26.65,0,0,0,2,3.21l-.61.9a1.09,1.09,0,0,0-.16.42.43.43,0,0,1-.24.08c-.53,0-1.61-.69-3.06-2.67a12.16,12.16,0,0,1-1.83-5.49,1.06,1.06,0,0,0-2.11-.1c-.58,3.5,1,9.1,4.76,12.41a16.32,16.32,0,0,0,9.18,4.26,1.07,1.07,0,0,0,1.17-1.06,1,1,0,0,0,0-.11l-.08-.82a1.06,1.06,0,0,0-.82-.93,10.35,10.35,0,0,1-3.59-1.63c-.51-.42-.77-.64-.77-1A1.81,1.81,0,0,1,524,85a1.05,1.05,0,0,0,.44-.36,18,18,0,0,0,8.15,4.5h.05a1.06,1.06,0,0,0,.51,0h.05a18,18,0,0,0,7.7-4.11c.08,0,.17,0,.25,0l.45-.06,2.17,3.21a1.07,1.07,0,0,0,.9.46l2.39,2.79a1.06,1.06,0,0,0,1.87-.69,1,1,0,0,0-.12-.49l-1.7-3.25a1,1,0,0,0,.1-.43,1.06,1.06,0,0,0-.18-.6l-1.45-2.14c1-1.15,2.51-4,3-12.09a50.61,50.61,0,0,0,1.19-5c1.51,1.78,3.12,4.25,3.14,6.7a.9.9,0,0,0,0,.17,1.31,1.31,0,0,0,2.42.44,8.23,8.23,0,0,0,1.27-4.6c0-.42,0-.89-.07-1.4a3.23,3.23,0,0,1,1,1.32,1.31,1.31,0,0,0,2.49-.56A10.91,10.91,0,0,0,558.6,64l4-4A2.36,2.36,0,0,0,563.24,58.33Z" transform="translate(-407.72 -19.73)"/><path class="cls-3" d="M562.37,57.45a4.32,4.32,0,0,0-1.39-3A25.5,25.5,0,0,0,556.5,51l.12-.12a2.36,2.36,0,0,0,.67-1.71,4,4,0,0,0-.84-2.34,30.28,30.28,0,0,0-4.62-4.91l2-3a1,1,0,0,0,.08-1l1.7-3.24a1,1,0,0,0,.12-.49,1.06,1.06,0,0,0-1.87-.69l-2.39,2.79a1.06,1.06,0,0,0-.9.47l-1.9,2.82a30.52,30.52,0,0,0-9.54-4.16,11.8,11.8,0,0,0-2.75-1.55c-.11-.36-.22-.7-.34-1a4,4,0,0,1,.5-.6,5.62,5.62,0,0,0,1.83-4.12,3.53,3.53,0,0,0-1.25-2.88l-.2-.16a1.06,1.06,0,0,0-1.58.34l-.12.22a8.21,8.21,0,0,1-2.46,3l-.36-.17-.32-.15c-.05-.58-.09-1.16-.09-1.71a8.36,8.36,0,0,1,.56-3.51c.21-.38.39-.47.43-.48s.2.1.38.46l0,.07a1.27,1.27,0,0,0,2.37-.65,1.15,1.15,0,0,0-.05-.36l0-.07a3.53,3.53,0,0,0-1.75-2,2.9,2.9,0,0,0-2.37.07,3.17,3.17,0,0,0-1,.65,2.61,2.61,0,0,0-1.73-.76,2,2,0,0,0-1.71,1,4,4,0,0,0-.52,2.35,15.74,15.74,0,0,0,.14,1.86,1.06,1.06,0,0,0-.82.32,3.12,3.12,0,0,0-.82,2.19,3.87,3.87,0,0,0,0,.42,4.08,4.08,0,0,0,.82,2,3,3,0,0,0-.88,1.44l-3.62,2.15a2.66,2.66,0,0,0-1.22,2.11l0,.4a4,4,0,0,0,.07.72,30.77,30.77,0,0,0-5,2.64,17.86,17.86,0,0,1-2-4.24,1.06,1.06,0,0,0-.84-.72,3.48,3.48,0,0,0-4,2.67,1,1,0,0,0,0,.24,1.06,1.06,0,0,0,.38.82,17.8,17.8,0,0,1,3.3,3.62,30.33,30.33,0,0,0-4.59,4.9,4,4,0,0,0-.85,2.35,2.36,2.36,0,0,0,.67,1.71l.12.12A25.56,25.56,0,0,0,503,54.51a4.32,4.32,0,0,0-1.38,2.95,2.36,2.36,0,0,0,.68,1.71l4,4a10.83,10.83,0,0,0-1.4,4.84h0a1.3,1.3,0,0,0,2.51.5l0,.05a3.27,3.27,0,0,1,1-1.32c0,.51-.07,1-.07,1.4a8.22,8.22,0,0,0,1.22,4.51,1.28,1.28,0,0,0,1.17.74,1.31,1.31,0,0,0,1.31-1.3c0-2.43,1.63-4.88,3.13-6.66a41.54,41.54,0,0,0,3.76,11.59,26.4,26.4,0,0,0,2,3.21l-.6.9a1,1,0,0,0-.16.42.43.43,0,0,1-.24.08c-.53,0-1.61-.69-3.06-2.67A12.19,12.19,0,0,1,515,74a1.06,1.06,0,0,0-2.11-.1c-.57,3.5,1.05,9.1,4.77,12.41a16.35,16.35,0,0,0,9.18,4.26A1.07,1.07,0,0,0,528,89.47s0-.07,0-.11l-.09-.82a1.06,1.06,0,0,0-.82-.93A10.32,10.32,0,0,1,523.51,86c-.51-.42-.77-.64-.77-1a1.83,1.83,0,0,1,.36-.87,1,1,0,0,0,.44-.36,18,18,0,0,0,8.16,4.5h.05a1.09,1.09,0,0,0,.52,0h.05a17.93,17.93,0,0,0,7.7-4.12c.08,0,.17,0,.25,0l.45-.06,2.17,3.21a1.06,1.06,0,0,0,.9.47l2.39,2.79a1.06,1.06,0,0,0,1.75-1.18l-1.7-3.25a1,1,0,0,0-.09-1L544.68,83c1-1.15,2.51-4,3-12.09a51.52,51.52,0,0,0,1.19-5c1.51,1.78,3.11,4.25,3.13,6.7a1.11,1.11,0,0,0,0,.17,1.31,1.31,0,0,0,2.42.44,8.21,8.21,0,0,0,1.27-4.6c0-.42,0-.89-.08-1.4a3.2,3.2,0,0,1,1,1.32,1.31,1.31,0,0,0,2.5-.55,10.94,10.94,0,0,0-1.41-4.84l4-4A2.37,2.37,0,0,0,562.37,57.45Z" transform="translate(-407.72 -19.73)"/><path class="cls-4" d="M547.33,54.31q-.9-.41-1.82-.77c.38,2.72.94,6.19,1.17,9A78,78,0,0,0,547.33,54.31Z" transform="translate(-407.72 -19.73)"/><path class="cls-4" d="M541.48,52.23c-.56-.15-1.12-.28-1.68-.4a10.53,10.53,0,0,1-15.59,0A36.94,36.94,0,0,0,518,53.74a.88.88,0,0,1,0,.1h5.63l-5.57.71a1.61,1.61,0,0,1-.05.22l9.4,6.58-9.78-6-.18.15,2.05,6.77-2.72-6.52h-.12c.76,16.79,6.13,27.33,15.26,29.82,4.35-1.19,7.83-4.2,10.39-8.83a44.51,44.51,0,0,0,1-10.62C543.38,59.68,542.65,54.49,541.48,52.23Zm.14,18.56a64,64,0,0,1-6.41.56v6.41c-1,0-2.11.07-3.2.07s-2.17,0-3.21-.07V71.35a64.36,64.36,0,0,1-6.41-.56V64.37a63.78,63.78,0,0,0,6.41.56V58.52c1,0,2.12.07,3.21.07s2.16,0,3.2-.07v6.41a64.07,64.07,0,0,0,6.41-.56Z" transform="translate(-407.72 -19.73)"/><path class="cls-1" d="M550.78,45.94c-1.1,1,.54,2.09,0,2.59-.24.22-.51,0-.74-.23a2.33,2.33,0,0,1-.54-1l-.73.53a4.29,4.29,0,0,0,.67,1c.6.67,1.4,1.14,2.18.44,1.09-1-.52-2.1,0-2.54.26-.23.58.09.76.29a2.17,2.17,0,0,1,.46.79l.67-.5a3.47,3.47,0,0,0-.58-.88C552.34,45.83,551.51,45.3,550.78,45.94Z" transform="translate(-407.72 -19.73)"/><path d="M560.23,55.25a25.43,25.43,0,0,0-5.43-4.09l1.07-1.07c.57-.57.46-1.67-.28-2.67a29.23,29.23,0,0,0-5.17-5.35l2.53-3.75-.22-.46,1.94-3.71-2.73,3.19-.49,0L549,41a29.62,29.62,0,0,0-10.29-4.63,10.72,10.72,0,0,0-3.17-1.75,19.21,19.21,0,0,0-.64-1.93,3.76,3.76,0,0,1,.91-1.24A4.63,4.63,0,0,0,537,29.7a4.56,4.56,0,0,0,.31-1.63,2.5,2.5,0,0,0-.83-2l-.2-.15-.12.22a9,9,0,0,1-2.94,3.44c-.37.24-.68.1-1.3-.22a7.93,7.93,0,0,0-.84-.39c-.27-2.25-.21-5.08.55-6.44s2-1.33,2.69,0h0a.21.21,0,0,0,.39-.11.35.35,0,0,0,0,0h0v-.05A2,2,0,0,0,532,21a2.94,2.94,0,0,0-1.31,1.34c-1.05-1.54-2-1.71-2.61-.86s-.43,3.23.39,6.8a5.62,5.62,0,0,1-1.71-2.12c-.89.93-.67,3,.86,4l-.39.32a2.12,2.12,0,0,0-1.2,1.72l-4,2.36a1.64,1.64,0,0,0-.71,1.3,2.76,2.76,0,0,0,0,.29,1.89,1.89,0,0,0,.31,1.13l0,.16v0A29.67,29.67,0,0,0,515,41l-.39-.58a18.91,18.91,0,0,1-2.34-4.82,2.42,2.42,0,0,0-2.75,1.86,18.81,18.81,0,0,1,3.6,4l.44.65a29.16,29.16,0,0,0-5.16,5.35c-.74,1-.85,2.1-.28,2.67l1.07,1.07a25.48,25.48,0,0,0-5.43,4.09c-1.08,1.09-1.4,2.47-.71,3.16l4.52,4.53A10.25,10.25,0,0,0,506,68a.24.24,0,0,0,.24.25.24.24,0,0,0,.22-.16c.49-1,.94-1.66,3.32-3a22.79,22.79,0,0,0-.37,3.57,7.16,7.16,0,0,0,1.12,4.06.22.22,0,0,0,.22.13.24.24,0,0,0,.25-.24c0-3.6,3-7.11,4.81-8.9l.07-.08a42.73,42.73,0,0,0,4,13.42,25.12,25.12,0,0,0,2.33,3.69l-1,1.5.08.18c-1.31,1.83-3.39.24-5.27-2.31a13.18,13.18,0,0,1-2-6.05c-.5,3,1,8.35,4.42,11.44a15.44,15.44,0,0,0,8.59,4l-.08-.82a11.36,11.36,0,0,1-4-1.84c-1.41-1.17-1.54-1.88-.38-3.61h.2l.72-1.07A17,17,0,0,0,532,87.28h.1a16.89,16.89,0,0,0,7.64-4.2,2.08,2.08,0,0,0,.57.09,2,2,0,0,0,.47-.06,2.08,2.08,0,0,0,.48.06h.09l2.45,3.62.49,0L547,89.95,545,86.24l.22-.46-2-2.93c2.29-1.45,3.09-7.43,3.35-12.07a52.13,52.13,0,0,0,1.55-7.19l.07.09C550,65.46,553,69,553.06,72.6a.25.25,0,0,0,.24.21.24.24,0,0,0,.21-.12,7.14,7.14,0,0,0,1.13-4.07,22.34,22.34,0,0,0-.37-3.57c2.38,1.37,2.83,2,3.32,3a.25.25,0,0,0,.47-.1,10.41,10.41,0,0,0-1.65-5l4.52-4.53C561.62,57.73,561.31,56.34,560.23,55.25ZM539.63,37a29.08,29.08,0,0,1,15.6,10.65c.6.81.73,1.69.32,2.1l0,0a1.48,1.48,0,0,0,0-.23,2.67,2.67,0,0,0-.53-1.42h0a0,0,0,0,0-.07,0,.05.05,0,0,0,0,.07c.32.55.59,1.54.2,2l-.12.11a1.62,1.62,0,0,0,0-.23,2.65,2.65,0,0,0-.53-1.42h0a0,0,0,0,0-.07,0,0,0,0,0,0,0,.07c.32.55.59,1.54.2,2l-.12.11a1.37,1.37,0,0,0,0-.23,2.67,2.67,0,0,0-.52-1.42h0a.05.05,0,0,0-.07,0,.05.05,0,0,0,0,.07c.32.55.59,1.54.2,2l-.12.11a1.5,1.5,0,0,0,0-.23,2.66,2.66,0,0,0-.53-1.42h0a0,0,0,0,0-.07,0,.05.05,0,0,0,0,.07c.32.55.59,1.54.2,2l-.11.11a1.61,1.61,0,0,0,0-.23A2.68,2.68,0,0,0,553,50.2h0a.05.05,0,0,0-.08.05c.32.55.59,1.54.2,2l-.11.11a1.5,1.5,0,0,0,0-.23,2.66,2.66,0,0,0-.53-1.42h0a.05.05,0,0,0-.07,0,.06.06,0,0,0,0,.07c.32.55.59,1.54.2,2l-.11.11a1.5,1.5,0,0,0,0-.23,2.67,2.67,0,0,0-.53-1.42h0a0,0,0,0,0-.06,0,0,0,0,0,0,0,.07c.32.55.59,1.54.2,2l-.11.11a1.53,1.53,0,0,0,0-.23,2.67,2.67,0,0,0-.53-1.42h0a.05.05,0,0,0-.07,0,.05.05,0,0,0,0,.07c.32.55.59,1.54.2,2h0a2.84,2.84,0,0,0-.5-1.5,23,23,0,0,0-8.27-7.52l0,0a10.67,10.67,0,0,0-.09-1.32,2.87,2.87,0,0,0,1,.8,4.49,4.49,0,0,0,1.14.42l.35-.77a2.88,2.88,0,0,1-1-.29,1.29,1.29,0,1,1,1.14-2.32,2.12,2.12,0,0,1,.8.75l.49-.73a4.14,4.14,0,0,0-1-.75,2.05,2.05,0,0,0-3,.78,2.45,2.45,0,0,0-.2.52A10.74,10.74,0,0,0,539.41,37ZM548,52.43l1.09.63a4.19,4.19,0,0,0,2.06.84.91.91,0,0,1,0,.17,2.6,2.6,0,0,1-2.14-.49s0-.1,0-.14v-.14l-.13-.06a39,39,0,0,0-3.61-1.52l2.65-2.65A22.57,22.57,0,0,1,550.35,52l-.05,0a10.37,10.37,0,0,0-1.26-.63h0a.05.05,0,0,0-.06,0,.05.05,0,0,0,0,.07l1.09.63.52.3.11.15A3.18,3.18,0,0,1,551,53a7.27,7.27,0,0,1-1.19-.57,10.71,10.71,0,0,0-1.27-.63h0a0,0,0,0,0-.06,0,.05.05,0,0,0,0,.07l1.09.63a6.69,6.69,0,0,0,1.5.76,1.84,1.84,0,0,1,.06.34,4,4,0,0,1-1.84-.69,10.18,10.18,0,0,0-1.27-.63h0a.05.05,0,0,0-.06,0A.05.05,0,0,0,548,52.43Zm3,1.93-.05.07c-.35.35-1.05.3-1.79-.12l-.17-.1c0-.13,0-.27,0-.4A2.75,2.75,0,0,0,551,54.36Zm3.51,5.38a9.1,9.1,0,0,0,1.51,1.2,3,3,0,0,1,.24.57A6.14,6.14,0,0,1,554,60.17a.05.05,0,0,0-.07,0,.05.05,0,0,0,0,.07,5.38,5.38,0,0,0,2.31,1.51,1.57,1.57,0,0,1,0,.27c-.83.13-1.65-.45-2.77-1.35a.05.05,0,0,0-.07,0,.05.05,0,0,0,0,.07c.85.78,1.8,1.65,2.81,1.54l0,.11c-1,.48-1.89-.16-3.22-1.22a0,0,0,0,0-.07,0,.05.05,0,0,0,0,.07c.87.8,1.92,1.77,3,1.5-1,.81-2.28-.18-2.81-.66a21,21,0,0,0-2.61-1.91,2.94,2.94,0,0,0-1.76-.5l2.55-2.56a18.21,18.21,0,0,1,4,3,3.92,3.92,0,0,1,.36.42,14.63,14.63,0,0,1-1.19-.88,0,0,0,0,0-.07,0A0,0,0,0,0,554.47,59.74Zm-5.79-.58c.09-1.06.16-2.15.21-3.27.71.32,1.4.65,2,1ZM546,64l-.24-.09c0-.22,0-.45,0-.68l.07,0c.2.07.44.15.45.26h0c0,.21,0,.41,0,.61Zm.29.68h0c0,.21,0,.41,0,.62l-.28-.12-.24-.1q0-.33,0-.69l.07,0C546.06,64.53,546.3,64.61,546.3,64.72ZM546,62.87l-.23-.09c0-.22,0-.45,0-.69l.07,0c.2.07.44.15.45.24h0c0,.2,0,.41,0,.62Zm-.06-1.16-.23-.08c0-.23,0-.46,0-.69l.07,0c.2.06.45.14.46.24h0c0,.21,0,.42,0,.63Zm-.08-1.17-.23-.08c0-.23,0-.46-.06-.69l.06,0c.19.05.45.13.46.22h0c0,.21,0,.42,0,.63Zm-.11-1.17-.22-.07-.07-.69.06,0c.19,0,.46.12.47.21h0q0,.31.06.62Zm-.12-1.16-.22-.06c0-.23-.06-.47-.09-.7h.05c.2,0,.46.11.47.2h0l.08.64Zm-2.87,21c-.17-.13-.38-.28-.35-.38h0c.05-.19.1-.38.15-.59l.25.19c.16.11.37.25.36.34s-.12.43-.18.63Zm.07.67c-.08.22-.16.44-.25.64l-.23-.21c-.15-.13-.33-.28-.3-.37s.13-.38.2-.58l.25.2C542.61,79.63,542.79,79.77,542.8,79.85ZM543,78c-.17-.11-.38-.26-.37-.36s.09-.4.13-.6l.26.18c.16.1.39.24.38.33s-.1.43-.15.64ZM531.25,54.82h-1l2.7-4.71h1Zm2.51,0h-1l-.5-.88.5-.87Zm-22.7,6.37a.05.05,0,0,0-.07,0c-1.33,1.06-2.24,1.7-3.22,1.22a.71.71,0,0,1,0-.11c1,.11,2-.76,2.81-1.54a.05.05,0,0,0,0-.07.05.05,0,0,0-.07,0c-1.12.9-1.95,1.49-2.77,1.35a1.66,1.66,0,0,1,0-.27A5.39,5.39,0,0,0,510,60.25a0,0,0,0,0,0-.07,0,0,0,0,0-.07,0,6.17,6.17,0,0,1-2.2,1.34,2.9,2.9,0,0,1,.25-.57,9.08,9.08,0,0,0,1.51-1.2,0,0,0,0,0,0-.07.05.05,0,0,0-.07,0,13.75,13.75,0,0,1-1.19.88,3.65,3.65,0,0,1,.36-.42,18.18,18.18,0,0,1,4-3l2.56,2.56a3,3,0,0,0-1.76.51,21.39,21.39,0,0,0-2.61,1.9c-.53.49-1.84,1.48-2.81.67,1.09.26,2.14-.7,3-1.5A.05.05,0,0,0,511.06,61.18Zm2-4.28c.65-.35,1.34-.69,2.05-1q.07,1.67.21,3.27Zm2.1-3.66-.13.06v.14s0,.09,0,.14a2.61,2.61,0,0,1-2.14.49,1.47,1.47,0,0,1,0-.17,4.17,4.17,0,0,0,2.06-.84l1.09-.63a.05.05,0,0,0,0-.07.05.05,0,0,0-.07,0h0a10.56,10.56,0,0,0-1.27.63,3.93,3.93,0,0,1-1.84.69,1.93,1.93,0,0,1,.06-.34,6.67,6.67,0,0,0,1.5-.76l1.09-.63a.05.05,0,0,0,0-.07,0,0,0,0,0-.06,0h0a10.55,10.55,0,0,0-1.27.63A7.31,7.31,0,0,1,513,53a3,3,0,0,1,.28-.53l.1-.15.52-.3,1.09-.63a.05.05,0,0,0,0-.07.05.05,0,0,0-.06,0h0a10.45,10.45,0,0,0-1.27.63l-.05,0a22.45,22.45,0,0,1,2.46-2.93l2.65,2.65A38.54,38.54,0,0,0,515.17,53.24Zm-.1,1-.17.1c-.73.43-1.43.48-1.79.12l-.05-.07a2.75,2.75,0,0,0,2-.56C515.06,53.94,515.06,54.07,515.06,54.2Zm1.37-5.45c.33-.32.68-.63,1-.93l2.38,3.52-.61.21Zm2.46-2a22.36,22.36,0,0,1,2.35-1.49h0a10.71,10.71,0,0,0,1.64,5.27l-1.26.33Zm8.9-6.55c0,.29,0,.7-.08,1.2a2.86,2.86,0,0,1-.39.52l-.14.12-.12-.26-.12-.21-.2.12a3.5,3.5,0,0,0-.48.35l-.25.19a3.37,3.37,0,0,0,0-.72l.08-.13a3.4,3.4,0,0,0,1.33-1.06Zm0-.48,0-.06h0s0,0,0,0ZM526,48.58a2.9,2.9,0,0,1,.66,1.11,3.44,3.44,0,0,0-1.07.24,2.9,2.9,0,0,1-.54-.43,2.94,2.94,0,0,1-.81-1.79A3,3,0,0,1,526,48.58Zm-2-1.85a2.82,2.82,0,0,1-.31-.62,2.91,2.91,0,0,1-.15-1.28,3,3,0,0,1,.19-.68,2.94,2.94,0,0,1,1.21,1.52,3,3,0,0,1,.15,1.28v0A3.42,3.42,0,0,0,524,46.73Zm4.18,4A3,3,0,0,1,529.65,52a2.89,2.89,0,0,1-3.44-1.31A3,3,0,0,1,528.16,50.77Zm-.09-.86a3.33,3.33,0,0,0-.53-.15,3,3,0,0,1-.5-1.52A2.92,2.92,0,0,1,529.5,51,3.41,3.41,0,0,0,528.08,49.91Zm-1.29-2.65-.24,0v.24a3.71,3.71,0,0,0,0,.6s0,.05,0,.08a3,3,0,0,0-.32-.38,3.35,3.35,0,0,0-.52-.43,2.92,2.92,0,0,1-.06-.78s0-.05,0-.08,0-.18,0-.26a3.08,3.08,0,0,1,.28-.74A2.93,2.93,0,0,1,527,47.11c0,.06,0,.12,0,.18Zm0-7.33a2.85,2.85,0,0,1-.9.92,3.49,3.49,0,0,0-.51-1,2.92,2.92,0,0,1,.28-.62l0-.07c.48.12.91.22,1.31.29A3.08,3.08,0,0,1,526.75,39.92Zm-.9,3.08a2.92,2.92,0,0,1,.51-.49,3,3,0,0,1,.23,1.68c0,.09,0,.18-.06.27s0,.11-.06.17l-.23-.17-.2-.13-.12.21a3.46,3.46,0,0,0-.25.54l-.08.16c0-.06,0-.12,0-.18a3.44,3.44,0,0,0-.34-.7c0-.08,0-.17.05-.25l0,0A3.4,3.4,0,0,0,525.84,43Zm-.64-.4h0a2.85,2.85,0,0,1-.43,1.22,3.4,3.4,0,0,0-.88-.67,2.88,2.88,0,0,1,0-.69h0a3,3,0,0,1,.85-1.77A3,3,0,0,1,525.2,42.6Zm-1.53-1.14a3.57,3.57,0,0,0-.45-.55,3,3,0,0,1,0-.65h0a2.92,2.92,0,0,1,.57-1.52l.42.07a2.92,2.92,0,0,1,.34,1.45A3.4,3.4,0,0,0,523.67,41.46Zm-.26,1.37a3.45,3.45,0,0,0,.05.58,3.46,3.46,0,0,0-.13.39,3.45,3.45,0,0,0-.2.63,3.51,3.51,0,0,0-.67-.43,2.78,2.78,0,0,1-.35-1.6,3,3,0,0,1,.25-1A3,3,0,0,1,523.41,42.82Zm-.34,2.69a3.48,3.48,0,0,0,.16.74,3.44,3.44,0,0,0,.46.88c0,.09,0,.18,0,.27a3.39,3.39,0,0,0-1-.28,2.85,2.85,0,0,1-.44-.5,3,3,0,0,1-.51-1.88v0A3,3,0,0,1,523.08,45.51Zm-.73,2.55a3,3,0,0,1,1.54.36,3.38,3.38,0,0,0,.82,1.4l.14.13A3.38,3.38,0,0,0,524,50a2.87,2.87,0,0,1-.58-.32A2.94,2.94,0,0,1,522.35,48.06Zm3.43,2.86a3.47,3.47,0,0,0,1,1.13,3.29,3.29,0,0,0-.64.3,2.78,2.78,0,0,1-.64-.12A2.93,2.93,0,0,1,524,51,3,3,0,0,1,525.77,50.92Zm2.39,1.69a3.38,3.38,0,0,0,.7,0,3.08,3.08,0,0,1,1.25.58,2.87,2.87,0,0,1-3.67.06A3,3,0,0,1,528.17,52.61Zm1.9-2.51h1l.68,1.2-.5.87Zm5.07,2.56a3.37,3.37,0,0,0,.7,0,3,3,0,0,1,1.72.68,2.87,2.87,0,0,1-3.67-.05A3.11,3.11,0,0,1,535.13,52.66ZM545.05,64l-.23-.09c0-.22,0-.45,0-.68l.07,0c.2.07.45.15.45.26h0l0,.61Zm.29.68h0c0,.21,0,.41,0,.62l-.28-.12-.24-.1c0-.22,0-.45,0-.69l.07,0C545.11,64.53,545.35,64.61,545.35,64.72ZM545,62.87l-.23-.09c0-.22,0-.45,0-.69l.07,0c.2.07.44.15.45.24h0c0,.2,0,.41,0,.62ZM545,61.71l-.23-.08c0-.23,0-.46,0-.69l.07,0c.2.06.45.14.45.24h0q0,.31,0,.63Zm-.08-1.17-.23-.08c0-.23,0-.46-.05-.69l.06,0c.19.05.45.13.46.22h0l0,.63Zm-.1-1.17-.22-.07-.07-.69.06,0c.19,0,.46.12.46.21h0c0,.21,0,.41.06.62Zm-.12-1.16-.22-.06-.09-.7h0c.21,0,.46.11.48.2h0c0,.21.05.42.08.64ZM544.1,64c-.21-.08-.44-.16-.45-.27h0c0-.2,0-.39,0-.59l.28.11c.2.07.45.15.45.26h0c0,.21,0,.41,0,.61Zm.29.68h0c0,.21,0,.41,0,.62l-.28-.12c-.2-.08-.44-.17-.45-.28s0-.4,0-.6l.28.12C544.16,64.53,544.39,64.61,544.39,64.72Zm-.34-1.85c-.2-.07-.44-.15-.45-.26h0c0-.2,0-.4,0-.6l.29.11c.2.07.44.15.45.24h0l0,.62ZM544,61.71c-.2-.07-.45-.15-.46-.25h0l0-.6.29.1c.2.06.45.14.45.24h0q0,.31,0,.63Zm-.08-1.17c-.2-.06-.46-.14-.46-.25h0c0-.2,0-.4-.05-.6l.29.09c.19.05.45.13.46.22h0c0,.21,0,.42.05.63Zm-.5,11.92.27.15c.19.09.42.21.41.31h0c0,.21,0,.42-.06.62l-.27-.16c-.18-.09-.4-.21-.42-.31S543.4,72.66,543.42,72.46Zm.46-.25c-.18-.09-.41-.2-.42-.31s0-.41,0-.62l.26.13c.26.12.44.21.42.33h0c0,.21,0,.41,0,.62ZM544,71c-.19-.09-.41-.19-.4-.29h0c0-.2,0-.41,0-.61l.24.11c.32.13.45.21.44.34h0c0,.2,0,.4,0,.6Zm0-1.19c-.22-.09-.39-.17-.39-.26h0c0-.2,0-.39,0-.59l.28.14c.19.08.42.19.42.28h0c0,.19,0,.39,0,.58Zm.09-1.11c-.2-.08-.43-.19-.44-.3s0-.4,0-.6l.26.12c.26.11.44.19.44.3h0c0,.2,0,.41,0,.61Zm0-1.18c-.2-.08-.42-.18-.42-.29h0c0-.2,0-.4,0-.59l.27.12c.2.08.44.17.44.29h0c0,.2,0,.4,0,.61Zm0-1.17c-.2-.08-.43-.17-.43-.28h0c0-.2,0-.39,0-.59l.29.12c.19.07.44.17.44.27h0c0,.09,0,.18,0,.28s0,.22,0,.33Zm.36-9.33-.21-.05q0-.31-.09-.63h.05c.21,0,.46.08.48.19h0c0,.18.06.37.08.56Zm-.17-1.1-.21,0c0-.21-.08-.42-.11-.62H544c.19,0,.46.07.48.16s.07.37.1.57Zm-.2-1.09-.21,0c0-.23-.1-.45-.15-.67h0c.2,0,.47.08.51.17l.13.59Zm-1.43-4.45-.27.09-.06,0a5,5,0,0,0-.31-.43.73.73,0,0,1,.13-.18A2.68,2.68,0,0,1,542.68,50.4Zm-.17-.77.21.06,0,.07h0Zm.47,1.19a5.47,5.47,0,0,1,.35.63l-.29,0h-.19c-.09-.18-.18-.36-.27-.52C542.78,50.82,542.94,50.77,543,50.81Zm0-.73a.85.85,0,0,1,.13-.18,2.62,2.62,0,0,1,.52.49l-.27.09-.06,0A5.25,5.25,0,0,0,543,50.08Zm.59,1.9c.08.21.17.44.25.67l-.29-.06-.23,0c-.08-.24-.17-.47-.26-.69C543.26,51.88,543.51,51.89,543.57,52Zm-.12,1c.21,0,.48.08.54.18l.16.57-.31-.06-.21,0c-.06-.22-.12-.43-.18-.64Zm.8-.47c-.08-.24-.17-.47-.26-.69.22,0,.47,0,.53.12s.17.44.25.67l-.29-.06ZM544,51.43h-.19c-.09-.18-.17-.36-.27-.52.2-.07.35-.12.4-.08a6.12,6.12,0,0,1,.35.63Zm-.75-2a2,2,0,0,0-1.08-.33H542a.79.79,0,0,0-.27.05,10.71,10.71,0,0,0,1-4l0,0a22.4,22.4,0,0,1,2.35,1.49Zm-1.54-2.83a2.77,2.77,0,0,1-.44.5,3.4,3.4,0,0,0-1,.28c0-.09,0-.18,0-.27a3.39,3.39,0,0,0,.45-.88,3.26,3.26,0,0,0,.17-.74,3,3,0,0,1,1.29-.78v0A3,3,0,0,1,541.71,46.64Zm.06,3.05,0,.07h0l0,0,0-.05Zm0-6.32a2.8,2.8,0,0,1-.25.61,3.48,3.48,0,0,0-.67.43,3.51,3.51,0,0,0-.2-.62,3.46,3.46,0,0,0-.13-.39,3.36,3.36,0,0,0,.05-.58,3,3,0,0,1,1.05-1.41,3,3,0,0,1,.25,1A2.93,2.93,0,0,1,541.79,43.37Zm-1-2.46a3.25,3.25,0,0,0-.45.55,3.44,3.44,0,0,0-.85-1.2,1,1,0,1,1,1.33,0h0A3,3,0,0,1,540.78,40.91Zm-.31,3.92a2.84,2.84,0,0,1-.46,1.9,3.45,3.45,0,0,0-1.09.24v0a2.93,2.93,0,0,1,1.36-2.8A3,3,0,0,1,540.47,44.83Zm-.69,2.88a2.94,2.94,0,0,1-.81,1.8,2.81,2.81,0,0,1-.54.43,3.43,3.43,0,0,0-1.07-.24,2.92,2.92,0,0,1,.66-1.11A3,3,0,0,1,539.78,47.71Zm-1.31-2.65c0,.06,0,.12,0,.18l-.07-.16a3.39,3.39,0,0,0-.26-.54l-.12-.21-.2.13-.23.17c0-.06,0-.11-.06-.17s0-.18-.06-.27a2.94,2.94,0,0,1,.23-1.68,3.22,3.22,0,0,1,.51.49,3.4,3.4,0,0,0,.59,1.07l0,0c0,.08,0,.16.06.25A3.4,3.4,0,0,0,538.47,45.06Zm-.47.42a3,3,0,0,1,.27.74,2.56,2.56,0,0,1,0,.26s0,0,0,.07a2.9,2.9,0,0,1-.06.78,3.16,3.16,0,0,0-.52.43,3.32,3.32,0,0,0-.32.39s0-.05,0-.08a3.22,3.22,0,0,0,0-.6v-.24l-.24,0-.29,0c0-.06,0-.12,0-.18A3,3,0,0,1,538,45.48ZM537,48.24a3,3,0,0,1-.5,1.52,3.3,3.3,0,0,0-2,1.19A2.92,2.92,0,0,1,537,48.24Zm-1.12,2.52a3,3,0,0,1,2,0A2.9,2.9,0,0,1,534.35,52,3,3,0,0,1,535.83,50.77ZM537.21,52a3.5,3.5,0,0,0,1-1.13A3,3,0,0,1,540,51a3,3,0,0,1-1.55,1.19,2.77,2.77,0,0,1-.65.12A3.29,3.29,0,0,0,537.21,52ZM540,50a3.33,3.33,0,0,0-.83-.07l.14-.13a3.38,3.38,0,0,0,.81-1.4,3,3,0,0,1,1.54-.36,3,3,0,0,1-1.08,1.64A2.86,2.86,0,0,1,540,50Zm1.42,0a3.31,3.31,0,0,1,.32.33l-.28.09-.19.07-.25-.1A5.42,5.42,0,0,0,541.41,50.07Zm0,.88.15-.05c.21-.08.37-.13.42-.09a6.14,6.14,0,0,1,.35.63l-.3,0c-.22,0-.48,0-.56-.12l-.15-.23Zm.61.91c.22,0,.49,0,.56.12s.17.44.24.67l-.29-.06a1.24,1.24,0,0,1-.53-.16c-.08-.21-.16-.41-.24-.59ZM542.5,53c.21,0,.48.08.54.18s.11.37.16.57l-.3-.06a1.16,1.16,0,0,1-.5-.15c-.05-.2-.11-.4-.17-.58Zm.32,1.12c.2,0,.47.08.51.17s.09.39.13.59l-.31-.06c-.19,0-.42-.07-.48-.15s-.09-.41-.14-.61Zm.27,1.14c.19,0,.46.07.48.16l.1.57-.31-.07c-.2,0-.43-.08-.47-.17l-.1-.55Zm.19,1.09c.21,0,.46.08.48.19h0c0,.18.06.37.08.56l-.31-.08c-.2,0-.44-.1-.47-.19s-.05-.36-.08-.54Zm.16,1.09c.21,0,.46.11.47.2h0c0,.21.05.42.08.64l-.3-.09c-.2,0-.43-.11-.47-.2l-.08-.62Zm.15,1.17c.19,0,.46.12.47.21h0q0,.31.06.62l-.3-.1c-.2-.06-.44-.12-.47-.22s0-.4-.06-.6Zm-.28,15,.27.15c.19.1.42.22.41.32h0c0,.21,0,.41-.08.62l-.27-.16c-.18-.1-.41-.22-.41-.33S543.28,73.82,543.31,73.61Zm.13,1.32c.18.09.41.22.4.32h0c0,.21-.06.42-.1.63l-.27-.17c-.19-.11-.42-.24-.4-.34h0c0-.19.06-.39.08-.6Zm-.17,1.16c.17.1.4.24.39.33h0c0,.21-.08.42-.11.62l-.26-.17c-.18-.11-.4-.24-.39-.35s.07-.39.1-.6Zm.13,3.41,0,0c.14.1.32.24.33.32s-.16.44-.25.64l-.23-.21-.12-.11C543.24,80,543.32,79.73,543.39,79.5Zm.29-.32-.16-.12c.06-.22.12-.45.18-.68l0,0c.16.11.38.25.36.34s-.12.43-.18.63ZM544,78l-.17-.12q.08-.34.15-.69l0,0c.17.1.39.24.38.33s-.09.43-.15.64Zm.25-1.16-.18-.12c0-.23.08-.46.12-.69h0l0,0c.17.1.41.24.39.33h0l-.12.62Zm.2-1.16-.19-.11c0-.23.07-.46.1-.69l.05,0c.17.09.41.22.4.32h0c0,.21-.06.42-.1.63Zm.17-1.16-.2-.12c0-.23.05-.46.08-.69l.05,0c.19.1.42.22.41.32h0c0,.21,0,.41-.08.62Zm.13-1.17-.2-.11.06-.69h0l.05,0c.19.09.42.21.41.31h0c0,.21,0,.42-.06.62Zm.11-1.17-.21-.11c0-.23,0-.47,0-.7l0,0c.26.12.43.21.42.33h0c0,.21,0,.41,0,.62Zm.07-1.19-.2-.1c0-.24,0-.48,0-.71h0l0,0c.32.13.45.21.44.34h0c0,.2,0,.4,0,.6Zm0-1.19-.19-.08c0-.23,0-.45,0-.66l.07,0c.19.08.43.19.42.28h0c0,.19,0,.39,0,.58Zm.09-1.11-.23-.11c0-.24,0-.47,0-.7h0l.06,0c.26.11.44.19.44.3h0c0,.2,0,.41,0,.61Zm0-1.18-.22-.1c0-.25,0-.47,0-.69l.07,0c.21.08.44.17.44.29h0c0,.2,0,.4,0,.61Zm0-1.17-.23-.1s0-.07,0-.1,0-.37,0-.58l.08,0c.19.07.44.17.44.27h0c0,.09,0,.18,0,.28s0,.22,0,.33Zm.36-9.33-.21-.05-.1-.63h.05c.21,0,.47.08.48.19h0l.08.56Zm-.17-1.1-.21,0-.11-.62H545c.19,0,.45.07.48.16s.07.37.1.57Zm-.2-1.09-.21,0c0-.23-.1-.45-.15-.67h0c.2,0,.47.08.51.17s.09.39.13.59Zm-.27-1.14-.21,0c-.06-.22-.12-.43-.18-.64h0c.21,0,.48.08.54.18s.11.37.16.57Zm0-2.19c-.1-.23-.21-.45-.33-.65l2.06-3.05c.36.3.7.61,1,.94Zm-4.69-9.06h0a2.88,2.88,0,0,1,0,.69,3.4,3.4,0,0,0-.88.68,2.9,2.9,0,0,1-.42-1.22h0a2.94,2.94,0,0,1,.47-1.91A2.93,2.93,0,0,1,540.12,42.46Zm-2.57-6.27a3,3,0,0,1,1.32,1.45,3.09,3.09,0,0,1,.18.63,3.38,3.38,0,0,0-.26.74h0a3.39,3.39,0,0,0-1.25-1.21,3.16,3.16,0,0,1-.11-.59A2.88,2.88,0,0,1,537.55,36.18ZM536.89,38a2.93,2.93,0,0,1,1.79,1.86,3.41,3.41,0,0,0-.52,1,2.87,2.87,0,0,1-.9-.92,2.62,2.62,0,0,1-.37-1.92Zm1.05,3.33.08.13a3.37,3.37,0,0,0,0,.72l-.25-.19a3.54,3.54,0,0,0-.48-.35l-.21-.12-.11.21c0,.08-.09.17-.13.26l-.14-.12a3.16,3.16,0,0,1-.3-.37c0-.43,0-.87,0-1.32l.27.09A3.41,3.41,0,0,0,537.94,41.34Zm-1.76-5.56a3,3,0,0,1,.37.54,3.49,3.49,0,0,0,0,1.07l-.13-.05a3.43,3.43,0,0,0-.45-.45c-.08-.5-.18-1-.3-1.53A2.83,2.83,0,0,1,536.18,35.78Zm.21,9c0-.69,0-1.38,0-2.1a4.86,4.86,0,1,1-8.72-.08c0,.65,0,1.38,0,2.18a4.38,4.38,0,1,0,8.75,0Zm-7.69-22.69c.26-.91.88-.45,1.63.5h0a.21.21,0,0,0,.16.08h0a12.07,12.07,0,0,0-.81,6h0C529.28,27,528.34,23.27,528.69,22.06Zm-.61,10.37a.32.32,0,0,1,0-.09h0a2.93,2.93,0,0,1,.72-1.26c.4-.34.81-.31,1,0s.09.63-.42.84-.49.55-.66.75a.34.34,0,0,1-.28.15l-.11,0h0A.35.35,0,0,1,528.08,32.43Zm-5.81,2.5,4.16-2.47v0a6.47,6.47,0,0,1,1.39-1.88,13,13,0,0,0,1.27-1.22c-.7,1.9-1.46,3.75-2.43,4.22s-2.93,1.26-3.4,1.45h0a2.16,2.16,0,0,1-1.25.19A.84.84,0,0,1,522.27,34.93ZM522.1,36a3.27,3.27,0,0,0,1.44-.28.41.41,0,0,0-.1-.79.77.77,0,0,1,.75,1.17s.68.79,2.5-.38c2.08-1.34,6.13.44,7.44-3.61-.36-.07-1.11-1.07.2-2.3a7.68,7.68,0,0,0,2-3.19l.06-.1a2.32,2.32,0,0,1,.48,1.52,4.06,4.06,0,0,1-.29,1.46,4.25,4.25,0,0,1-1.1,1.58,4,4,0,0,0-1,1.45l0,.08v0c1.06,5,0,8.42-4.56,12.31-1.49-1.47-1.67-3.92-1.62-5.13l0-.19a11.52,11.52,0,0,0,1.3.1v-.44a21.16,21.16,0,0,1-5-1c-2.07-.24-2.35-.57-2.43-.89a6.92,6.92,0,0,0,2.82,0l-.07-.43A6,6,0,0,1,522,37h0A.8.8,0,0,1,522.1,36Zm-12.5,12.7a0,0,0,0,0,0-.07,0,0,0,0,0-.07,0h0a2.73,2.73,0,0,0-.53,1.44,1.58,1.58,0,0,0,0,.2l-.1-.1c-.39-.45-.12-1.44.2-2a.05.05,0,0,0,0-.07,0,0,0,0,0-.07,0h0a2.72,2.72,0,0,0-.54,1.44,1.41,1.41,0,0,0,0,.2l0,0c-.41-.41-.27-1.29.33-2.1a29,29,0,0,1,13-9.8c.16.3.53.54,1.41.74a10.7,10.7,0,0,0-1.68,3.86,2.78,2.78,0,0,1-.71.59,1.29,1.29,0,1,1-1.33-2.21,2.11,2.11,0,0,1,1.06-.27l-.35-.8a4.16,4.16,0,0,0-1.15.4,2.05,2.05,0,0,0-1,3,2.08,2.08,0,0,0,3,.68l.25-.15c0,.34-.06.69-.06,1l-.05,0a23,23,0,0,0-8.27,7.51,2.85,2.85,0,0,0-.5,1.51h0c-.39-.45-.12-1.45.2-2a0,0,0,0,0,0-.07,0,0,0,0,0-.07,0h0a2.73,2.73,0,0,0-.53,1.44,1.6,1.6,0,0,0,0,.2l-.1-.1c-.39-.45-.12-1.45.2-2a.05.05,0,0,0,0-.07.05.05,0,0,0-.07,0h0a2.72,2.72,0,0,0-.54,1.44,1.31,1.31,0,0,0,0,.2l-.1-.1c-.39-.45-.12-1.45.2-2a.05.05,0,0,0,0-.07.05.05,0,0,0-.07,0h0a2.71,2.71,0,0,0-.53,1.44,1.61,1.61,0,0,0,0,.2l-.1-.1c-.39-.45-.12-1.44.2-2a.05.05,0,0,0,0-.07,0,0,0,0,0-.07,0h0a2.74,2.74,0,0,0-.54,1.44,1.27,1.27,0,0,0,0,.2l-.1-.1c-.39-.45-.12-1.44.2-2a.05.05,0,0,0-.09-.05h0a2.72,2.72,0,0,0-.53,1.44,1.43,1.43,0,0,0,0,.2l-.1-.1c-.39-.45-.12-1.45.2-2a.05.05,0,0,0,0-.07.05.05,0,0,0-.07,0h0a2.71,2.71,0,0,0-.53,1.44,1.39,1.39,0,0,0,0,.2l-.1-.1C509,50.28,509.29,49.29,509.6,48.74ZM507.26,62a2.18,2.18,0,0,1,.25-1.92.05.05,0,0,0-.08-.05h0a2.72,2.72,0,0,0-.54,1.44,1.74,1.74,0,0,0,0,.21l-.08-.09c-.42-.44-.14-1.46.18-2a.05.05,0,0,0,0-.07.05.05,0,0,0-.07,0h0a2.7,2.7,0,0,0-.54,1.44,1.42,1.42,0,0,0,0,.21l-.09-.09c-.42-.44-.14-1.46.19-2a.05.05,0,0,0,0-.07.05.05,0,0,0-.07,0h0a2.73,2.73,0,0,0-.53,1.44,1.28,1.28,0,0,0,0,.21l-.09-.09c-.41-.44-.14-1.46.19-2a0,0,0,0,0,0-.07,0,0,0,0,0-.07,0h0a2.72,2.72,0,0,0-.53,1.44,1.38,1.38,0,0,0,0,.21L505.3,60c-.41-.44-.13-1.46.19-2a.05.05,0,0,0-.09-.05h0a2.7,2.7,0,0,0-.54,1.44,1.64,1.64,0,0,0,0,.21l-.09-.09c-.41-.44-.13-1.45.19-2a.05.05,0,0,0-.09-.05h0a2.72,2.72,0,0,0-.54,1.44,1.49,1.49,0,0,0,0,.21l-.09-.09c-.41-.45-.13-1.45.19-2a.05.05,0,0,0-.09-.05h0a2.73,2.73,0,0,0-.53,1.44,1.48,1.48,0,0,0,0,.21l-.1-.1c-.4-.45-.13-1.45.19-2a.05.05,0,0,0,0-.07.05.05,0,0,0-.07,0h0a2.71,2.71,0,0,0-.54,1.44,1.27,1.27,0,0,0,0,.2c-.49-.5-.16-1.66.71-2.53a25,25,0,0,1,5.44-4.08l.36.36a19,19,0,0,0-2.06,1.27h0a.05.05,0,0,0,0,0,0,0,0,0,0,0,0,.05.05,0,0,0,.07,0s1-.61,2.16-1.21l.36.36a19.53,19.53,0,0,0-2.07,1.27.05.05,0,0,0,0,.07.05.05,0,0,0,.07,0s1-.61,2.17-1.2l.36.36a19.52,19.52,0,0,0-2.08,1.25h0a.05.05,0,0,0,0,0,0,0,0,0,0,0,0,.05.05,0,0,0,.07,0s1-.6,2.18-1.19l.36.36a19.73,19.73,0,0,0-2.09,1.25.06.06,0,0,0,0,.07.05.05,0,0,0,.07,0s1-.6,2.19-1.18l.36.36a19.46,19.46,0,0,0-2.09,1.24h0a0,0,0,0,0,0,0,.05.05,0,0,0,0,0,.05.05,0,0,0,.07,0s1-.6,2.2-1.17l.36.36a19.82,19.82,0,0,0-2.11,1.23h0a0,0,0,0,0,0,0v0a.05.05,0,0,0,.07,0s1-.59,2.21-1.16l.17.17h0a1.15,1.15,0,0,0,.22.17,19.62,19.62,0,0,0-2.15,1.23h0a.05.05,0,0,0,0,0,0,0,0,0,0,0,0,.05.05,0,0,0,.07,0S512,55.6,513.27,55a2,2,0,0,0,1.26-.07,22.85,22.85,0,0,0-3.16,1.7,0,0,0,0,0,0,.07.05.05,0,0,0,.07,0A36.75,36.75,0,0,1,515.09,55c0,.15,0,.3,0,.45a21.7,21.7,0,0,0-6.77,4.39A3.35,3.35,0,0,0,507.26,62Zm8.19,1.4c-1.73,1.73-4.52,5-4.87,8.57a6.79,6.79,0,0,1-.77-3.33,23.68,23.68,0,0,1,.43-3.93l.08-.45-.4.23c-2.07,1.16-2.9,1.84-3.44,2.64a10.6,10.6,0,0,1,1.46-3.85c.86.57,2,.29,3.21-.81a19.4,19.4,0,0,1,1.6-1.23,5.68,5.68,0,0,1-.42.44.05.05,0,0,0,0,.07.05.05,0,0,0,.07,0h0a5,5,0,0,0,.94-.9l.36-.24a3.23,3.23,0,0,1,.43-.23,5.27,5.27,0,0,1-1.31,1.8.05.05,0,0,0,.06.08h0a4.26,4.26,0,0,0,1.55-2,2.3,2.3,0,0,1,.37-.08,4.52,4.52,0,0,1-1.49,2.5.05.05,0,0,0,0,.07,0,0,0,0,0,.07,0h0a3.81,3.81,0,0,0,1.67-2.6l.25,0a3.84,3.84,0,0,1-1.48,3,.05.05,0,0,0,0,.07,0,0,0,0,0,.07,0h0A4.09,4.09,0,0,0,515.51,61c0,.3.06.6.1.9a5.34,5.34,0,0,1-1.27,1.72.05.05,0,0,0,0,.07,0,0,0,0,0,.07,0h0a4.69,4.69,0,0,0,1.25-1.36c0,.22.06.43.09.65Zm16.55,23c-4.68-1.22-8.42-4.43-11.1-9.41a18.17,18.17,0,0,0,7.89,8.74,19.32,19.32,0,0,1-8.55-8.86c-3-5.69-4.55-13.51-4.75-23.23a38.13,38.13,0,0,1,7.1-2.57l.58-.14a10.74,10.74,0,0,0,17.58.13,2.05,2.05,0,0,1,.36.48c1.13,1.91,2.14,7.42,2.14,14.7A50.17,50.17,0,0,1,541.87,79,16.9,16.9,0,0,1,532,86.34Zm8.59-3.65a1.59,1.59,0,0,1-.33,0l-.19,0,.5-.53v.08A1.35,1.35,0,0,1,540.59,82.69Zm-5.4,3a18.53,18.53,0,0,0,6.44-6,5,5,0,0,1-.78,1.51h0A17.28,17.28,0,0,1,535.2,85.68ZM541,82.52c0-.1,0-.21,0-.3a1.37,1.37,0,0,1,0-.52l.22-.26a2.51,2.51,0,0,0,.22.25,1.13,1.13,0,0,1,.22.29A2.44,2.44,0,0,1,541,82.52Zm.73-1.13c-.16-.17-.29-.32-.25-.4h0a6,6,0,0,0,.29-.58,2.54,2.54,0,0,0,.23.2c.18.15.3.26.29.34a5.61,5.61,0,0,1-.37.65Zm.22,1.13c0-.07,0-.14,0-.21h0a4.38,4.38,0,0,0,.44-.6,1.06,1.06,0,0,1,.21.28A2.43,2.43,0,0,1,542,82.52Zm.73-1.13-.08-.09c.12-.22.23-.45.34-.7h0c.17.15.31.26.29.34a5.91,5.91,0,0,1-.38.65Zm.22,1.13c0-.07,0-.14,0-.21a4.54,4.54,0,0,0,.44-.6,1,1,0,0,1,.21.28A2.4,2.4,0,0,1,543,82.52Zm.92-.91c-.06-.08-.13-.15-.18-.21l-.08-.09c.12-.22.23-.45.34-.7h0c.17.15.31.26.29.34A6.05,6.05,0,0,1,543.87,81.6Zm.6-1.12-.23-.21-.12-.11c.08-.22.16-.44.23-.67l0,0c.14.1.32.24.33.32S544.55,80.28,544.46,80.48Zm.41-1.12-.23-.19-.16-.12c.06-.22.12-.45.18-.68l0,0c.16.11.38.25.36.34S544.94,79.16,544.87,79.36Zm.32-1.15-.25-.19-.17-.12q.08-.34.15-.69l0,0c.17.1.39.24.38.33S545.24,78,545.19,78.21Zm.26-1.17-.26-.17-.18-.12c0-.23.08-.46.12-.69h0l0,0c.17.1.41.24.39.33h0C545.52,76.63,545.49,76.83,545.45,77Zm.21-1.16-.27-.17-.19-.11c0-.23.07-.46.1-.69h0l.05,0c.17.09.41.22.4.32h0Zm.17-1.17-.27-.16-.2-.12c0-.23.05-.46.08-.69l.05,0c.19.1.42.22.41.32h0Zm.14-1.17-.28-.16-.2-.11c0-.23,0-.46.06-.69l.06,0c.19.09.42.21.41.31h0C546,73.12,546,73.33,546,73.53Zm.11-1.17-.28-.15-.21-.11c0-.23,0-.47.05-.7l0,0c.26.12.43.21.43.33h0C546.1,72,546.09,72.16,546.07,72.36Zm.09-1.19-.3-.16-.2-.1c0-.24,0-.48,0-.71l0,0c.32.13.45.21.44.34h0Q546.18,70.88,546.16,71.18Zm.07-1.19-.32-.15-.19-.08,0-.66.07,0c.19.08.42.19.42.28h0C546.24,69.59,546.24,69.79,546.23,70Zm0-1.13-.27-.13-.23-.11c0-.24,0-.47,0-.7l.06,0c.25.11.44.19.44.3h0Q546.28,68.55,546.27,68.85Zm0-1.18-.29-.14-.22-.1c0-.25,0-.47,0-.69l.07,0c.21.08.44.17.44.29h0C546.31,67.27,546.31,67.47,546.3,67.67Zm0-1.17-.29-.13-.23-.1v-.1c0-.17,0-.37,0-.58l.08,0c.2.07.44.17.44.27h0v.28C546.32,66.28,546.32,66.39,546.32,66.5Zm.4,2.23c0-1,0-1.92,0-2.56,0-2.79-.16-10-1.71-14.06q1.76.64,3.47,1.46A69.23,69.23,0,0,1,546.71,68.73Zm10.81-1.66c-.54-.8-1.36-1.48-3.44-2.64l-.4-.23.08.45a23.39,23.39,0,0,1,.43,3.93,6.79,6.79,0,0,1-.77,3.33c-.36-3.52-3.14-6.84-4.87-8.57l-.3-.35.08-.65a4.66,4.66,0,0,0,1.25,1.35h0a0,0,0,0,0,.07,0,.05.05,0,0,0,0-.07,5.34,5.34,0,0,1-1.27-1.72c0-.3.07-.6.1-.9a4.11,4.11,0,0,0,1.6,2.18h0a.05.05,0,0,0,.07,0,.05.05,0,0,0,0-.07,3.82,3.82,0,0,1-1.48-3l.24,0a3.83,3.83,0,0,0,1.67,2.6h0a.05.05,0,0,0,.07,0,.05.05,0,0,0,0-.07,4.53,4.53,0,0,1-1.49-2.5,2.41,2.41,0,0,1,.37.08,4.25,4.25,0,0,0,1.55,2h0a.05.05,0,0,0,.07,0,.05.05,0,0,0,0-.07,5.19,5.19,0,0,1-1.3-1.8,3.27,3.27,0,0,1,.43.23l.37.24a5,5,0,0,0,.94.9h0a0,0,0,0,0,.07,0,.05.05,0,0,0,0-.07,6.09,6.09,0,0,1-.43-.44,19.67,19.67,0,0,1,1.6,1.23c1.2,1.09,2.35,1.37,3.21.81A10.61,10.61,0,0,1,557.53,67.08Zm3.1-9h0a1.3,1.3,0,0,0,0-.23,2.68,2.68,0,0,0-.53-1.42h0a0,0,0,0,0-.07,0,.05.05,0,0,0,0,.07c.32.55.59,1.56.19,2l-.1.11a1.69,1.69,0,0,0,0-.23,2.67,2.67,0,0,0-.53-1.42h0a.05.05,0,0,0-.09.05c.32.55.6,1.56.19,2l-.1.1a1.53,1.53,0,0,0,0-.23,2.67,2.67,0,0,0-.53-1.43h0a.05.05,0,0,0-.07,0,.05.05,0,0,0,0,.07c.32.55.6,1.56.19,2l-.1.1a1.44,1.44,0,0,0,0-.23,2.68,2.68,0,0,0-.53-1.42h0a.05.05,0,0,0-.09.05c.32.55.6,1.57.19,2l-.1.1a1.36,1.36,0,0,0,0-.23,2.67,2.67,0,0,0-.53-1.42h0a.05.05,0,0,0-.07,0,.05.05,0,0,0,0,.07c.33.56.6,1.57.18,2l-.1.1a1.77,1.77,0,0,0,0-.23,2.67,2.67,0,0,0-.53-1.43h0a.05.05,0,0,0-.07,0,.05.05,0,0,0,0,.07c.32.56.6,1.57.18,2l-.1.1a1.35,1.35,0,0,0,0-.23,2.68,2.68,0,0,0-.53-1.43h0a.05.05,0,0,0-.09.05c.32.56.6,1.58.18,2l-.1.1a1.4,1.4,0,0,0,0-.24,2.69,2.69,0,0,0-.53-1.42h0a.05.05,0,0,0-.07,0,0,0,0,0,0,0,.07,2.18,2.18,0,0,1,.25,1.92,3.38,3.38,0,0,0-1.08-2.15,21.66,21.66,0,0,0-6.77-4.38c0-.15,0-.3,0-.45a37.11,37.11,0,0,1,3.67,1.77.05.05,0,0,0,.07,0,0,0,0,0,0,0-.07,22.76,22.76,0,0,0-3.16-1.7,2,2,0,0,0,1.27.07c1.22.58,2.34,1.21,2.35,1.21a0,0,0,0,0,.07,0v0a0,0,0,0,0,0,0h0A19.6,19.6,0,0,0,551,54.91a1.17,1.17,0,0,0,.22-.17h0l.17-.17c1.17.57,2.2,1.15,2.21,1.16a.05.05,0,0,0,.07,0,0,0,0,0,0,0,0,.05.05,0,0,0,0,0h0a19.31,19.31,0,0,0-2.1-1.23l.36-.36c1.16.57,2.19,1.16,2.2,1.17a.05.05,0,0,0,.07,0v0a.05.05,0,0,0,0,0h0a19.26,19.26,0,0,0-2.09-1.24l.36-.36c1.15.58,2.18,1.17,2.19,1.18a.05.05,0,0,0,.07,0,.05.05,0,0,0,0-.07,19.64,19.64,0,0,0-2.09-1.25l.36-.36c1.15.58,2.17,1.18,2.18,1.19a0,0,0,0,0,.07,0v0a.05.05,0,0,0,0,0h0a19.39,19.39,0,0,0-2.07-1.25l.36-.36c1.15.59,2.16,1.19,2.17,1.2a.05.05,0,0,0,.07,0,0,0,0,0,0,0-.07,19.24,19.24,0,0,0-2.07-1.27L554,52c1.14.59,2.15,1.2,2.16,1.21a0,0,0,0,0,.07,0,0,0,0,0,0,0,0,.05.05,0,0,0,0,0h0a19.16,19.16,0,0,0-2.06-1.27l.36-.36a25,25,0,0,1,5.44,4.08C560.8,56.45,561.12,57.61,560.63,58.11Zm-26.32-26.5h0a6.11,6.11,0,0,1,.76-.89,3.64,3.64,0,0,0,1-1.38,3.52,3.52,0,0,0,.23-1.08,7.91,7.91,0,0,1-1.55,2,1.48,1.48,0,0,0-.56,1s0,0,0,0A.44.44,0,0,0,534.31,31.61Z" transform="translate(-407.72 -19.73)"/><path class="cls-1" d="M514.22,47.22c-1.1-1-2,.77-2.52.33-.26-.23,0-.59.19-.79a2.2,2.2,0,0,1,.73-.55l-.58-.6a3.41,3.41,0,0,0-.8.69c-.53.61-1,1.5-.23,2.14,1.11,1,2-.78,2.58-.29.24.21.08.5-.14.76a2.36,2.36,0,0,1-.93.66l.61.66a4.27,4.27,0,0,0,.92-.79C514.64,48.76,515,47.91,514.22,47.22Z" transform="translate(-407.72 -19.73)"/><path class="cls-1" d="M515.89,46.24l1.18-1,.78.48.92-.75L515,42.87l-1,.83,1.36,4.11.85-.69ZM515,43.94h0l1.37.92-.79.64Z" transform="translate(-407.72 -19.73)"/><path class="cls-1" d="M548.69,42.62,545,44.84l.86.68.78-.48,1.19.94-.3.86.93.73,1.29-4.14Zm-.61,2.6-.79-.63,1.39-.92h0Z" transform="translate(-407.72 -19.73)"/></svg>