<svg id="Ebene_1" data-name="Ebene 1" xmlns="http://www.w3.org/2000/svg" viewBox="0 0 172.73 72.13"><defs><style>.cls-1{fill:#1a1a18;}.cls-2{fill:#cfd0d0;}.cls-3{fill:#fff;}.cls-4{fill:#e3000f;}</style></defs><title>sac_logo_cmyk_d</title><path class="cls-1" d="M390.59,45.15a3,3,0,0,0,1.39.33c.43,0,.84-.09.84-.49,0-.94-2.4-.35-2.4-2.19,0-1.22,1.19-1.55,2.21-1.55a4.3,4.3,0,0,1,1.31.19l-.09,1a2.72,2.72,0,0,0-1.13-.23c-.34,0-.91,0-.91.47,0,.82,2.4.27,2.4,2.1,0,1.32-1.1,1.67-2.23,1.67a5.29,5.29,0,0,1-1.51-.22Z" transform="translate(-390.43 -19.76)"/><path class="cls-1" d="M398.1,43.7a1.43,1.43,0,0,0-.79-.21,1,1,0,0,0-1,1,1,1,0,0,0,1.08,1,1.78,1.78,0,0,0,.81-.18l0,1a3.53,3.53,0,0,1-1.07.17,2,2,0,1,1,0-4,2.34,2.34,0,0,1,1,.21Z" transform="translate(-390.43 -19.76)"/><path class="cls-1" d="M399,41h1.31v2.22h0a1.49,1.49,0,0,1,1.26-.65A1.37,1.37,0,0,1,403,44V46.4h-1.31V44.57c0-.71-.25-1-.6-1-.54,0-.81.37-.81,1.18v1.6H399Z" transform="translate(-390.43 -19.76)"/><path class="cls-1" d="M403.65,42.62H405l.61,2.72h0l.65-2.72h1.57l.64,2.72h0l.6-2.72h1.26l-1.15,3.78H407.7l-.64-2.74h0l-.72,2.74h-1.52Z" transform="translate(-390.43 -19.76)"/><path class="cls-1" d="M412.17,44.89c.07.52.47.73,1.11.73a2.45,2.45,0,0,0,1.15-.29v.92a3.77,3.77,0,0,1-1.39.24,2,2,0,0,1-2.2-2,1.88,1.88,0,0,1,2-2c1.4,0,1.91,1,1.91,2.12v.24Zm1.44-.74a.69.69,0,0,0-.73-.79c-.47,0-.7.36-.73.79Z" transform="translate(-390.43 -19.76)"/><path class="cls-1" d="M417.12,42h-1.31V41h1.31Zm-1.31.62h1.31V46.4h-1.31Z" transform="translate(-390.43 -19.76)"/><path class="cls-1" d="M418,45.36l1.73-1.78h-1.69v-1h3.19v1l-1.73,1.78h1.76v1H418Z" transform="translate(-390.43 -19.76)"/><path class="cls-1" d="M423.23,44.89c.07.52.47.73,1.11.73a2.45,2.45,0,0,0,1.16-.29v.92a3.77,3.77,0,0,1-1.39.24,2,2,0,0,1-2.2-2,1.88,1.88,0,0,1,2-2c1.4,0,1.91,1,1.91,2.12v.24Zm1.44-.74c0-.44-.2-.79-.73-.79s-.7.36-.73.79Z" transform="translate(-390.43 -19.76)"/><path class="cls-1" d="M429.41,43.66a1.5,1.5,0,0,0-.44,0c-.61,0-1,.44-1,1.18v1.6h-1.31V42.62h1.19v.7h0a1.17,1.17,0,0,1,1.12-.78,2.76,2.76,0,0,1,.44,0Z" transform="translate(-390.43 -19.76)"/><path class="cls-1" d="M434.1,41.33h1.66l2,5.07h-1.48l-.38-1.08h-1.9l-.4,1.08h-1.37Zm.83,1h0l-.65,2h1.27Z" transform="translate(-390.43 -19.76)"/><path class="cls-1" d="M438.52,41h1.31V46.4h-1.31Z" transform="translate(-390.43 -19.76)"/><path class="cls-1" d="M440.95,42.62h1.21v.68h0a1.49,1.49,0,0,1,1.41-.77,1.77,1.77,0,0,1,1.62,1.91c0,1.12-.6,2-1.73,2a1.31,1.31,0,0,1-1.2-.62h0v2.06h-1.31Zm2.11.92c-.48,0-.8.42-.8,1a.89.89,0,0,0,.8,1c.49,0,.79-.41.79-1A.84.84,0,0,0,443.05,43.53Z" transform="translate(-390.43 -19.76)"/><path class="cls-1" d="M447.15,44.89c.07.52.47.73,1.11.73a2.46,2.46,0,0,0,1.16-.29v.92a3.78,3.78,0,0,1-1.39.24,2,2,0,0,1-2.2-2,1.88,1.88,0,0,1,2-2c1.4,0,1.91,1,1.91,2.12v.24Zm1.44-.74a.69.69,0,0,0-.73-.79c-.47,0-.7.36-.73.79Z" transform="translate(-390.43 -19.76)"/><path class="cls-1" d="M450.64,42.62h1.19v.7h0a1.43,1.43,0,0,1,1.38-.78A1.37,1.37,0,0,1,454.67,44V46.4h-1.31V44.57c0-.71-.25-1-.6-1-.54,0-.81.37-.81,1.18v1.6h-1.31Z" transform="translate(-390.43 -19.76)"/><path class="cls-1" d="M455.49,44h2v1h-2Z" transform="translate(-390.43 -19.76)"/><path class="cls-1" d="M462.57,46.29a5.63,5.63,0,0,1-1.5.2,2.61,2.61,0,0,1-2.91-2.6c0-1.76,1.23-2.64,2.91-2.64a5.26,5.26,0,0,1,1.5.26l-.11,1.1a2.66,2.66,0,0,0-1.32-.36,1.62,1.62,0,1,0,.11,3.24,3.56,3.56,0,0,0,1.26-.26Z" transform="translate(-390.43 -19.76)"/><path class="cls-1" d="M463.46,41h1.31V46.4h-1.31Z" transform="translate(-390.43 -19.76)"/><path class="cls-1" d="M469.95,46.4h-1.19v-.7h0a1.44,1.44,0,0,1-1.38.78A1.37,1.37,0,0,1,465.92,45V42.62h1.31v1.83c0,.71.25,1,.6,1,.54,0,.81-.37.81-1.18v-1.6h1.31Z" transform="translate(-390.43 -19.76)"/><path class="cls-1" d="M470.92,41h1.31V43.1h0a1.54,1.54,0,0,1,1.3-.57,1.77,1.77,0,0,1,1.62,1.91c0,1.12-.6,2-1.73,2a1.4,1.4,0,0,1-1.3-.76h0v.68h-1.21ZM473,43.53c-.48,0-.8.42-.8,1a.89.89,0,0,0,.8,1c.49,0,.79-.41.79-1A.84.84,0,0,0,473,43.53Z" transform="translate(-390.43 -19.76)"/><path class="cls-1" d="M478.47,45.15a3,3,0,0,0,1.39.33c.43,0,.84-.09.84-.49,0-.94-2.4-.35-2.4-2.19,0-1.22,1.19-1.55,2.21-1.55a4.29,4.29,0,0,1,1.31.19l-.09,1a2.72,2.72,0,0,0-1.13-.23c-.34,0-.91,0-.91.47,0,.82,2.4.27,2.4,2.1,0,1.32-1.1,1.67-2.23,1.67a5.28,5.28,0,0,1-1.51-.22Z" transform="translate(-390.43 -19.76)"/><path class="cls-1" d="M484.59,41.33h1.66l2,5.07h-1.48l-.38-1.08h-1.9L484,46.4h-1.37Zm.83,1h0l-.65,2H486Z" transform="translate(-390.43 -19.76)"/><path class="cls-1" d="M493.15,46.29a5.64,5.64,0,0,1-1.5.2,2.61,2.61,0,0,1-2.91-2.6c0-1.76,1.23-2.64,2.91-2.64a5.25,5.25,0,0,1,1.5.26L493,42.6a2.66,2.66,0,0,0-1.32-.36,1.62,1.62,0,1,0,.11,3.24,3.57,3.57,0,0,0,1.26-.26Z" transform="translate(-390.43 -19.76)"/><path class="cls-1" d="M437.17,51.25a2,2,0,0,0-1-.28,2,2,0,0,0,0,4,2.49,2.49,0,0,0,1.1-.25l0,.71a3.18,3.18,0,0,1-1.16.18,2.5,2.5,0,0,1-2.67-2.64,2.53,2.53,0,0,1,2.68-2.6,2.8,2.8,0,0,1,1.14.22Z" transform="translate(-390.43 -19.76)"/><path class="cls-1" d="M438.31,50H439v5.45h-.68Z" transform="translate(-390.43 -19.76)"/><path class="cls-1" d="M443.71,55.49H443V54.9h0a1.33,1.33,0,0,1-1.21.68c-1,0-1.39-.6-1.39-1.59v-2.2h.68V53.7c0,.86.19,1.29.79,1.32.78,0,1.13-.62,1.13-1.52V51.78h.68Z" transform="translate(-390.43 -19.76)"/><path class="cls-1" d="M445.05,50h.68v2.25h0a1.32,1.32,0,0,1,1.23-.6,1.66,1.66,0,0,1,1.6,1.87c0,1-.47,2-1.59,2a1.49,1.49,0,0,1-1.26-.61h0v.52h-.65Zm1.78,2.21c-.74,0-1.1.7-1.1,1.39s.32,1.38,1.09,1.38,1-.82,1-1.4S447.57,52.25,446.83,52.25Z" transform="translate(-390.43 -19.76)"/><path class="cls-1" d="M453.55,50.42h.76l2.14,5.07h-.79l-.52-1.28h-2.48l-.52,1.28h-.76Zm.36.68-1,2.51h2Z" transform="translate(-390.43 -19.76)"/><path class="cls-1" d="M457.4,50h.68v5.45h-.68Z" transform="translate(-390.43 -19.76)"/><path class="cls-1" d="M459.52,51.78h.66v.52h0a1.48,1.48,0,0,1,1.26-.61c1.08,0,1.6.88,1.6,1.87s-.47,2-1.59,2a1.33,1.33,0,0,1-1.24-.6h0v2h-.68Zm1.78.46c-.74,0-1.1.7-1.1,1.39s.32,1.38,1.09,1.38,1-.82,1-1.4S462,52.25,461.3,52.25Z" transform="translate(-390.43 -19.76)"/><path class="cls-1" d="M465,51h-.77v-.77H465Zm-.73.83h.68v3.7h-.68Z" transform="translate(-390.43 -19.76)"/><path class="cls-1" d="M466.34,51.78H467v.59h0a1.33,1.33,0,0,1,1.21-.68c1,0,1.39.6,1.39,1.59v2.2h-.68V53.57c0-.86-.19-1.29-.79-1.32-.78,0-1.13.63-1.13,1.53v1.71h-.68Z" transform="translate(-390.43 -19.76)"/><path class="cls-1" d="M475.54,51.18a2.24,2.24,0,0,0-1-.21c-.41,0-.89.15-.89.68,0,1,2.18.75,2.18,2.42,0,1.08-.84,1.51-1.85,1.51a3.4,3.4,0,0,1-1-.21l.07-.68a3.06,3.06,0,0,0,1.05.25.91.91,0,0,0,1-.83c0-1.13-2.18-.82-2.18-2.4,0-.9.71-1.38,1.63-1.38a3.38,3.38,0,0,1,1.08.18Z" transform="translate(-390.43 -19.76)"/><path class="cls-1" d="M480.26,55.49h-.66V54.9h0a1.33,1.33,0,0,1-1.21.68c-1,0-1.39-.6-1.39-1.59v-2.2h.68V53.7c0,.86.19,1.29.78,1.32.78,0,1.13-.62,1.13-1.52V51.78h.68Z" transform="translate(-390.43 -19.76)"/><path class="cls-1" d="M482.43,51h-.77v-.77h.77Zm-.73.83h.68v3.7h-.68Z" transform="translate(-390.43 -19.76)"/><path class="cls-1" d="M483.54,54.76a1.84,1.84,0,0,0,.85.26c.31,0,.7-.13.7-.53,0-.68-1.61-.62-1.61-1.66,0-.77.57-1.14,1.31-1.14a2.84,2.84,0,0,1,.85.15l-.06.6a2,2,0,0,0-.72-.19c-.35,0-.65.15-.65.45,0,.76,1.61.54,1.61,1.72a1.17,1.17,0,0,1-1.29,1.16,2.12,2.12,0,0,1-1-.2Z" transform="translate(-390.43 -19.76)"/><path class="cls-1" d="M486.55,54.76a1.83,1.83,0,0,0,.85.26c.31,0,.7-.13.7-.53,0-.68-1.61-.62-1.61-1.66,0-.77.57-1.14,1.31-1.14a2.85,2.85,0,0,1,.85.15l-.06.6a2,2,0,0,0-.72-.19c-.35,0-.65.15-.65.45,0,.76,1.61.54,1.61,1.72a1.17,1.17,0,0,1-1.29,1.16,2.12,2.12,0,0,1-1-.2Z" transform="translate(-390.43 -19.76)"/><path class="cls-1" d="M492.68,55.34a2.82,2.82,0,0,1-1.17.24,1.77,1.77,0,0,1-1.92-2,1.72,1.72,0,0,1,1.74-1.87c1.24,0,1.63.9,1.63,2.09h-2.64A1.21,1.21,0,0,0,491.54,55a2.19,2.19,0,0,0,1.14-.37Zm-.44-2.06a.94.94,0,0,0-.92-1,1,1,0,0,0-1,1Z" transform="translate(-390.43 -19.76)"/><path class="cls-1" d="M424.1,60.34a2,2,0,0,0-1-.28,2,2,0,0,0,0,4,2.51,2.51,0,0,0,1.11-.25l0,.7a3.18,3.18,0,0,1-1.16.18A2.5,2.5,0,0,1,420.34,62a2.53,2.53,0,0,1,2.68-2.6,2.79,2.79,0,0,1,1.14.22Z" transform="translate(-390.43 -19.76)"/><path class="cls-1" d="M425.25,59.13h.68v5.45h-.68Z" transform="translate(-390.43 -19.76)"/><path class="cls-1" d="M430.64,64.57H430V64h0a1.34,1.34,0,0,1-1.21.68c-1,0-1.39-.6-1.39-1.59v-2.2H428v1.92c0,.86.19,1.29.79,1.32.78,0,1.13-.62,1.13-1.53V60.87h.68Z" transform="translate(-390.43 -19.76)"/><path class="cls-1" d="M432,59.13h.68v2.25h0a1.32,1.32,0,0,1,1.23-.6,1.66,1.66,0,0,1,1.6,1.87c0,1-.47,2-1.59,2a1.49,1.49,0,0,1-1.26-.61h0v.52H432Zm1.78,2.21c-.74,0-1.1.7-1.1,1.39s.32,1.38,1.09,1.38,1-.82,1-1.4S434.51,61.33,433.77,61.33Z" transform="translate(-390.43 -19.76)"/><path class="cls-1" d="M440.49,59.5h.76l2.14,5.07h-.79l-.52-1.28H439.6l-.51,1.28h-.76Zm.36.68-1,2.51h2Z" transform="translate(-390.43 -19.76)"/><path class="cls-1" d="M444.33,59.13H445v5.45h-.68Z" transform="translate(-390.43 -19.76)"/><path class="cls-1" d="M446.45,60.87h.65v.52h0a1.48,1.48,0,0,1,1.26-.61,1.66,1.66,0,0,1,1.6,1.87c0,1-.47,2-1.59,2a1.33,1.33,0,0,1-1.24-.6h0v2h-.68Zm1.78.47c-.74,0-1.1.7-1.1,1.39s.32,1.38,1.09,1.38,1-.82,1-1.4S449,61.33,448.23,61.33Z" transform="translate(-390.43 -19.76)"/><path class="cls-1" d="M451.89,60h-.77v-.77h.77Zm-.73.83h.68v3.71h-.68Z" transform="translate(-390.43 -19.76)"/><path class="cls-1" d="M453.28,60.87h.66v.59h0a1.33,1.33,0,0,1,1.21-.68c1,0,1.39.6,1.39,1.59v2.2h-.68V62.66c0-.86-.19-1.29-.79-1.32-.78,0-1.13.62-1.13,1.52v1.71h-.68Z" transform="translate(-390.43 -19.76)"/><path class="cls-1" d="M459.55,60.78a1.83,1.83,0,0,1,1.88,1.94,1.89,1.89,0,1,1-3.77,0A1.83,1.83,0,0,1,459.55,60.78Zm0,3.33a1.24,1.24,0,0,0,1.15-1.39,1.18,1.18,0,1,0-2.32,0A1.24,1.24,0,0,0,459.55,64.11Z" transform="translate(-390.43 -19.76)"/><path class="cls-1" d="M467.1,60.27a2.23,2.23,0,0,0-1-.21c-.41,0-.89.15-.89.68,0,1,2.18.75,2.18,2.42,0,1.08-.84,1.51-1.85,1.51a3.4,3.4,0,0,1-1-.21l.07-.68a3.07,3.07,0,0,0,1.05.25.91.91,0,0,0,1-.83c0-1.13-2.18-.82-2.18-2.4,0-.9.71-1.38,1.63-1.38a3.4,3.4,0,0,1,1.08.18Z" transform="translate(-390.43 -19.76)"/><path class="cls-1" d="M470.19,64.57h-.81L468,60.87h.75l1,3h0l1-3h.68Z" transform="translate(-390.43 -19.76)"/><path class="cls-1" d="M473.18,60h-.77v-.77h.77Zm-.73.83h.68v3.71h-.68Z" transform="translate(-390.43 -19.76)"/><path class="cls-1" d="M474.3,64l2.14-2.56h-2v-.55h2.83v.6L475.09,64h2.21v.55h-3Z" transform="translate(-390.43 -19.76)"/><path class="cls-1" d="M478.12,64l2.13-2.56h-2v-.55H481v.6L478.91,64h2.22v.55h-3Z" transform="translate(-390.43 -19.76)"/><path class="cls-1" d="M485,64.42a2.84,2.84,0,0,1-1.17.24,1.77,1.77,0,0,1-1.92-2,1.72,1.72,0,0,1,1.73-1.87c1.24,0,1.63.9,1.63,2.09h-2.64a1.21,1.21,0,0,0,1.22,1.23,2.19,2.19,0,0,0,1.14-.37Zm-.44-2.06a.93.93,0,0,0-.92-1,1,1,0,0,0-1,1Z" transform="translate(-390.43 -19.76)"/><path class="cls-1" d="M486.43,60.87h.64v.57h0a1.13,1.13,0,0,1,1-.66,1.93,1.93,0,0,1,.45.05v.61a1,1,0,0,0-.38-.07c-.61,0-1,.58-1,1.51v1.69h-.68Z" transform="translate(-390.43 -19.76)"/><path class="cls-1" d="M491.08,60.78A1.83,1.83,0,0,1,493,62.72a1.89,1.89,0,1,1-3.77,0A1.83,1.83,0,0,1,491.08,60.78Zm0,3.33a1.24,1.24,0,0,0,1.16-1.39,1.18,1.18,0,1,0-2.32,0A1.24,1.24,0,0,0,491.08,64.11Z" transform="translate(-390.43 -19.76)"/><path class="cls-1" d="M433.35,69.42a2,2,0,0,0-1-.28,2,2,0,0,0,0,4,2.5,2.5,0,0,0,1.1-.25l0,.7a3.18,3.18,0,0,1-1.16.18,2.5,2.5,0,0,1-2.67-2.64,2.53,2.53,0,0,1,2.68-2.6,2.79,2.79,0,0,1,1.14.22Z" transform="translate(-390.43 -19.76)"/><path class="cls-1" d="M434.5,68.21h.68v5.45h-.68Z" transform="translate(-390.43 -19.76)"/><path class="cls-1" d="M439.89,73.66h-.66v-.59h0a1.33,1.33,0,0,1-1.21.68c-1,0-1.39-.6-1.39-1.59V70h.68v1.92c0,.86.19,1.29.78,1.32.78,0,1.13-.63,1.13-1.53V70h.68Z" transform="translate(-390.43 -19.76)"/><path class="cls-1" d="M441.24,68.21h.68v2.25h0a1.32,1.32,0,0,1,1.23-.6,1.66,1.66,0,0,1,1.6,1.87c0,1-.47,2-1.59,2a1.49,1.49,0,0,1-1.26-.61h0v.52h-.65ZM443,70.42c-.74,0-1.1.7-1.1,1.4s.32,1.38,1.09,1.38,1-.82,1-1.4S443.76,70.42,443,70.42Z" transform="translate(-390.43 -19.76)"/><path class="cls-1" d="M449.73,68.59h.76l2.14,5.07h-.79l-.52-1.28h-2.48l-.52,1.28h-.76Zm.36.68-1,2.51h2Z" transform="translate(-390.43 -19.76)"/><path class="cls-1" d="M453.58,68.21h.68v5.45h-.68Z" transform="translate(-390.43 -19.76)"/><path class="cls-1" d="M455.7,70h.65v.52h0a1.48,1.48,0,0,1,1.26-.61,1.66,1.66,0,0,1,1.6,1.87c0,1-.47,2-1.59,2a1.33,1.33,0,0,1-1.24-.6h0v2h-.68Zm1.78.46c-.74,0-1.1.7-1.1,1.4s.32,1.38,1.09,1.38,1-.82,1-1.4S458.22,70.42,457.48,70.42Z" transform="translate(-390.43 -19.76)"/><path class="cls-1" d="M461.14,69.13h-.77v-.77h.77Zm-.73.83h.68v3.7h-.68Z" transform="translate(-390.43 -19.76)"/><path class="cls-1" d="M462.53,70h.66v.59h0a1.33,1.33,0,0,1,1.21-.68c1,0,1.39.6,1.39,1.59v2.2h-.68V71.74c0-.86-.19-1.29-.78-1.32-.78,0-1.13.63-1.13,1.52v1.72h-.68Z" transform="translate(-390.43 -19.76)"/><path class="cls-1" d="M471.72,69.35a2.23,2.23,0,0,0-1-.21c-.41,0-.89.14-.89.68,0,1,2.18.75,2.18,2.42,0,1.08-.83,1.51-1.85,1.51a3.4,3.4,0,0,1-1-.21l.07-.68a3.08,3.08,0,0,0,1.05.25.91.91,0,0,0,1-.83c0-1.13-2.18-.82-2.18-2.4,0-.9.71-1.38,1.63-1.38a3.37,3.37,0,0,1,1.08.18Z" transform="translate(-390.43 -19.76)"/><path class="cls-1" d="M474.81,73.66H474L472.67,70h.75l1,3h0l1-3h.68Z" transform="translate(-390.43 -19.76)"/><path class="cls-1" d="M477.8,69.13H477v-.77h.77Zm-.73.83h.68v3.7h-.68Z" transform="translate(-390.43 -19.76)"/><path class="cls-1" d="M478.92,73.06l2.14-2.56h-2V70h2.83v.6l-2.13,2.56h2.21v.55h-3Z" transform="translate(-390.43 -19.76)"/><path class="cls-1" d="M482.74,73.06l2.14-2.56h-2V70h2.83v.6l-2.14,2.56h2.22v.55h-3Z" transform="translate(-390.43 -19.76)"/><path class="cls-1" d="M489.67,73.51a2.84,2.84,0,0,1-1.17.24,1.77,1.77,0,0,1-1.92-2,1.72,1.72,0,0,1,1.74-1.87c1.24,0,1.63.9,1.63,2.09h-2.64a1.21,1.21,0,0,0,1.22,1.23,2.19,2.19,0,0,0,1.14-.37Zm-.44-2.06a.93.93,0,0,0-.92-1,1,1,0,0,0-1,1Z" transform="translate(-390.43 -19.76)"/><path class="cls-1" d="M491.05,70h.64v.57h0a1.13,1.13,0,0,1,1-.66,1.94,1.94,0,0,1,.45.05v.61a1,1,0,0,0-.38-.06c-.61,0-1,.58-1,1.51v1.69h-.68Z" transform="translate(-390.43 -19.76)"/><path class="cls-2" d="M563.16,58.35a4.32,4.32,0,0,0-1.39-3,25.4,25.4,0,0,0-4.48-3.54l.12-.12a2.37,2.37,0,0,0,.67-1.71,4,4,0,0,0-.84-2.34,30.26,30.26,0,0,0-4.61-4.91l2-3a1,1,0,0,0,.09-1l1.7-3.24a1.06,1.06,0,0,0-1.75-1.18l-2.39,2.79a1.07,1.07,0,0,0-.9.47l-1.9,2.82a30.46,30.46,0,0,0-9.53-4.16,11.79,11.79,0,0,0-2.75-1.55c-.11-.36-.22-.7-.34-1a3.84,3.84,0,0,1,.51-.6A5.62,5.62,0,0,0,539.17,29a3.53,3.53,0,0,0-1.25-2.88l-.2-.15a1.06,1.06,0,0,0-1.58.34l-.12.23a8.17,8.17,0,0,1-2.45,2.95l-.36-.17-.32-.15c-.05-.58-.09-1.16-.09-1.7a8.37,8.37,0,0,1,.56-3.51c.21-.38.39-.47.43-.48s.2.1.38.46l0,.07a1.27,1.27,0,0,0,2.37-.65,1.19,1.19,0,0,0-.05-.36l0-.07a3.53,3.53,0,0,0-1.75-2,2.9,2.9,0,0,0-2.37.07,3.18,3.18,0,0,0-1,.65,2.61,2.61,0,0,0-1.72-.76,2,2,0,0,0-1.7,1,4.05,4.05,0,0,0-.52,2.35A15.7,15.7,0,0,0,527.6,26a1.06,1.06,0,0,0-.82.32,3.11,3.11,0,0,0-.82,2.19,3.62,3.62,0,0,0,0,.42,4.08,4.08,0,0,0,.82,2,3,3,0,0,0-.88,1.44l-3.62,2.15a2.66,2.66,0,0,0-1.23,2.11l0,.4a3.92,3.92,0,0,0,.07.72,30.62,30.62,0,0,0-5,2.64,17.77,17.77,0,0,1-2-4.24,1.06,1.06,0,0,0-.84-.73,3.48,3.48,0,0,0-4,2.67,1.15,1.15,0,0,0,0,.24,1.06,1.06,0,0,0,.38.82A17.82,17.82,0,0,1,513,42.78a30.22,30.22,0,0,0-4.59,4.9,4,4,0,0,0-.85,2.35,2.37,2.37,0,0,0,.66,1.71l.12.12a25.47,25.47,0,0,0-4.48,3.55,4.32,4.32,0,0,0-1.38,2.94,2.37,2.37,0,0,0,.68,1.71l4,4a10.83,10.83,0,0,0-1.4,4.84h0a1.3,1.3,0,0,0,2.51.5l0,.05a3.23,3.23,0,0,1,1-1.32c0,.51-.07,1-.07,1.4A8.22,8.22,0,0,0,510.34,74a1.28,1.28,0,0,0,1.17.74,1.31,1.31,0,0,0,1.31-1.3c0-2.43,1.63-4.88,3.13-6.66a41.5,41.5,0,0,0,3.76,11.59,26.73,26.73,0,0,0,2,3.21l-.6.9a1,1,0,0,0-.16.42.44.44,0,0,1-.24.08c-.53,0-1.61-.69-3.06-2.67a12.21,12.21,0,0,1-1.83-5.49,1.06,1.06,0,0,0-2.11-.1c-.57,3.5,1,9.09,4.76,12.41a16.33,16.33,0,0,0,9.18,4.26,1.06,1.06,0,0,0,1.17-1.06.79.79,0,0,0,0-.11l-.08-.82a1.06,1.06,0,0,0-.82-.93,10.33,10.33,0,0,1-3.59-1.63c-.5-.42-.77-.64-.77-1a1.84,1.84,0,0,1,.36-.87,1,1,0,0,0,.44-.36,18,18,0,0,0,8.15,4.5h.05a1.05,1.05,0,0,0,.51,0h.05a17.94,17.94,0,0,0,7.7-4.11c.08,0,.17,0,.25,0l.45-.06,2.17,3.2a1.07,1.07,0,0,0,.9.46L547,91.52a1.06,1.06,0,0,0,1.87-.69,1,1,0,0,0-.12-.49L547,87.09a1,1,0,0,0-.09-1l-1.45-2.14c1-1.15,2.51-4,3-12.08a50.61,50.61,0,0,0,1.19-5c1.5,1.78,3.12,4.25,3.13,6.7a1.09,1.09,0,0,0,0,.17,1.31,1.31,0,0,0,2.42.44,8.2,8.2,0,0,0,1.27-4.6c0-.42,0-.89-.07-1.4a3.22,3.22,0,0,1,1,1.32,1.31,1.31,0,0,0,2.5-.56,10.91,10.91,0,0,0-1.4-4.84l4-4A2.36,2.36,0,0,0,563.16,58.35Z" transform="translate(-390.43 -19.76)"/><path class="cls-3" d="M562.28,57.47a4.32,4.32,0,0,0-1.39-3A25.41,25.41,0,0,0,556.42,51l.12-.12a2.37,2.37,0,0,0,.67-1.71,4,4,0,0,0-.84-2.34,30.26,30.26,0,0,0-4.62-4.91l2-3a1.06,1.06,0,0,0,.18-.59,1,1,0,0,0-.1-.43l1.7-3.24a1.06,1.06,0,0,0-.35-1.37,1.06,1.06,0,0,0-1.4.19l-2.39,2.79a1.06,1.06,0,0,0-.9.47l-1.9,2.81a30.47,30.47,0,0,0-9.53-4.16,11.75,11.75,0,0,0-2.75-1.55c-.11-.36-.22-.7-.34-1a3.81,3.81,0,0,1,.5-.61,5.63,5.63,0,0,0,1.83-4.11A3.53,3.53,0,0,0,537,25.21l-.2-.15a1.06,1.06,0,0,0-1.58.34l-.12.23a8.2,8.2,0,0,1-2.46,2.95l-.36-.17-.32-.15c-.05-.58-.09-1.16-.09-1.7a8.39,8.39,0,0,1,.56-3.51c.21-.38.4-.47.43-.48s.2.1.38.46l0,.07a1.27,1.27,0,0,0,2.37-.65,1.16,1.16,0,0,0-.05-.36l0-.07a3.53,3.53,0,0,0-1.75-2,2.9,2.9,0,0,0-2.37.07,3.2,3.2,0,0,0-1,.65,2.61,2.61,0,0,0-1.73-.76,2,2,0,0,0-1.7,1,4.06,4.06,0,0,0-.52,2.35,15.54,15.54,0,0,0,.14,1.86,1.06,1.06,0,0,0-.82.32,3.11,3.11,0,0,0-.82,2.19,3.91,3.91,0,0,0,.85,2.43,3,3,0,0,0-.88,1.44l-3.62,2.15a2.66,2.66,0,0,0-1.23,2.11l0,.4a3.85,3.85,0,0,0,.08.72,30.7,30.7,0,0,0-5,2.64,17.9,17.9,0,0,1-2-4.24,1.06,1.06,0,0,0-.84-.73,3.48,3.48,0,0,0-4,2.67,1,1,0,0,0,0,.24,1.06,1.06,0,0,0,.38.82,17.87,17.87,0,0,1,3.3,3.62,30.22,30.22,0,0,0-4.6,4.9,4,4,0,0,0-.85,2.35,2.37,2.37,0,0,0,.67,1.71l.12.12A25.54,25.54,0,0,0,503,54.53a4.32,4.32,0,0,0-1.38,2.95,2.37,2.37,0,0,0,.68,1.71l4,4a10.81,10.81,0,0,0-1.4,4.84h0a1.3,1.3,0,0,0,2.51.5l0,.06a3.25,3.25,0,0,1,1-1.32c0,.51-.07,1-.07,1.4a8.23,8.23,0,0,0,1.22,4.51,1.28,1.28,0,0,0,1.17.74,1.31,1.31,0,0,0,1.31-1.3c0-2.43,1.63-4.88,3.13-6.66a41.59,41.59,0,0,0,3.76,11.59,26.81,26.81,0,0,0,2,3.21l-.6.9a1,1,0,0,0-.16.42.44.44,0,0,1-.24.08c-.53,0-1.61-.69-3.06-2.67A12.2,12.2,0,0,1,514.93,74a1.06,1.06,0,0,0-2.11-.1c-.58,3.5,1.05,9.09,4.76,12.41a16.35,16.35,0,0,0,9.18,4.26,1.06,1.06,0,0,0,1.17-1.06,1,1,0,0,0,0-.11l-.08-.82a1.06,1.06,0,0,0-.82-.93A10.36,10.36,0,0,1,523.44,86c-.51-.42-.77-.64-.77-1a1.84,1.84,0,0,1,.36-.87,1,1,0,0,0,.44-.36,18,18,0,0,0,8.15,4.5h.05a1.08,1.08,0,0,0,.51,0h.05a17.92,17.92,0,0,0,7.7-4.11c.08,0,.17,0,.25,0l.45-.06,2.17,3.2a1.06,1.06,0,0,0,.9.47l2.39,2.79a1.06,1.06,0,0,0,1.75-1.18l-1.7-3.24a1,1,0,0,0-.09-1L544.6,83c1-1.15,2.51-4,3-12.08a50.52,50.52,0,0,0,1.19-5c1.5,1.78,3.11,4.25,3.13,6.7a1,1,0,0,0,0,.17,1.31,1.31,0,0,0,2.42.44,8.2,8.2,0,0,0,1.27-4.6c0-.42,0-.89-.08-1.4a3.21,3.21,0,0,1,1,1.32A1.31,1.31,0,0,0,559,68a10.92,10.92,0,0,0-1.4-4.84l4-4A2.36,2.36,0,0,0,562.28,57.47Z" transform="translate(-390.43 -19.76)"/><path class="cls-4" d="M547.24,54.33c-.6-.27-1.21-.53-1.82-.77.38,2.72.94,6.18,1.17,9A76.87,76.87,0,0,0,547.24,54.33Z" transform="translate(-390.43 -19.76)"/><path class="cls-4" d="M541.4,52.25c-.56-.15-1.12-.28-1.68-.4a10.53,10.53,0,0,1-15.59,0A36.9,36.9,0,0,0,518,53.76l0,.1h5.63l-5.57.71a1.62,1.62,0,0,1-.05.22l9.4,6.58-9.78-6-.18.15,2,6.77-2.72-6.52h-.12c.76,16.79,6.13,27.32,15.26,29.81,4.34-1.19,7.83-4.2,10.38-8.83a44.53,44.53,0,0,0,1-10.61C543.3,59.7,542.58,54.51,541.4,52.25Zm.14,18.55a64.11,64.11,0,0,1-6.41.56v6.41c-1,0-2.11.07-3.2.07s-2.17,0-3.21-.07V71.36c-2.31-.09-4.48-.29-6.41-.56V64.39a64.19,64.19,0,0,0,6.41.56V58.54q1.57.06,3.21.06t3.2-.06v6.41c2.31-.09,4.48-.29,6.41-.56Z" transform="translate(-390.43 -19.76)"/><path class="cls-1" d="M550.7,46c-1.1,1,.53,2.09,0,2.59-.24.22-.51,0-.74-.23a2.33,2.33,0,0,1-.54-1l-.73.53a4.41,4.41,0,0,0,.67,1c.6.67,1.4,1.14,2.18.44,1.09-1-.52-2.1,0-2.54.26-.23.58.09.76.29a2.13,2.13,0,0,1,.46.79l.67-.5a3.47,3.47,0,0,0-.58-.88C552.26,45.85,551.43,45.32,550.7,46Z" transform="translate(-390.43 -19.76)"/><path d="M560.14,55.27a25.35,25.35,0,0,0-5.43-4.09l1.07-1.07c.57-.57.45-1.67-.28-2.67a29.16,29.16,0,0,0-5.17-5.35l2.53-3.75-.22-.46,1.94-3.71-2.73,3.19-.49,0L548.89,41a29.61,29.61,0,0,0-10.28-4.63,10.73,10.73,0,0,0-3.17-1.75,19.32,19.32,0,0,0-.64-1.93,3.74,3.74,0,0,1,.91-1.24,4.61,4.61,0,0,0,1.2-1.73,4.54,4.54,0,0,0,.32-1.63,2.5,2.5,0,0,0-.83-2l-.2-.15-.12.23a9,9,0,0,1-2.94,3.43c-.37.24-.68.1-1.3-.22A8.62,8.62,0,0,0,531,29c-.27-2.25-.21-5.08.54-6.43s2-1.33,2.69,0h0a.21.21,0,0,0,.18.11.21.21,0,0,0,.21-.21.21.21,0,0,0,0,0h0v-.05A2,2,0,0,0,531.91,21a2.93,2.93,0,0,0-1.31,1.34c-1.05-1.54-2-1.71-2.61-.86s-.42,3.23.39,6.79a5.63,5.63,0,0,1-1.71-2.12c-.89.93-.67,3,.86,4l-.38.32a2.13,2.13,0,0,0-1.2,1.72l-4,2.36a1.63,1.63,0,0,0-.71,1.3,2.78,2.78,0,0,0,0,.29,1.88,1.88,0,0,0,.31,1.13l0,.16v0A29.69,29.69,0,0,0,515,41l-.39-.58a19,19,0,0,1-2.34-4.82,2.42,2.42,0,0,0-2.75,1.86,18.93,18.93,0,0,1,3.59,4l.44.65a29.2,29.2,0,0,0-5.16,5.35c-.74,1-.85,2.1-.28,2.67l1.07,1.07a25.37,25.37,0,0,0-5.43,4.09c-1.08,1.09-1.4,2.47-.71,3.16L507.53,63a10.26,10.26,0,0,0-1.64,5,.24.24,0,0,0,.24.25.24.24,0,0,0,.22-.16c.49-1,.94-1.66,3.32-3a22.51,22.51,0,0,0-.37,3.56,7.15,7.15,0,0,0,1.12,4.06.22.22,0,0,0,.21.13.24.24,0,0,0,.25-.24c0-3.6,3-7.11,4.81-8.9l.07-.08a42.71,42.71,0,0,0,4,13.42,25.19,25.19,0,0,0,2.33,3.69l-1,1.5.09.18c-1.32,1.83-3.39.24-5.27-2.31a13.17,13.17,0,0,1-2-6c-.5,3,1,8.35,4.42,11.44a15.42,15.42,0,0,0,8.58,4l-.08-.82a11.37,11.37,0,0,1-4-1.84c-1.41-1.17-1.53-1.88-.38-3.61h.2l.72-1.07a17.05,17.05,0,0,0,8.57,5.14h.1a16.91,16.91,0,0,0,7.64-4.2,2,2,0,0,0,.57.09,2,2,0,0,0,.48-.06,2,2,0,0,0,.48.06h.09l2.45,3.62.49,0L546.9,90,545,86.25l.22-.46-2-2.93c2.29-1.45,3.09-7.43,3.35-12.07a52,52,0,0,0,1.55-7.19l.07.09C550,65.47,552.95,69,553,72.61a.24.24,0,0,0,.46.09,7.15,7.15,0,0,0,1.12-4.07,22.39,22.39,0,0,0-.37-3.56c2.38,1.37,2.83,2,3.32,3A.25.25,0,0,0,558,68a10.41,10.41,0,0,0-1.64-5l4.52-4.53C561.54,57.75,561.23,56.36,560.14,55.27ZM539.55,37.06A29.06,29.06,0,0,1,555.14,47.7c.6.81.73,1.69.33,2.1l0,0a1.63,1.63,0,0,0,0-.23,2.68,2.68,0,0,0-.53-1.42h0a.05.05,0,0,0-.07,0,.05.05,0,0,0,0,.07c.32.55.59,1.54.2,2l-.11.12a1.64,1.64,0,0,0,0-.23,2.66,2.66,0,0,0-.53-1.42h0a0,0,0,0,0-.07,0,0,0,0,0,0,0,.07c.32.55.59,1.54.2,2l-.11.11a1.48,1.48,0,0,0,0-.23,2.69,2.69,0,0,0-.53-1.42h0a.05.05,0,0,0-.07,0,.05.05,0,0,0,0,.07c.32.55.59,1.54.2,2l-.11.11a1.51,1.51,0,0,0,0-.23,2.67,2.67,0,0,0-.53-1.42h0a0,0,0,0,0-.07,0,.05.05,0,0,0,0,.07c.32.55.59,1.54.2,2l-.11.11a1.48,1.48,0,0,0,0-.23,2.67,2.67,0,0,0-.53-1.42h0a.05.05,0,0,0-.09.05c.32.55.59,1.54.2,2l-.11.11a1.52,1.52,0,0,0,0-.23,2.67,2.67,0,0,0-.53-1.42h0a.05.05,0,0,0-.07,0,.05.05,0,0,0,0,.07c.32.55.59,1.54.2,2l-.11.11a1.63,1.63,0,0,0,0-.23,2.67,2.67,0,0,0-.53-1.42h0a0,0,0,0,0-.07,0,0,0,0,0,0,0,.07c.32.55.59,1.54.2,2l-.11.11a1.4,1.4,0,0,0,0-.23,2.67,2.67,0,0,0-.53-1.42h0a.05.05,0,0,0-.07,0,.05.05,0,0,0,0,.07c.32.55.59,1.54.2,2h0a2.83,2.83,0,0,0-.5-1.5,22.93,22.93,0,0,0-8.27-7.51l-.05,0a10.65,10.65,0,0,0-.09-1.32,2.88,2.88,0,0,0,1,.8,4.5,4.5,0,0,0,1.13.42l.35-.77a2.85,2.85,0,0,1-1-.29,1.29,1.29,0,1,1,1.14-2.32,2.11,2.11,0,0,1,.8.74l.49-.73a4.16,4.16,0,0,0-1-.75,2.05,2.05,0,0,0-3,.78,2.38,2.38,0,0,0-.2.52A10.72,10.72,0,0,0,539.33,37Zm8.34,15.39,1.09.63a4.17,4.17,0,0,0,2.06.84,1.26,1.26,0,0,1,0,.17,2.62,2.62,0,0,1-2.14-.49s0-.1,0-.15v-.14l-.13-.06a38.61,38.61,0,0,0-3.61-1.52l2.65-2.65A22.59,22.59,0,0,1,550.27,52l-.05,0a10.24,10.24,0,0,0-1.26-.63h0a0,0,0,0,0-.06,0,0,0,0,0,0,0,.07l1.09.63.52.3.11.16a3.09,3.09,0,0,1,.28.53,7.19,7.19,0,0,1-1.19-.57,10.69,10.69,0,0,0-1.27-.63h0a.05.05,0,0,0-.06,0,.05.05,0,0,0,0,.07l1.09.63a6.68,6.68,0,0,0,1.5.76,1.93,1.93,0,0,1,.06.34A3.94,3.94,0,0,1,549.2,53a10.38,10.38,0,0,0-1.27-.63h0a.05.05,0,0,0-.06,0A.06.06,0,0,0,547.89,52.45Zm3,1.92-.05.07c-.35.35-1.05.3-1.79-.12l-.17-.1c0-.13,0-.27,0-.4A2.75,2.75,0,0,0,550.87,54.38Zm3.51,5.38A9.14,9.14,0,0,0,555.9,61a3,3,0,0,1,.25.57,6.15,6.15,0,0,1-2.19-1.34.05.05,0,0,0-.07,0,.05.05,0,0,0,0,.07,5.4,5.4,0,0,0,2.31,1.51,1.56,1.56,0,0,1,0,.27c-.83.13-1.65-.45-2.77-1.35a0,0,0,0,0-.07,0,.05.05,0,0,0,0,.07c.85.78,1.8,1.65,2.8,1.54a.85.85,0,0,1,0,.11c-1,.48-1.89-.16-3.22-1.22a.05.05,0,0,0-.07,0,.05.05,0,0,0,0,.07c.87.8,1.92,1.76,3,1.5-1,.81-2.28-.18-2.81-.66a20.9,20.9,0,0,0-2.61-1.91,2.93,2.93,0,0,0-1.76-.5l2.55-2.56a18.29,18.29,0,0,1,4,3,3.91,3.91,0,0,1,.36.42,14.22,14.22,0,0,1-1.19-.88,0,0,0,0,0-.07,0A.05.05,0,0,0,554.39,59.76Zm-5.79-.58q.13-1.59.21-3.26c.72.32,1.4.65,2,1Zm-2.67,4.88-.24-.09c0-.22,0-.45,0-.68l.07,0c.2.07.44.16.45.26h0c0,.2,0,.41,0,.61Zm.29.68h0c0,.21,0,.41,0,.62l-.28-.12-.24-.1c0-.22,0-.45,0-.69l.07,0C546,64.54,546.22,64.63,546.22,64.73Zm-.34-1.85-.23-.09c0-.22,0-.45,0-.69l.07,0c.2.07.44.15.45.24h0c0,.21,0,.41,0,.62Zm-.06-1.16-.23-.08c0-.23,0-.46,0-.69l.07,0c.2.06.45.14.45.24h0c0,.21,0,.42,0,.63Zm-.08-1.17-.23-.08c0-.23,0-.46-.05-.69l.06,0c.19.05.45.13.46.22h0c0,.21,0,.42,0,.63Zm-.1-1.17-.22-.07q0-.34-.07-.69l.06,0c.19,0,.46.12.47.21h0c0,.21,0,.41.06.62Zm-.13-1.16-.22-.06c0-.23-.05-.47-.08-.7h.05c.21,0,.46.1.47.2h0c0,.21.05.42.08.64Zm-2.87,21c-.17-.13-.38-.28-.35-.38h0c.05-.19.1-.38.15-.59l.25.19c.16.11.38.25.36.35s-.12.43-.18.63Zm.07.67c-.08.22-.16.44-.24.64l-.23-.21c-.16-.13-.34-.28-.31-.37s.13-.38.2-.58l.25.2C542.53,79.64,542.71,79.78,542.72,79.86ZM543,78c-.17-.12-.38-.26-.37-.36s.09-.4.13-.6l.27.18c.17.1.39.24.38.33s-.1.43-.15.64Zm-11.78-23.2h-1l2.7-4.71h1Zm2.51,0h-1l-.5-.88.5-.87ZM511,61.2a.05.05,0,0,0-.07,0c-1.33,1.06-2.24,1.7-3.22,1.22a.87.87,0,0,1,0-.11c1,.11,2-.76,2.81-1.54a.05.05,0,0,0,0-.07,0,0,0,0,0-.07,0c-1.12.9-1.95,1.49-2.77,1.35a1.67,1.67,0,0,1,0-.27A5.39,5.39,0,0,0,510,60.26a0,0,0,0,0,0-.07,0,0,0,0,0-.07,0,6.19,6.19,0,0,1-2.19,1.34A2.85,2.85,0,0,1,508,61a9.18,9.18,0,0,0,1.51-1.2.05.05,0,0,0,0-.07,0,0,0,0,0-.07,0,14.24,14.24,0,0,1-1.19.88,3.9,3.9,0,0,1,.36-.42,18.26,18.26,0,0,1,4-3l2.56,2.56a3,3,0,0,0-1.76.51,21.28,21.28,0,0,0-2.61,1.9c-.53.49-1.84,1.48-2.81.67,1.09.26,2.14-.7,3-1.5A.05.05,0,0,0,511,61.2Zm2-4.28c.65-.35,1.34-.69,2.05-1q.08,1.67.21,3.27Zm2.09-3.66-.13.06v.14s0,.09,0,.14a2.61,2.61,0,0,1-2.14.49,1.11,1.11,0,0,1,0-.17,4.16,4.16,0,0,0,2.06-.84l1.09-.63a.05.05,0,0,0,0-.07.05.05,0,0,0-.06,0h0a10.62,10.62,0,0,0-1.27.63,3.93,3.93,0,0,1-1.84.69,1.77,1.77,0,0,1,.06-.34,6.76,6.76,0,0,0,1.5-.76l1.09-.63a.05.05,0,0,0,0-.07,0,0,0,0,0-.06,0h0a10.37,10.37,0,0,0-1.26.63,7.42,7.42,0,0,1-1.19.57,2.75,2.75,0,0,1,.28-.53l.1-.15.52-.3,1.09-.63a.05.05,0,0,0,0-.07.05.05,0,0,0-.06,0h0a10.31,10.31,0,0,0-1.26.63l-.05,0a22.5,22.5,0,0,1,2.46-2.93l2.65,2.65A38.87,38.87,0,0,0,515.1,53.26Zm-.1,1-.17.1c-.73.43-1.43.48-1.79.12l0-.07a2.75,2.75,0,0,0,2-.56C515,54,515,54.09,515,54.22Zm1.37-5.45c.34-.32.68-.63,1-.93l2.37,3.52-.61.21Zm2.45-2a22.19,22.19,0,0,1,2.35-1.49h0a10.69,10.69,0,0,0,1.64,5.27l-1.26.33Zm8.89-6.55c0,.29,0,.7-.08,1.2a2.86,2.86,0,0,1-.39.52l-.14.12c0-.09-.08-.17-.13-.26l-.11-.21-.2.12a3.52,3.52,0,0,0-.48.35l-.25.19a3.51,3.51,0,0,0,0-.72l.08-.13a3.38,3.38,0,0,0,1.33-1.06Zm0-.48,0-.06h0v0Zm-1.78,8.9a2.88,2.88,0,0,1,.66,1.11,3.41,3.41,0,0,0-1.07.24,2.81,2.81,0,0,1-1.35-2.22A3,3,0,0,1,525.91,48.6Zm-2-1.85a2.8,2.8,0,0,1-.31-.62,2.9,2.9,0,0,1-.15-1.27,3,3,0,0,1,.19-.68A2.93,2.93,0,0,1,525,47v0A3.48,3.48,0,0,0,523.91,46.75Zm4.18,4a3,3,0,0,1,1.48,1.27,2.89,2.89,0,0,1-3.44-1.31A3,3,0,0,1,528.09,50.79Zm-.09-.86a3.27,3.27,0,0,0-.53-.15,3,3,0,0,1-.5-1.52A2.92,2.92,0,0,1,529.43,51,3.4,3.4,0,0,0,528,49.93Zm-1.29-2.65-.24,0v.24a3.46,3.46,0,0,0,0,.6s0,.05,0,.08a3.2,3.2,0,0,0-.32-.38,3.39,3.39,0,0,0-.52-.43,2.92,2.92,0,0,1-.06-.77s0-.05,0-.08,0-.18,0-.26a3.06,3.06,0,0,1,.27-.74A2.93,2.93,0,0,1,527,47.13c0,.06,0,.12,0,.18Zm0-7.33a2.9,2.9,0,0,1-.9.92,3.48,3.48,0,0,0-.52-1,3,3,0,0,1,.28-.62l.05-.07q.72.18,1.3.29A3.09,3.09,0,0,1,526.67,39.95ZM525.77,43a3,3,0,0,1,.51-.49,3,3,0,0,1,.23,1.68c0,.09,0,.18-.06.27s0,.11-.06.17l-.23-.17-.2-.13-.12.21a3.46,3.46,0,0,0-.25.54l-.07.16c0-.06,0-.12,0-.18a3.41,3.41,0,0,0-.34-.7,2.43,2.43,0,0,1,.05-.25l0,0A3.41,3.41,0,0,0,525.77,43Zm-.64-.4h0a2.87,2.87,0,0,1-.42,1.22,3.4,3.4,0,0,0-.88-.68,3,3,0,0,1,0-.69h0a3,3,0,0,1,.85-1.77A2.94,2.94,0,0,1,525.13,42.62Zm-1.53-1.14a3.43,3.43,0,0,0-.45-.55,3,3,0,0,1,0-.65h0a2.92,2.92,0,0,1,.56-1.52l.42.07a2.92,2.92,0,0,1,.34,1.45A3.43,3.43,0,0,0,523.59,41.48Zm-.26,1.37a3.35,3.35,0,0,0,.05.58,2.94,2.94,0,0,0-.13.39,3.43,3.43,0,0,0-.2.63,3.4,3.4,0,0,0-.67-.43,2.84,2.84,0,0,1-.25-.61,2.81,2.81,0,0,1,.16-2A3,3,0,0,1,523.34,42.85ZM523,45.54a3.31,3.31,0,0,0,.16.74,3.42,3.42,0,0,0,.45.88c0,.09,0,.18,0,.27a3.4,3.4,0,0,0-1-.28,2.81,2.81,0,0,1-.44-.49,3,3,0,0,1-.51-1.88v0A3,3,0,0,1,523,45.54Zm-.73,2.55a3,3,0,0,1,1.53.36,3.42,3.42,0,0,0,.81,1.4l.14.13a3.45,3.45,0,0,0-.83.07,2.83,2.83,0,0,1-.58-.32A2.94,2.94,0,0,1,522.28,48.08Zm3.42,2.86a3.45,3.45,0,0,0,1,1.12,3.38,3.38,0,0,0-.64.3,2.8,2.8,0,0,1-.65-.12,3,3,0,0,1-1.55-1.19A3,3,0,0,1,525.7,50.94Zm2.39,1.69a3.37,3.37,0,0,0,.7,0,3.1,3.1,0,0,1,1.25.58,2.87,2.87,0,0,1-3.67.05A3,3,0,0,1,528.09,52.63Zm1.9-2.51h1l.68,1.2-.5.87Zm5.07,2.56a3.31,3.31,0,0,0,.7,0,3,3,0,0,1,1.72.68,2.86,2.86,0,0,1-3.66-.05A3.1,3.1,0,0,1,535.06,52.68ZM545,64.05l-.23-.09c0-.22,0-.45,0-.68l.07,0c.2.07.45.16.45.26h0c0,.2,0,.41,0,.61Zm.29.68h0c0,.21,0,.41,0,.62l-.28-.12-.24-.1c0-.22,0-.45,0-.69l.07,0C545,64.54,545.27,64.63,545.27,64.73Zm-.34-1.85-.23-.09c0-.22,0-.45,0-.69l.07,0c.2.07.44.15.45.24h0c0,.21,0,.41,0,.62Zm-.05-1.16-.23-.08c0-.23,0-.46,0-.69l.07,0c.2.06.45.14.45.24h0c0,.21,0,.42,0,.63Zm-.08-1.17-.23-.08q0-.34-.06-.69l.06,0c.19.05.45.13.46.22h0l0,.63Zm-.1-1.17-.22-.07-.07-.69.06,0c.19,0,.46.12.47.21h0c0,.21,0,.41.06.62Zm-.13-1.16-.22-.06c0-.23-.06-.47-.09-.7h.05c.21,0,.46.1.47.2h0c0,.21.05.42.08.64ZM544,64.05c-.21-.08-.44-.16-.45-.27h0c0-.2,0-.39,0-.59l.28.11c.2.07.45.16.45.26h0c0,.2,0,.41,0,.61Zm.29.68h0c0,.21,0,.41,0,.62l-.28-.12c-.2-.08-.44-.17-.45-.28s0-.4,0-.6l.28.12C544.08,64.54,544.31,64.63,544.31,64.73ZM544,62.89c-.2-.07-.44-.15-.45-.26h0c0-.2,0-.4,0-.59l.29.11c.2.07.44.15.45.24h0l0,.62Zm-.05-1.16c-.2-.07-.45-.15-.46-.25h0c0-.2,0-.4,0-.6l.29.1c.2.06.45.14.45.24h0c0,.21,0,.42,0,.63Zm-.08-1.17c-.2-.06-.46-.14-.46-.25h0c0-.2,0-.4-.05-.6l.29.09c.19.05.45.13.46.22h0c0,.21,0,.42,0,.63Zm-.5,11.91.27.15c.19.09.42.21.41.31h0c0,.21,0,.42-.06.62l-.28-.16c-.18-.09-.4-.21-.41-.31S543.32,72.67,543.34,72.47Zm.46-.25c-.18-.09-.41-.2-.42-.31s0-.41,0-.61l.26.13c.26.12.43.21.42.33h0c0,.21,0,.41,0,.62Zm.07-1.19c-.19-.09-.41-.19-.4-.29h0l0-.61.24.11c.32.13.45.21.44.34h0c0,.2,0,.4,0,.6Zm0-1.19c-.22-.09-.39-.17-.39-.26h0c0-.2,0-.39,0-.59l.28.14c.19.08.43.19.42.28h0c0,.19,0,.39,0,.58Zm.09-1.11c-.2-.09-.44-.19-.44-.3s0-.4,0-.6l.26.12c.26.11.44.19.44.3h0c0,.2,0,.41,0,.61Zm0-1.18c-.2-.08-.42-.18-.42-.29h0v-.59l.27.12c.21.08.44.18.44.29h0c0,.2,0,.4,0,.61Zm0-1.17c-.2-.08-.43-.17-.43-.28h0c0-.2,0-.39,0-.59l.28.12c.2.08.44.17.44.27h0c0,.09,0,.18,0,.28s0,.22,0,.33Zm.36-9.33L544.2,57l-.09-.63h.05c.21,0,.46.09.48.19h0c0,.18.06.37.08.56Zm-.17-1.1-.21,0c0-.21-.07-.42-.11-.62H544c.19,0,.46.07.48.16s.07.38.1.57Zm-.2-1.09-.21,0c0-.23-.1-.45-.15-.67h0c.2,0,.47.08.51.17l.13.59Zm-1.43-4.45-.27.09-.06,0a4.88,4.88,0,0,0-.31-.43.79.79,0,0,1,.13-.18A2.61,2.61,0,0,1,542.6,50.42Zm-.17-.77.21.06,0,.07h0Zm.47,1.19a6,6,0,0,1,.35.63l-.29,0h-.19q-.13-.28-.27-.52C542.7,50.84,542.86,50.79,542.9,50.83Zm0-.73a.93.93,0,0,1,.13-.18,2.64,2.64,0,0,1,.52.49l-.27.09-.06,0A4.68,4.68,0,0,0,542.91,50.1Zm.59,1.9c.08.21.17.44.25.67l-.29-.06-.23,0c-.08-.24-.17-.47-.26-.69C543.18,51.89,543.43,51.91,543.49,52Zm-.12,1c.21,0,.48.08.54.18s.11.37.16.57l-.31-.06-.21,0c-.06-.22-.12-.43-.18-.64Zm.8-.47c-.08-.24-.17-.47-.26-.69.21,0,.47,0,.53.12s.17.44.25.67l-.29-.06Zm-.26-1.13h-.19c-.09-.18-.17-.36-.27-.52.2-.07.35-.12.4-.08a6,6,0,0,1,.35.63Zm-.75-2a2,2,0,0,0-1.08-.33H542a.78.78,0,0,0-.27,0,10.68,10.68,0,0,0,1-4l0,0A22.35,22.35,0,0,1,545,46.72Zm-1.54-2.83a2.82,2.82,0,0,1-.44.49,3.37,3.37,0,0,0-1,.28c0-.09,0-.18,0-.27a3.54,3.54,0,0,0,.45-.88,3.3,3.3,0,0,0,.16-.74,3,3,0,0,1,1.29-.78v0A3,3,0,0,1,541.63,46.66Zm.06,3,0,.07h0l0,0,0-.05Zm0-6.31a2.83,2.83,0,0,1-.26.61,3.49,3.49,0,0,0-.67.43,3.41,3.41,0,0,0-.2-.62,3.48,3.48,0,0,0-.13-.39,3.17,3.17,0,0,0,.05-.58,3,3,0,0,1,1.05-1.41,3,3,0,0,1,.25,1A3,3,0,0,1,541.72,43.39Zm-1-2.46a3.42,3.42,0,0,0-.45.55,3.44,3.44,0,0,0-.84-1.2,1,1,0,1,1,1.33,0h0A2.9,2.9,0,0,1,540.7,40.93Zm-.3,3.92a3,3,0,0,1-.15,1.27,2.89,2.89,0,0,1-.31.62,3.49,3.49,0,0,0-1.09.24v0a2.94,2.94,0,0,1,1.36-2.8A3.09,3.09,0,0,1,540.4,44.85Zm-.69,2.88a2.94,2.94,0,0,1-.81,1.79,2.91,2.91,0,0,1-.54.43,3.41,3.41,0,0,0-1.07-.24,2.88,2.88,0,0,1,.65-1.11A3,3,0,0,1,539.7,47.73Zm-1.31-2.65c0,.06,0,.12,0,.18l-.07-.16a3.42,3.42,0,0,0-.25-.54l-.12-.21-.2.13-.23.17c0-.06,0-.11-.06-.17s0-.18-.06-.27a2.93,2.93,0,0,1,.23-1.68,3.27,3.27,0,0,1,.51.49,3.31,3.31,0,0,0,.59,1.07v0a2.46,2.46,0,0,1,.05.25A3.4,3.4,0,0,0,538.4,45.08Zm-.47.43a3,3,0,0,1,.27.74c0,.09,0,.17,0,.26s0,.05,0,.08a2.89,2.89,0,0,1-.06.78,3.32,3.32,0,0,0-.52.43,3.43,3.43,0,0,0-.32.39s0-.05,0-.08a3.2,3.2,0,0,0,0-.6v-.24l-.24,0-.29,0c0-.06,0-.12,0-.18A2.94,2.94,0,0,1,537.93,45.5Zm-1.05,2.76a3,3,0,0,1-.5,1.52,3.29,3.29,0,0,0-.53.15,3.39,3.39,0,0,0-1.43,1,2.92,2.92,0,0,1,2.46-2.71Zm-1.12,2.52a3,3,0,0,1,2,0,2.89,2.89,0,0,1-3.44,1.31A3,3,0,0,1,535.76,50.79Zm1.37,1.28a3.44,3.44,0,0,0,1-1.12,3,3,0,0,1,1.82.11,3,3,0,0,1-1.55,1.19,2.75,2.75,0,0,1-.65.12A3.42,3.42,0,0,0,537.13,52.06Zm2.78-2a3.37,3.37,0,0,0-.83-.07l.14-.13a3.4,3.4,0,0,0,.82-1.4,3,3,0,0,1,1.54-.36,3,3,0,0,1-1.09,1.64A2.92,2.92,0,0,1,539.91,50Zm1.41,0a2.92,2.92,0,0,1,.32.33l-.27.09-.19.07-.25-.1A4.84,4.84,0,0,0,541.33,50.09Zm0,.88.15-.05c.21-.08.37-.13.42-.08a6,6,0,0,1,.35.63l-.3,0c-.22,0-.48,0-.56-.12l-.15-.23Zm.61.91c.22,0,.49,0,.55.12s.17.44.25.67l-.29-.06a1.26,1.26,0,0,1-.53-.16c-.08-.21-.16-.41-.24-.59Zm.43,1.16c.21,0,.48.08.54.18s.11.37.16.57l-.31-.06a1.12,1.12,0,0,1-.49-.15c-.05-.2-.11-.4-.17-.59Zm.32,1.12c.2,0,.47.08.51.17s.09.39.13.59l-.3-.06c-.19,0-.42-.07-.48-.15s-.09-.41-.14-.61ZM543,55.3c.19,0,.45.07.48.16s.07.38.1.57l-.31-.07c-.2,0-.43-.08-.47-.17s-.07-.37-.1-.55Zm.19,1.09c.21,0,.47.09.48.19h0c0,.18.06.37.08.56l-.31-.08c-.2,0-.44-.1-.47-.19s-.05-.36-.08-.54Zm.16,1.09c.21,0,.46.1.47.2h0c0,.21.05.42.08.64l-.3-.09c-.19,0-.43-.11-.47-.2l-.08-.62Zm.15,1.17c.19,0,.46.12.46.21h0c0,.21,0,.41.06.62l-.3-.1c-.2-.06-.44-.12-.47-.22s0-.4-.06-.6Zm-.28,15,.27.15c.19.1.42.22.41.32h0q0,.31-.08.62l-.27-.16c-.18-.1-.41-.22-.41-.33S543.2,73.83,543.23,73.62Zm.13,1.32c.18.09.41.22.4.32h0c0,.21-.06.42-.09.63l-.27-.17c-.19-.11-.42-.24-.4-.34h0c0-.19.06-.39.08-.59Zm-.18,1.16c.17.1.41.23.39.33h0c0,.21-.07.42-.11.62l-.26-.17c-.18-.11-.39-.24-.39-.35s.07-.39.1-.6Zm.13,3.41,0,0c.14.1.32.24.33.32s-.16.44-.24.64l-.23-.21-.12-.1C543.16,80,543.24,79.74,543.31,79.51Zm.29-.32-.16-.13c.06-.22.12-.45.18-.68l0,0c.16.11.38.25.36.35s-.12.43-.18.63Zm.3-1.15-.17-.12c.05-.23.1-.46.15-.69l0,0c.17.1.39.24.38.33s-.1.43-.15.64Zm.25-1.16-.18-.12.12-.69h0l0,0c.17.1.41.23.39.33h0c0,.21-.08.42-.12.62Zm.2-1.16-.19-.11c0-.23.07-.46.1-.69l.05,0c.17.09.41.22.4.32h0c0,.21-.06.42-.09.63Zm.17-1.16-.2-.12c0-.23.05-.46.08-.69l0,0c.19.1.42.22.41.32h0c0,.21,0,.41-.08.62Zm.13-1.17-.2-.11c0-.23,0-.46.06-.69h0l.06,0c.19.09.42.21.41.31h0c0,.21,0,.42-.06.62Zm.11-1.17-.21-.11c0-.23,0-.47.05-.7l0,0c.26.12.43.21.43.33h0c0,.21,0,.41,0,.62Zm.07-1.19-.2-.1,0-.71h0l0,0c.32.13.45.21.44.34h0c0,.2,0,.4,0,.6Zm0-1.19-.19-.08c0-.23,0-.45,0-.66l.07,0c.19.08.42.19.42.28h0c0,.19,0,.39,0,.58Zm.09-1.11-.23-.11c0-.24,0-.47,0-.7h0l.06,0c.26.11.44.19.44.3h0l0,.61Zm0-1.18-.22-.1c0-.25,0-.47,0-.69l.06,0c.21.08.44.18.44.29h0c0,.2,0,.4,0,.61Zm0-1.17-.23-.1v-.1c0-.18,0-.37,0-.58l.08,0c.2.08.44.17.44.27h0c0,.09,0,.18,0,.28s0,.22,0,.33Zm.36-9.33-.21-.05c0-.21-.06-.42-.09-.63h.05c.21,0,.46.09.48.19h0c0,.18.06.37.08.56Zm-.17-1.1-.21,0c0-.21-.08-.42-.11-.62h.06c.19,0,.45.07.48.16s.07.38.1.57Zm-.2-1.09-.21,0c0-.23-.1-.45-.15-.67h0c.2,0,.47.08.51.17l.13.59Zm-.27-1.14-.21,0c-.06-.22-.12-.43-.18-.64h0c.21,0,.48.08.54.18s.11.37.16.57Zm0-2.19c-.11-.23-.22-.45-.33-.65l2.06-3.05c.35.3.7.61,1,.94ZM540,42.48h0a2.83,2.83,0,0,1,0,.69,3.44,3.44,0,0,0-.88.68,2.86,2.86,0,0,1-.42-1.22h0a2.92,2.92,0,0,1,.47-1.9A2.94,2.94,0,0,1,540,42.48Zm-2.57-6.27a3,3,0,0,1,1.32,1.45,3,3,0,0,1,.18.63,3.27,3.27,0,0,0-.26.74h0a3.41,3.41,0,0,0-1.25-1.21,3,3,0,0,1-.11-.59A2.92,2.92,0,0,1,537.47,36.21ZM536.81,38a2.92,2.92,0,0,1,1.79,1.86,3.43,3.43,0,0,0-.51,1,2.86,2.86,0,0,1-.9-.92,3,3,0,0,1-.41-1.22A3.15,3.15,0,0,1,536.81,38Zm1.05,3.33.08.13a3.37,3.37,0,0,0,0,.72l-.25-.19a3.62,3.62,0,0,0-.48-.35l-.21-.12-.12.21-.12.26-.14-.12a3.15,3.15,0,0,1-.3-.37q0-.65,0-1.32l.27.09A3.4,3.4,0,0,0,537.86,41.36ZM536.1,35.8a3,3,0,0,1,.37.54,3.47,3.47,0,0,0,0,1.07l-.13-.05a3.51,3.51,0,0,0-.45-.44c-.08-.5-.18-1-.3-1.53A2.82,2.82,0,0,1,536.1,35.8Zm.2,9c0-.69,0-1.38,0-2.09a4.86,4.86,0,1,1-8.72-.09c0,.65,0,1.38,0,2.18a4.38,4.38,0,1,0,8.75,0Zm-7.69-22.69c.26-.91.88-.45,1.63.5h0a.21.21,0,0,0,.16.08h0a12.07,12.07,0,0,0-.81,6h0C529.2,27.07,528.27,23.3,528.61,22.09ZM528,32.45a.32.32,0,0,1,0-.09h0a2.93,2.93,0,0,1,.72-1.26c.39-.34.82-.31,1,0s.09.63-.42.84-.49.55-.66.75a.34.34,0,0,1-.28.15l-.11,0h0A.35.35,0,0,1,528,32.45ZM522.19,35l4.16-2.47v0a6.46,6.46,0,0,1,1.39-1.88A12.93,12.93,0,0,0,529,29.35c-.7,1.9-1.46,3.75-2.43,4.22s-2.93,1.26-3.4,1.45h0a2.14,2.14,0,0,1-1.25.19A.78.78,0,0,1,522.19,35ZM522,36.06a3.29,3.29,0,0,0,1.45-.28.41.41,0,0,0-.11-.79.77.77,0,0,1,.75,1.17s.68.79,2.49-.38c2.09-1.34,6.13.44,7.44-3.61-.36-.07-1.11-1.07.2-2.3a7.68,7.68,0,0,0,2-3.19l.06-.1a2.33,2.33,0,0,1,.48,1.52,4.11,4.11,0,0,1-.29,1.46,4.23,4.23,0,0,1-1.1,1.58,4,4,0,0,0-1,1.45l0,.08v0c1.06,5,0,8.42-4.56,12.31-1.49-1.47-1.67-3.92-1.62-5.13l0-.19a11.71,11.71,0,0,0,1.3.1v-.44a21.17,21.17,0,0,1-5-1c-2.07-.24-2.35-.57-2.42-.89a6.92,6.92,0,0,0,2.82,0l-.07-.43a6,6,0,0,1-2.91,0h0A.8.8,0,0,1,522,36.06Zm-12.5,12.7a0,0,0,0,0,0-.07.05.05,0,0,0-.07,0h0a2.73,2.73,0,0,0-.53,1.44,1.57,1.57,0,0,0,0,.2l-.1-.1c-.39-.45-.12-1.44.2-2a.05.05,0,0,0,0-.07.05.05,0,0,0-.07,0h0a2.72,2.72,0,0,0-.54,1.44,1.26,1.26,0,0,0,0,.2l0,0c-.41-.41-.27-1.29.33-2.1a29,29,0,0,1,13-9.8c.16.3.53.54,1.41.73a10.72,10.72,0,0,0-1.68,3.86,2.78,2.78,0,0,1-.71.59,1.29,1.29,0,1,1-1.33-2.21,2.13,2.13,0,0,1,1.06-.27l-.35-.8a4.17,4.17,0,0,0-1.15.4,2.05,2.05,0,0,0-1,3,2.08,2.08,0,0,0,3,.68l.25-.15c0,.34-.06.69-.06,1l-.05,0a23,23,0,0,0-8.26,7.51,2.85,2.85,0,0,0-.5,1.51h0c-.39-.45-.12-1.45.2-2a.05.05,0,0,0,0-.07,0,0,0,0,0-.07,0h0a2.71,2.71,0,0,0-.54,1.44,1.45,1.45,0,0,0,0,.2l-.1-.1c-.39-.45-.12-1.45.2-2a.05.05,0,0,0,0-.07.05.05,0,0,0-.07,0h0a2.72,2.72,0,0,0-.54,1.44,1.31,1.31,0,0,0,0,.2l-.1-.1c-.39-.45-.12-1.44.2-2a.05.05,0,0,0-.09-.05h0a2.71,2.71,0,0,0-.53,1.44,1.45,1.45,0,0,0,0,.2l-.1-.1c-.39-.45-.12-1.44.2-2a.05.05,0,0,0,0-.07,0,0,0,0,0-.07,0h0a2.71,2.71,0,0,0-.54,1.44,1.31,1.31,0,0,0,0,.2l-.1-.1c-.39-.45-.12-1.44.2-2a.05.05,0,0,0,0-.07.05.05,0,0,0-.07,0h0a2.72,2.72,0,0,0-.53,1.44,1.3,1.3,0,0,0,0,.2l-.1-.1c-.39-.45-.12-1.44.2-2a.05.05,0,0,0,0-.07.05.05,0,0,0-.07,0h0a2.72,2.72,0,0,0-.53,1.44,1.58,1.58,0,0,0,0,.2l-.1-.1C508.95,50.3,509.22,49.31,509.53,48.76ZM507.19,62a2.18,2.18,0,0,1,.25-1.92.05.05,0,0,0,0-.07.05.05,0,0,0-.07,0h0a2.73,2.73,0,0,0-.53,1.44,1.44,1.44,0,0,0,0,.21l-.09-.09c-.42-.44-.14-1.46.18-2a.05.05,0,0,0,0-.07.05.05,0,0,0-.07,0h0a2.71,2.71,0,0,0-.54,1.44,1.55,1.55,0,0,0,0,.21l-.09-.09c-.42-.44-.14-1.46.18-2a.05.05,0,0,0,0-.07.05.05,0,0,0-.07,0h0a2.72,2.72,0,0,0-.53,1.44,1.27,1.27,0,0,0,0,.21l-.09-.09c-.41-.44-.14-1.46.19-2a.05.05,0,0,0-.09-.05h0a2.71,2.71,0,0,0-.53,1.44,1.26,1.26,0,0,0,0,.21l-.09-.09c-.41-.44-.14-1.46.19-2a.05.05,0,0,0-.09-.05h0a2.72,2.72,0,0,0-.53,1.44,1.37,1.37,0,0,0,0,.21l-.09-.09c-.41-.44-.13-1.45.19-2a.05.05,0,0,0,0-.07,0,0,0,0,0-.07,0h0a2.73,2.73,0,0,0-.54,1.44,1.47,1.47,0,0,0,0,.21l-.09-.09c-.41-.45-.13-1.45.19-2a.05.05,0,0,0,0-.07.05.05,0,0,0-.07,0h0a2.73,2.73,0,0,0-.53,1.44,1.35,1.35,0,0,0,0,.21l-.09-.1c-.4-.45-.13-1.45.19-2a.05.05,0,0,0,0-.07.05.05,0,0,0-.07,0h0a2.7,2.7,0,0,0-.54,1.44,1.29,1.29,0,0,0,0,.2c-.49-.5-.16-1.65.71-2.53a25.1,25.1,0,0,1,5.44-4.08l.36.36a19.23,19.23,0,0,0-2.06,1.27h0a.06.06,0,0,0,0,0v0a.05.05,0,0,0,.07,0s1-.61,2.16-1.21l.36.36a19.62,19.62,0,0,0-2.07,1.27.05.05,0,0,0,0,.07.05.05,0,0,0,.07,0s1-.61,2.17-1.2l.36.36a19.32,19.32,0,0,0-2.08,1.25h0a0,0,0,0,0,0,0,0,0,0,0,0,0,0,0,0,0,0,0,.07,0s1-.6,2.18-1.19l.36.36a19.66,19.66,0,0,0-2.09,1.25.05.05,0,0,0,0,.07.05.05,0,0,0,.07,0s1-.6,2.19-1.18l.36.36a19.42,19.42,0,0,0-2.09,1.24h0a.05.05,0,0,0,0,0v0a.05.05,0,0,0,.07,0s1-.6,2.2-1.17l.36.36a19.36,19.36,0,0,0-2.1,1.23h0a0,0,0,0,0,0,0,.05.05,0,0,0,0,0,.05.05,0,0,0,.07,0s1-.59,2.21-1.16l.17.17h0a1.2,1.2,0,0,0,.22.17,19.88,19.88,0,0,0-2.15,1.23h0a.05.05,0,0,0,0,0v0a0,0,0,0,0,.07,0s1.13-.63,2.35-1.21a2,2,0,0,0,1.27-.07,22.9,22.9,0,0,0-3.16,1.7.05.05,0,0,0,0,.07.05.05,0,0,0,.07,0A36.61,36.61,0,0,1,515,55c0,.15,0,.3,0,.45a21.68,21.68,0,0,0-6.76,4.39A3.37,3.37,0,0,0,507.19,62Zm8.19,1.4c-1.73,1.72-4.51,5-4.87,8.56a6.8,6.8,0,0,1-.77-3.33,23.46,23.46,0,0,1,.43-3.93l.08-.45-.4.23c-2.07,1.16-2.9,1.84-3.44,2.64a10.58,10.58,0,0,1,1.46-3.85c.86.57,2,.29,3.21-.81a19.43,19.43,0,0,1,1.6-1.23,5.64,5.64,0,0,1-.43.44,0,0,0,0,0,0,.07.05.05,0,0,0,.07,0h0a4.94,4.94,0,0,0,.94-.9l.37-.24a3,3,0,0,1,.43-.23,5.21,5.21,0,0,1-1.31,1.8.05.05,0,0,0,0,.07.05.05,0,0,0,.07,0h0a4.26,4.26,0,0,0,1.55-2,2.35,2.35,0,0,1,.37-.08,4.52,4.52,0,0,1-1.49,2.5.05.05,0,0,0,0,.07.05.05,0,0,0,.07,0h0A3.82,3.82,0,0,0,515,60.13l.24,0a3.83,3.83,0,0,1-1.48,3,0,0,0,0,0,0,.07.05.05,0,0,0,.07,0h0a4.1,4.1,0,0,0,1.6-2.19c0,.3.06.6.1.9a5.32,5.32,0,0,1-1.27,1.72.06.06,0,0,0,0,.07.05.05,0,0,0,.07,0h0a4.7,4.7,0,0,0,1.25-1.36c0,.22.06.44.09.65Zm16.54,23c-4.68-1.22-8.42-4.43-11.1-9.41a18.17,18.17,0,0,0,7.89,8.73,19.3,19.3,0,0,1-8.55-8.85c-3-5.69-4.55-13.5-4.75-23.23a38.12,38.12,0,0,1,7.1-2.57l.58-.14a10.73,10.73,0,0,0,17.58.13,2,2,0,0,1,.36.48c1.13,1.91,2.14,7.41,2.14,14.69A50.14,50.14,0,0,1,541.79,79,16.91,16.91,0,0,1,531.93,86.35Zm8.59-3.65a1.51,1.51,0,0,1-.33,0l-.19,0,.5-.53v.08A1.35,1.35,0,0,1,540.52,82.7Zm-5.4,3a18.5,18.5,0,0,0,6.43-6,5.08,5.08,0,0,1-.78,1.51h0A17.27,17.27,0,0,1,535.12,85.69ZM541,82.53c0-.1,0-.21,0-.3a1.42,1.42,0,0,1,0-.52l.22-.26a2.87,2.87,0,0,0,.22.26,1.13,1.13,0,0,1,.22.28A2.44,2.44,0,0,1,541,82.53Zm.73-1.13c-.16-.17-.29-.32-.25-.4h0a6.41,6.41,0,0,0,.29-.58,2.46,2.46,0,0,0,.23.2c.18.15.31.26.29.34a6.19,6.19,0,0,1-.37.65Zm.22,1.13c0-.07,0-.14,0-.21h0a4.57,4.57,0,0,0,.44-.6,1.06,1.06,0,0,1,.21.28A2.44,2.44,0,0,1,541.92,82.53Zm.74-1.13-.08-.09c.12-.22.23-.45.34-.7h0c.17.15.31.26.29.34a5.88,5.88,0,0,1-.38.65Zm.22,1.13c0-.07,0-.14,0-.21a4.57,4.57,0,0,0,.44-.6,1.13,1.13,0,0,1,.21.28A2.46,2.46,0,0,1,542.87,82.53Zm.92-.91-.19-.21-.08-.09c.12-.22.23-.45.34-.7h0c.18.15.31.26.29.34A5.59,5.59,0,0,1,543.79,81.61Zm.59-1.12-.23-.21-.13-.1c.08-.22.16-.44.23-.67l0,0c.14.1.32.24.33.32S544.47,80.29,544.38,80.49Zm.41-1.12-.23-.19-.16-.13c.06-.22.12-.45.18-.68l0,0c.16.11.38.25.36.35S544.86,79.17,544.79,79.37Zm.32-1.15-.25-.19-.17-.12q.08-.34.15-.69l0,0c.17.1.39.24.38.33S545.16,78,545.11,78.22Zm.26-1.17-.26-.17-.18-.12.12-.69h0l0,0c.17.1.41.23.39.33h0Q545.43,76.74,545.37,77.05Zm.21-1.16-.27-.17-.19-.11c0-.23.07-.46.1-.69h0l0,0c.17.09.41.22.4.32h0C545.64,75.47,545.6,75.68,545.57,75.89Zm.17-1.17-.27-.16-.2-.12c0-.23.05-.46.08-.69l.05,0c.19.1.42.22.41.32h0Zm.13-1.17-.28-.16-.2-.11c0-.23,0-.46.06-.69l.05,0c.19.09.42.21.41.31h0C545.92,73.13,545.9,73.34,545.88,73.55Zm.11-1.17-.28-.15-.21-.11.05-.7,0,0c.26.12.43.21.42.33h0C546,72,546,72.17,546,72.37Zm.09-1.18-.3-.16-.2-.1c0-.24,0-.48,0-.71l0,0c.32.13.45.21.44.34h0C546.11,70.79,546.09,71,546.08,71.19Zm.07-1.19a2.6,2.6,0,0,0-.32-.15l-.18-.08c0-.23,0-.45,0-.66l.07,0c.19.08.42.19.42.28h0Q546.16,69.7,546.15,70Zm0-1.13-.27-.13-.23-.11c0-.24,0-.47,0-.7l.06,0c.26.11.44.19.44.3h0C546.21,68.46,546.2,68.66,546.19,68.87Zm0-1.18-.29-.14-.22-.1c0-.25,0-.47,0-.69l.07,0c.21.08.44.18.44.29h0C546.23,67.28,546.23,67.48,546.23,67.69Zm0-1.17-.29-.13-.23-.1v-.1c0-.18,0-.37,0-.58l.08,0c.2.08.44.17.44.27h0v.28C546.24,66.29,546.24,66.4,546.24,66.51Zm.4,2.23c0-1,0-1.91,0-2.56,0-2.79-.16-10-1.71-14.05q1.76.64,3.47,1.45A69.3,69.3,0,0,1,546.63,68.75Zm10.81-1.66c-.54-.8-1.36-1.48-3.44-2.64l-.4-.23.08.45a23.46,23.46,0,0,1,.43,3.93,6.79,6.79,0,0,1-.77,3.33c-.35-3.52-3.14-6.84-4.87-8.56l-.3-.35c0-.22.06-.44.09-.65a4.69,4.69,0,0,0,1.25,1.35h0a0,0,0,0,0,.07,0,.05.05,0,0,0,0-.07,5.32,5.32,0,0,1-1.27-1.72c0-.3.07-.6.1-.9a4.09,4.09,0,0,0,1.6,2.18h0a.05.05,0,0,0,.07,0,.05.05,0,0,0,0-.07,3.82,3.82,0,0,1-1.48-3l.24,0a3.83,3.83,0,0,0,1.67,2.59h0a0,0,0,0,0,.07,0,.05.05,0,0,0,0-.07,4.54,4.54,0,0,1-1.49-2.5,2.36,2.36,0,0,1,.37.08,4.26,4.26,0,0,0,1.55,2h0a.05.05,0,0,0,.07,0,.05.05,0,0,0,0-.07,5.22,5.22,0,0,1-1.3-1.8,3.1,3.1,0,0,1,.43.23l.37.24a5,5,0,0,0,.94.9h0a.05.05,0,0,0,.07,0,.05.05,0,0,0,0-.07,5.44,5.44,0,0,1-.43-.44c.57.4,1.11.81,1.6,1.23,1.2,1.09,2.34,1.37,3.21.81A10.61,10.61,0,0,1,557.44,67.09Zm3.1-9h0a1.4,1.4,0,0,0,0-.23,2.68,2.68,0,0,0-.53-1.42h0a.05.05,0,0,0-.09.05c.32.55.6,1.56.19,2l-.1.11a1.84,1.84,0,0,0,0-.23,2.67,2.67,0,0,0-.53-1.42h0a.05.05,0,0,0-.09.06c.32.55.6,1.56.19,2l-.1.1a1.54,1.54,0,0,0,0-.23,2.68,2.68,0,0,0-.53-1.43h0a.05.05,0,0,0-.07,0,0,0,0,0,0,0,.07c.32.55.6,1.56.19,2l-.1.1a1.56,1.56,0,0,0,0-.23,2.67,2.67,0,0,0-.53-1.42h0a.05.05,0,1,0-.09.05c.32.55.6,1.57.19,2l-.1.1a1.28,1.28,0,0,0,0-.23,2.67,2.67,0,0,0-.53-1.42h0a0,0,0,0,0-.07,0,.05.05,0,0,0,0,.07c.32.55.6,1.57.18,2l-.1.1a1.59,1.59,0,0,0,0-.23,2.67,2.67,0,0,0-.53-1.42h0a.05.05,0,0,0-.07,0,.05.05,0,0,0,0,.07c.32.56.6,1.57.19,2l-.1.1a1.57,1.57,0,0,0,0-.23A2.69,2.69,0,0,0,557,59.5h0a.05.05,0,0,0-.09.05c.32.56.6,1.58.18,2l-.09.1a1.38,1.38,0,0,0,0-.24A2.69,2.69,0,0,0,556.5,60h0a0,0,0,0,0-.07,0,0,0,0,0,0,0,.07,2.18,2.18,0,0,1,.25,1.92,3.37,3.37,0,0,0-1.08-2.15,21.67,21.67,0,0,0-6.76-4.38l0-.45a37.13,37.13,0,0,1,3.66,1.76.05.05,0,0,0,.07,0,0,0,0,0,0,0-.07A22.69,22.69,0,0,0,549.4,55a2,2,0,0,0,1.26.07c1.22.58,2.34,1.21,2.35,1.21a0,0,0,0,0,.07,0v0a0,0,0,0,0,0,0h0a20,20,0,0,0-2.15-1.23,1.19,1.19,0,0,0,.22-.17h0l.17-.17c1.17.57,2.2,1.15,2.21,1.16a0,0,0,0,0,.07,0,0,0,0,0,0,0,0,.05.05,0,0,0,0,0h0a19.1,19.1,0,0,0-2.1-1.23l.36-.36c1.16.57,2.19,1.16,2.2,1.17a.05.05,0,0,0,.07,0,.05.05,0,0,0,0,0,.05.05,0,0,0,0,0h0A19.52,19.52,0,0,0,552,53.92l.36-.36c1.16.58,2.18,1.17,2.19,1.18a.05.05,0,0,0,.07,0,0,0,0,0,0,0-.07,19.48,19.48,0,0,0-2.09-1.25l.36-.36c1.15.58,2.17,1.18,2.18,1.19a.05.05,0,0,0,.07,0,0,0,0,0,0,0,0,0,0,0,0,0,0,0h0A19.11,19.11,0,0,0,553,52.89l.36-.36c1.15.59,2.16,1.19,2.17,1.2a.05.05,0,0,0,.07,0,.05.05,0,0,0,0-.07,19.74,19.74,0,0,0-2.07-1.27l.36-.36c1.14.59,2.15,1.2,2.16,1.21a.05.05,0,0,0,.07,0v0a.05.05,0,0,0,0,0h0A19.22,19.22,0,0,0,554,51.86l.36-.36a25.06,25.06,0,0,1,5.44,4.08C560.71,56.46,561,57.63,560.54,58.12ZM534.23,31.63h0a6.17,6.17,0,0,1,.76-.89,3.67,3.67,0,0,0,1-1.38,3.49,3.49,0,0,0,.23-1.08,8,8,0,0,1-1.55,2,1.47,1.47,0,0,0-.56,1s0,0,0,0A.45.45,0,0,0,534.23,31.63Z" transform="translate(-390.43 -19.76)"/><path class="cls-1" d="M514.15,47.24c-1.1-1-2,.77-2.52.33-.27-.23,0-.59.19-.79a2.16,2.16,0,0,1,.73-.55l-.58-.6a3.45,3.45,0,0,0-.8.68c-.53.61-1,1.5-.23,2.14,1.11,1,2-.78,2.58-.29.24.21.08.5-.14.76a2.37,2.37,0,0,1-.93.66l.61.66a4.26,4.26,0,0,0,.92-.79C514.57,48.78,514.94,47.93,514.15,47.24Z" transform="translate(-390.43 -19.76)"/><path class="cls-1" d="M515.82,46.26l1.18-1,.78.48.92-.75-3.76-2.15-1,.83,1.36,4.1.85-.69Zm-.88-2.3h0l1.37.92-.79.64Z" transform="translate(-390.43 -19.76)"/><path class="cls-1" d="M548.61,42.64l-3.71,2.22.86.68.78-.48,1.19.94-.3.86.93.73,1.29-4.14Zm-.61,2.6-.79-.63,1.39-.92h0Z" transform="translate(-390.43 -19.76)"/></svg>