<svg id="Ebene_1" data-name="Ebene 1" xmlns="http://www.w3.org/2000/svg" viewBox="0 0 168.74 72.26"><defs><style>.cls-1{fill:#1a1a18;}.cls-2{fill:#cfd0d0;}.cls-3{fill:#fff;}.cls-4{fill:#e3000f;}</style></defs><title>sac_logo_cmyk_i_pos</title><path class="cls-1" d="M398.88,46.14a5.66,5.66,0,0,1-1.51.2,2.62,2.62,0,0,1-2.92-2.61c0-1.77,1.24-2.65,2.91-2.65a5.3,5.3,0,0,1,1.51.26l-.11,1.1a2.65,2.65,0,0,0-1.32-.36,1.62,1.62,0,1,0,.11,3.25,3.55,3.55,0,0,0,1.27-.26Z" transform="translate(-394.45 -19.56)"/><path class="cls-1" d="M399.77,40.8h1.31v5.46h-1.31Z" transform="translate(-394.45 -19.56)"/><path class="cls-1" d="M406.27,46.25h-1.19v-.7h0a1.44,1.44,0,0,1-1.38.79,1.37,1.37,0,0,1-1.45-1.52V42.46h1.31V44.3c0,.71.25,1,.6,1,.54,0,.82-.37.82-1.19v-1.6h1.31Z" transform="translate(-394.45 -19.56)"/><path class="cls-1" d="M407.25,40.8h1.32V43h0a1.55,1.55,0,0,1,1.3-.58,1.77,1.77,0,0,1,1.62,1.91c0,1.12-.6,2.05-1.73,2.05a1.4,1.4,0,0,1-1.3-.76h0v.68h-1.21Zm2.11,2.58c-.48,0-.8.42-.8,1a.89.89,0,0,0,.8,1c.5,0,.79-.42.79-1A.84.84,0,0,0,409.36,43.38Z" transform="translate(-394.45 -19.56)"/><path class="cls-1" d="M416.31,41.17H418l2,5.08h-1.48l-.38-1.08h-1.91l-.4,1.08h-1.38Zm.83,1h0l-.66,2h1.27Z" transform="translate(-394.45 -19.56)"/><path class="cls-1" d="M420.74,40.8H422v5.46h-1.31Z" transform="translate(-394.45 -19.56)"/><path class="cls-1" d="M423.17,42.46h1.21v.68h0a1.5,1.5,0,0,1,1.41-.77,1.77,1.77,0,0,1,1.62,1.91c0,1.12-.6,2.05-1.73,2.05a1.31,1.31,0,0,1-1.2-.62h0v2.06h-1.31Zm2.11.92c-.48,0-.8.42-.8,1a.89.89,0,0,0,.8,1c.49,0,.79-.42.79-1A.84.84,0,0,0,425.28,43.38Z" transform="translate(-394.45 -19.56)"/><path class="cls-1" d="M429.71,41.84H428.4v-1h1.31Zm-1.31.62h1.31v3.79H428.4Z" transform="translate(-394.45 -19.56)"/><path class="cls-1" d="M430.86,42.46h1.19v.7h0a1.44,1.44,0,0,1,1.38-.79,1.37,1.37,0,0,1,1.45,1.51v2.37h-1.31V44.42c0-.71-.25-1-.6-1-.54,0-.81.37-.81,1.19v1.6h-1.31Z" transform="translate(-394.45 -19.56)"/><path class="cls-1" d="M435.72,44.36a2.22,2.22,0,1,1,2.2,2A2,2,0,0,1,435.72,44.36Zm3.05,0c0-.57-.25-1.07-.85-1.07s-.85.5-.85,1.07.25,1.06.85,1.06S438.78,44.92,438.78,44.36Z" transform="translate(-394.45 -19.56)"/><path class="cls-1" d="M443.44,45a3,3,0,0,0,1.4.34c.43,0,.84-.09.84-.5,0-.95-2.4-.35-2.4-2.2,0-1.22,1.19-1.56,2.21-1.56a4.32,4.32,0,0,1,1.31.19l-.09,1a2.72,2.72,0,0,0-1.13-.23c-.34,0-.91,0-.91.47,0,.82,2.4.27,2.4,2.1,0,1.32-1.11,1.68-2.23,1.68a5.33,5.33,0,0,1-1.51-.22Z" transform="translate(-394.45 -19.56)"/><path class="cls-1" d="M447.66,42.46h1.4l.79,2.7h0l.79-2.7H452l-1.41,3.79h-1.49Z" transform="translate(-394.45 -19.56)"/><path class="cls-1" d="M454.09,41.84h-1.31v-1h1.31Zm-1.31.62h1.31v3.79h-1.31Z" transform="translate(-394.45 -19.56)"/><path class="cls-1" d="M455,45.21l1.73-1.78h-1.7v-1h3.2v1l-1.73,1.78h1.76v1H455Z" transform="translate(-394.45 -19.56)"/><path class="cls-1" d="M458.85,45.21l1.73-1.78h-1.7v-1h3.19v1l-1.73,1.78h1.76v1h-3.26Z" transform="translate(-394.45 -19.56)"/><path class="cls-1" d="M464,44.74c.07.52.47.73,1.11.73a2.46,2.46,0,0,0,1.16-.29v.92a3.77,3.77,0,0,1-1.39.24,2,2,0,0,1-2.21-2,1.88,1.88,0,0,1,2-2c1.4,0,1.92,1,1.92,2.13v.24Zm1.44-.74a.7.7,0,0,0-.73-.79c-.47,0-.7.36-.73.79Z" transform="translate(-394.45 -19.56)"/><path class="cls-1" d="M470.23,43.51a1.5,1.5,0,0,0-.44,0c-.61,0-1,.44-1,1.19v1.6h-1.31V42.46h1.19v.7h0a1.17,1.17,0,0,1,1.12-.79,2.89,2.89,0,0,1,.44,0Z" transform="translate(-394.45 -19.56)"/><path class="cls-1" d="M470.63,44.36a2.22,2.22,0,1,1,2.2,2A2,2,0,0,1,470.63,44.36Zm3.06,0c0-.57-.25-1.07-.85-1.07s-.85.5-.85,1.07.25,1.06.85,1.06S473.69,44.92,473.69,44.36Z" transform="translate(-394.45 -19.56)"/><path class="cls-1" d="M482.57,46.14a5.63,5.63,0,0,1-1.51.2,2.62,2.62,0,0,1-2.92-2.61c0-1.77,1.24-2.65,2.91-2.65a5.31,5.31,0,0,1,1.51.26l-.11,1.1a2.66,2.66,0,0,0-1.33-.36,1.62,1.62,0,1,0,.11,3.25,3.56,3.56,0,0,0,1.27-.26Z" transform="translate(-394.45 -19.56)"/><path class="cls-1" d="M484.89,41.17h1.66l2,5.08H487l-.38-1.08h-1.91l-.4,1.08H483Zm.83,1h0l-.66,2h1.27Z" transform="translate(-394.45 -19.56)"/><path class="cls-1" d="M489.24,45a3,3,0,0,0,1.4.34c.43,0,.84-.09.84-.5,0-.95-2.4-.35-2.4-2.2,0-1.22,1.19-1.56,2.21-1.56a4.35,4.35,0,0,1,1.31.19l-.09,1a2.73,2.73,0,0,0-1.13-.23c-.34,0-.91,0-.91.47,0,.82,2.4.27,2.4,2.1,0,1.32-1.11,1.68-2.23,1.68a5.32,5.32,0,0,1-1.51-.22Z" transform="translate(-394.45 -19.56)"/><path class="cls-1" d="M437,51.11a2,2,0,0,0-1-.28,2,2,0,0,0,0,4,2.5,2.5,0,0,0,1.11-.25l0,.71a3.17,3.17,0,0,1-1.16.18,2.5,2.5,0,0,1-2.68-2.65,2.53,2.53,0,0,1,2.69-2.61,2.78,2.78,0,0,1,1.14.22Z" transform="translate(-394.45 -19.56)"/><path class="cls-1" d="M438.12,49.9h.68v5.46h-.68Z" transform="translate(-394.45 -19.56)"/><path class="cls-1" d="M443.52,55.36h-.66v-.59h0a1.34,1.34,0,0,1-1.21.68c-1,0-1.39-.6-1.39-1.59v-2.2h.68v1.92c0,.87.19,1.29.79,1.32.78,0,1.13-.63,1.13-1.53V51.65h.68Z" transform="translate(-394.45 -19.56)"/><path class="cls-1" d="M444.87,49.9h.68v2.26h0a1.33,1.33,0,0,1,1.23-.6c1.08,0,1.6.88,1.6,1.88s-.47,2-1.59,2a1.49,1.49,0,0,1-1.26-.61h0v.52h-.66Zm1.78,2.21c-.74,0-1.1.71-1.1,1.4s.32,1.38,1.09,1.38,1-.82,1-1.4S447.4,52.11,446.66,52.11Z" transform="translate(-394.45 -19.56)"/><path class="cls-1" d="M453.39,50.28h.76l2.15,5.08h-.79L455,54.08H452.5L452,55.36h-.77Zm.36.68-1,2.52h2Z" transform="translate(-394.45 -19.56)"/><path class="cls-1" d="M457.24,49.9h.68v5.46h-.68Z" transform="translate(-394.45 -19.56)"/><path class="cls-1" d="M459.36,51.65H460v.52h0a1.48,1.48,0,0,1,1.26-.61c1.08,0,1.6.88,1.6,1.88s-.47,2-1.59,2a1.33,1.33,0,0,1-1.24-.6h0v2h-.68Zm1.78.46c-.74,0-1.1.71-1.1,1.4s.32,1.38,1.09,1.38,1-.82,1-1.4S461.89,52.11,461.14,52.11Z" transform="translate(-394.45 -19.56)"/><path class="cls-1" d="M464.81,50.82H464V50h.77Zm-.73.83h.68v3.71h-.68Z" transform="translate(-394.45 -19.56)"/><path class="cls-1" d="M466.2,51.65h.66v.59h0a1.33,1.33,0,0,1,1.21-.68c1,0,1.39.6,1.39,1.59v2.21h-.68V53.44c0-.87-.19-1.29-.79-1.32-.78,0-1.13.63-1.13,1.53v1.72h-.68Z" transform="translate(-394.45 -19.56)"/><path class="cls-1" d="M475.42,51a2.24,2.24,0,0,0-1-.21c-.41,0-.89.15-.89.68,0,1,2.18.75,2.18,2.42,0,1.08-.84,1.52-1.86,1.52a3.43,3.43,0,0,1-1-.21l.07-.68a3.08,3.08,0,0,0,1.06.25.91.91,0,0,0,1-.83c0-1.14-2.18-.82-2.18-2.4,0-.9.71-1.38,1.63-1.38a3.41,3.41,0,0,1,1.08.18Z" transform="translate(-394.45 -19.56)"/><path class="cls-1" d="M480.15,55.36h-.66v-.59h0a1.34,1.34,0,0,1-1.22.68c-1,0-1.39-.6-1.39-1.59v-2.2h.69v1.92c0,.87.19,1.29.79,1.32.78,0,1.13-.63,1.13-1.53V51.65h.68Z" transform="translate(-394.45 -19.56)"/><path class="cls-1" d="M482.32,50.82h-.77V50h.77Zm-.73.83h.68v3.71h-.68Z" transform="translate(-394.45 -19.56)"/><path class="cls-1" d="M483.43,54.63a1.84,1.84,0,0,0,.85.26c.31,0,.7-.13.7-.53,0-.68-1.61-.62-1.61-1.66,0-.77.57-1.14,1.31-1.14a2.83,2.83,0,0,1,.85.15l-.06.6a2,2,0,0,0-.72-.19c-.35,0-.66.15-.66.45,0,.76,1.61.54,1.61,1.73a1.17,1.17,0,0,1-1.3,1.16,2.14,2.14,0,0,1-1-.2Z" transform="translate(-394.45 -19.56)"/><path class="cls-1" d="M486.45,54.63a1.83,1.83,0,0,0,.85.26c.31,0,.7-.13.7-.53,0-.68-1.61-.62-1.61-1.66,0-.77.57-1.14,1.31-1.14a2.85,2.85,0,0,1,.85.15l-.06.6a2,2,0,0,0-.72-.19c-.35,0-.66.15-.66.45,0,.76,1.61.54,1.61,1.73a1.17,1.17,0,0,1-1.29,1.16,2.14,2.14,0,0,1-1-.2Z" transform="translate(-394.45 -19.56)"/><path class="cls-1" d="M492.58,55.21a2.83,2.83,0,0,1-1.17.24,1.78,1.78,0,0,1-1.92-2,1.72,1.72,0,0,1,1.74-1.88c1.24,0,1.64.9,1.64,2.1h-2.65a1.21,1.21,0,0,0,1.22,1.24,2.21,2.21,0,0,0,1.14-.37Zm-.44-2.06a.94.94,0,0,0-.92-1,1,1,0,0,0-1,1Z" transform="translate(-394.45 -19.56)"/><path class="cls-1" d="M418.64,60.14a2.24,2.24,0,0,0-1-.21c-.41,0-.89.15-.89.68,0,1,2.18.75,2.18,2.42,0,1.09-.84,1.52-1.86,1.52a3.43,3.43,0,0,1-1-.21l.07-.68a3.07,3.07,0,0,0,1.05.25.91.91,0,0,0,1-.83c0-1.14-2.18-.82-2.18-2.4,0-.9.71-1.38,1.63-1.38a3.39,3.39,0,0,1,1.08.18Z" transform="translate(-394.45 -19.56)"/><path class="cls-1" d="M422.45,61.37a2,2,0,0,0-.74-.16,1.27,1.27,0,0,0-1.19,1.39A1.26,1.26,0,0,0,421.75,64a1.43,1.43,0,0,0,.73-.21l.05.61a2.11,2.11,0,0,1-.86.15,1.88,1.88,0,0,1-1.89-1.94,1.83,1.83,0,0,1,1.89-1.94,2.59,2.59,0,0,1,.83.15Z" transform="translate(-394.45 -19.56)"/><path class="cls-1" d="M423.51,59h.68v2.28h0a1.36,1.36,0,0,1,1.19-.62c1,0,1.39.6,1.39,1.59v2.21h-.68V62.54c0-.87-.19-1.29-.79-1.32-.78,0-1.13.63-1.13,1.53v1.72h-.68Z" transform="translate(-394.45 -19.56)"/><path class="cls-1" d="M432.34,64.46h-.79l-1-3.12h0l-.94,3.12h-.79l-1.19-3.71h.75l.85,3.07h0l.95-3.07H431l.93,3.07h0l.9-3.07h.67Z" transform="translate(-394.45 -19.56)"/><path class="cls-1" d="M437.24,64.31a2.83,2.83,0,0,1-1.17.24,1.78,1.78,0,0,1-1.92-2,1.72,1.72,0,0,1,1.74-1.88c1.24,0,1.64.9,1.64,2.1h-2.65A1.21,1.21,0,0,0,436.09,64a2.2,2.2,0,0,0,1.14-.37Zm-.44-2.06a.94.94,0,0,0-.92-1,1,1,0,0,0-1,1Z" transform="translate(-394.45 -19.56)"/><path class="cls-1" d="M439.44,59.92h-.77v-.77h.77Zm-.73.83h.68v3.71h-.68Z" transform="translate(-394.45 -19.56)"/><path class="cls-1" d="M440.56,63.86l2.14-2.56h-2v-.55h2.83v.6l-2.14,2.56h2.22v.55h-3Z" transform="translate(-394.45 -19.56)"/><path class="cls-1" d="M447.5,64.31a2.81,2.81,0,0,1-1.17.24,1.78,1.78,0,0,1-1.92-2,1.72,1.72,0,0,1,1.74-1.88c1.24,0,1.64.9,1.64,2.1h-2.65A1.21,1.21,0,0,0,446.36,64a2.19,2.19,0,0,0,1.14-.37Zm-.44-2.06a.94.94,0,0,0-.92-1,1,1,0,0,0-1,1Z" transform="translate(-394.45 -19.56)"/><path class="cls-1" d="M448.89,60.75h.64v.57h0a1.13,1.13,0,0,1,1-.66,2,2,0,0,1,.45.05v.61a1,1,0,0,0-.38-.07c-.61,0-1,.58-1,1.52v1.69h-.68Z" transform="translate(-394.45 -19.56)"/><path class="cls-1" d="M455.78,59.38h.76l2.15,5.08h-.79l-.52-1.28H454.9l-.52,1.28h-.76Zm.36.68-1,2.52h2Z" transform="translate(-394.45 -19.56)"/><path class="cls-1" d="M459.64,59h.68v5.46h-.68Z" transform="translate(-394.45 -19.56)"/><path class="cls-1" d="M461.76,60.75h.66v.52h0a1.48,1.48,0,0,1,1.26-.61c1.08,0,1.6.88,1.6,1.88s-.47,2-1.59,2a1.33,1.33,0,0,1-1.24-.6h0v2h-.68Zm1.78.47c-.74,0-1.1.71-1.1,1.4s.32,1.38,1.09,1.38,1-.82,1-1.4S464.28,61.21,463.54,61.21Z" transform="translate(-394.45 -19.56)"/><path class="cls-1" d="M469.24,64.31a2.83,2.83,0,0,1-1.17.24,1.78,1.78,0,0,1-1.92-2,1.72,1.72,0,0,1,1.74-1.88c1.24,0,1.64.9,1.64,2.1h-2.65A1.21,1.21,0,0,0,468.09,64a2.2,2.2,0,0,0,1.14-.37Zm-.44-2.06a.94.94,0,0,0-.93-1,1,1,0,0,0-1,1Z" transform="translate(-394.45 -19.56)"/><path class="cls-1" d="M470.62,60.75h.66v.59h0a1.33,1.33,0,0,1,1.21-.68c1,0,1.39.6,1.39,1.59v2.21h-.68V62.54c0-.87-.19-1.29-.79-1.32-.78,0-1.13.63-1.13,1.53v1.72h-.68Z" transform="translate(-394.45 -19.56)"/><path class="cls-1" d="M475,62.23h1.87v.55H475Z" transform="translate(-394.45 -19.56)"/><path class="cls-1" d="M481.44,60.22a2,2,0,0,0-1-.28,2,2,0,0,0,0,4,2.5,2.5,0,0,0,1.11-.25l0,.71a3.16,3.16,0,0,1-1.16.18,2.5,2.5,0,0,1-2.68-2.65,2.53,2.53,0,0,1,2.69-2.61,2.8,2.8,0,0,1,1.14.22Z" transform="translate(-394.45 -19.56)"/><path class="cls-1" d="M482.59,59h.68v5.46h-.68Z" transform="translate(-394.45 -19.56)"/><path class="cls-1" d="M488,64.46h-.66v-.59h0a1.34,1.34,0,0,1-1.22.68c-1,0-1.39-.6-1.39-1.6v-2.2h.68v1.92c0,.87.19,1.29.79,1.33.78,0,1.13-.63,1.13-1.53V60.75H488Z" transform="translate(-394.45 -19.56)"/><path class="cls-1" d="M489.34,59H490v2.26h0a1.33,1.33,0,0,1,1.23-.6c1.08,0,1.6.88,1.6,1.88s-.47,2-1.59,2a1.49,1.49,0,0,1-1.27-.61h0v.52h-.65Zm1.78,2.21c-.74,0-1.1.71-1.1,1.4s.32,1.38,1.09,1.38,1-.82,1-1.4S491.86,61.21,491.12,61.21Z" transform="translate(-394.45 -19.56)"/><path class="cls-1" d="M433.15,69.32a2,2,0,0,0-1-.28,2,2,0,0,0,0,4,2.51,2.51,0,0,0,1.11-.25l0,.71a3.2,3.2,0,0,1-1.16.18A2.5,2.5,0,0,1,429.38,71a2.53,2.53,0,0,1,2.68-2.61,2.83,2.83,0,0,1,1.14.22Z" transform="translate(-394.45 -19.56)"/><path class="cls-1" d="M434.29,68.1H435v5.46h-.68Z" transform="translate(-394.45 -19.56)"/><path class="cls-1" d="M439.7,73.56H439V73h0a1.33,1.33,0,0,1-1.21.68c-1,0-1.39-.6-1.39-1.6v-2.2h.68v1.92c0,.87.19,1.29.79,1.32.78,0,1.13-.63,1.13-1.53V69.85h.69Z" transform="translate(-394.45 -19.56)"/><path class="cls-1" d="M441,68.1h.68v2.26h0a1.32,1.32,0,0,1,1.23-.6c1.08,0,1.6.88,1.6,1.88s-.47,2-1.59,2a1.5,1.5,0,0,1-1.27-.61h0v.52H441Zm1.78,2.21c-.74,0-1.1.71-1.1,1.4s.32,1.38,1.09,1.38,1-.82,1-1.4S443.57,70.32,442.83,70.32Z" transform="translate(-394.45 -19.56)"/><path class="cls-1" d="M449.56,68.48h.76l2.15,5.08h-.79l-.52-1.28h-2.49l-.52,1.28h-.76Zm.36.68-1,2.52h2Z" transform="translate(-394.45 -19.56)"/><path class="cls-1" d="M453.42,68.1h.69v5.46h-.69Z" transform="translate(-394.45 -19.56)"/><path class="cls-1" d="M455.54,69.85h.65v.52h0a1.49,1.49,0,0,1,1.26-.61c1.08,0,1.6.88,1.6,1.88s-.47,2-1.59,2a1.33,1.33,0,0,1-1.24-.6h0v2h-.68Zm1.78.47c-.74,0-1.1.71-1.1,1.4s.32,1.38,1.09,1.38,1-.82,1-1.4S458.06,70.32,457.32,70.32Z" transform="translate(-394.45 -19.56)"/><path class="cls-1" d="M461,69h-.77v-.77H461Zm-.73.83h.68v3.71h-.68Z" transform="translate(-394.45 -19.56)"/><path class="cls-1" d="M462.38,69.85H463v.59h0a1.34,1.34,0,0,1,1.22-.68c1,0,1.39.6,1.39,1.59v2.21H465V71.64c0-.87-.19-1.29-.79-1.32-.78,0-1.13.63-1.13,1.53v1.72h-.68Z" transform="translate(-394.45 -19.56)"/><path class="cls-1" d="M471.59,69.25a2.24,2.24,0,0,0-1-.21c-.41,0-.89.15-.89.68,0,1,2.18.75,2.18,2.42,0,1.08-.84,1.52-1.86,1.52a3.44,3.44,0,0,1-1-.21l.07-.68a3.08,3.08,0,0,0,1.06.25.91.91,0,0,0,1-.83c0-1.14-2.18-.82-2.18-2.4,0-.9.71-1.38,1.63-1.38a3.43,3.43,0,0,1,1.08.18Z" transform="translate(-394.45 -19.56)"/><path class="cls-1" d="M474.69,73.56h-.81l-1.33-3.71h.75l1,3h0l1-3H476Z" transform="translate(-394.45 -19.56)"/><path class="cls-1" d="M477.68,69h-.77v-.77h.77Zm-.73.83h.68v3.71H477Z" transform="translate(-394.45 -19.56)"/><path class="cls-1" d="M478.8,73l2.14-2.56h-2v-.55h2.83v.6L479.6,73h2.22v.55h-3Z" transform="translate(-394.45 -19.56)"/><path class="cls-1" d="M482.63,73l2.14-2.56h-2v-.55h2.83v.6L483.42,73h2.22v.55h-3Z" transform="translate(-394.45 -19.56)"/><path class="cls-1" d="M489.57,73.41a2.82,2.82,0,0,1-1.17.24,1.78,1.78,0,0,1-1.92-2,1.73,1.73,0,0,1,1.74-1.88c1.24,0,1.64.9,1.64,2.1H487.2a1.21,1.21,0,0,0,1.22,1.24,2.19,2.19,0,0,0,1.14-.37Zm-.44-2.06a.94.94,0,0,0-.92-1,1,1,0,0,0-1,1Z" transform="translate(-394.45 -19.56)"/><path class="cls-1" d="M491,69.85h.64v.57h0a1.13,1.13,0,0,1,1-.66,2,2,0,0,1,.45.05v.61a1,1,0,0,0-.38-.07c-.61,0-1,.58-1,1.51v1.69H491Z" transform="translate(-394.45 -19.56)"/><path class="cls-2" d="M563.2,58.22a4.34,4.34,0,0,0-1.39-3,25.56,25.56,0,0,0-4.49-3.55l.12-.12a2.37,2.37,0,0,0,.67-1.71,4,4,0,0,0-.85-2.34,30.21,30.21,0,0,0-4.62-4.92l2-3a1.06,1.06,0,0,0,.18-.59,1.07,1.07,0,0,0-.1-.43l1.7-3.25a1.07,1.07,0,0,0-.35-1.37,1.07,1.07,0,0,0-1.41.19L552.29,37a1.06,1.06,0,0,0-.9.47l-1.9,2.82a30.51,30.51,0,0,0-9.55-4.16,11.8,11.8,0,0,0-2.76-1.55c-.11-.36-.22-.7-.34-1a3.77,3.77,0,0,1,.51-.61,5.63,5.63,0,0,0,1.83-4.12,3.54,3.54,0,0,0-1.25-2.89l-.21-.15a1.06,1.06,0,0,0-1.58.34l-.12.23a8.19,8.19,0,0,1-2.46,3l-.37-.17-.32-.15c-.05-.58-.09-1.16-.09-1.71a8.37,8.37,0,0,1,.56-3.52c.21-.38.4-.47.43-.48s.2.1.38.46l0,.07a1.27,1.27,0,0,0,2.37-.65,1.17,1.17,0,0,0-.05-.36l0-.07a3.53,3.53,0,0,0-1.75-2,2.9,2.9,0,0,0-2.38.07,3.22,3.22,0,0,0-1,.65,2.61,2.61,0,0,0-1.73-.76,2,2,0,0,0-1.7,1,4,4,0,0,0-.52,2.35,15.74,15.74,0,0,0,.14,1.86,1.06,1.06,0,0,0-.82.32,3.12,3.12,0,0,0-.82,2.19,3.62,3.62,0,0,0,0,.42,4.09,4.09,0,0,0,.82,2,3,3,0,0,0-.88,1.45l-3.63,2.15A2.66,2.66,0,0,0,521,36.48l0,.4a4,4,0,0,0,.07.72,30.68,30.68,0,0,0-5,2.65,17.75,17.75,0,0,1-2-4.25,1.06,1.06,0,0,0-.84-.73,3.49,3.49,0,0,0-4,2.67,1,1,0,0,0,0,.24,1.06,1.06,0,0,0,.38.82,17.82,17.82,0,0,1,3.3,3.63,30.24,30.24,0,0,0-4.6,4.91,4,4,0,0,0-.85,2.35,2.37,2.37,0,0,0,.67,1.71l.12.12a25.55,25.55,0,0,0-4.49,3.55,4.33,4.33,0,0,0-1.39,3,2.37,2.37,0,0,0,.68,1.72l4,4a10.8,10.8,0,0,0-1.4,4.85h0a1.3,1.3,0,0,0,2.52.5l0,.06a3.25,3.25,0,0,1,1-1.32c0,.51-.07,1-.07,1.4a8.24,8.24,0,0,0,1.22,4.52,1.28,1.28,0,0,0,1.17.74,1.31,1.31,0,0,0,1.31-1.3c0-2.43,1.64-4.89,3.14-6.67a41.69,41.69,0,0,0,3.76,11.61,27,27,0,0,0,2,3.22l-.61.9a1,1,0,0,0-.16.42.44.44,0,0,1-.24.08c-.53,0-1.61-.7-3.06-2.67a12.2,12.2,0,0,1-1.83-5.5,1.06,1.06,0,0,0-2.11-.1c-.58,3.5,1.05,9.11,4.77,12.43a16.36,16.36,0,0,0,9.2,4.27,1.07,1.07,0,0,0,1.18-1.06.8.8,0,0,0,0-.11l-.08-.82a1.07,1.07,0,0,0-.82-.93,10.35,10.35,0,0,1-3.6-1.63c-.51-.42-.77-.64-.77-1a1.84,1.84,0,0,1,.36-.87,1,1,0,0,0,.44-.36,18,18,0,0,0,8.17,4.51h.05a1.07,1.07,0,0,0,.52,0h.05A18,18,0,0,0,540.81,85c.08,0,.17,0,.25,0l.45-.06,2.17,3.21a1.07,1.07,0,0,0,.9.47l2.39,2.8a1.07,1.07,0,0,0,1.87-.69,1,1,0,0,0-.12-.49L547,87a1,1,0,0,0-.09-1l-1.46-2.14c1-1.15,2.51-4,3-12.11a51.41,51.41,0,0,0,1.19-5.05c1.51,1.79,3.12,4.26,3.14,6.71a1.22,1.22,0,0,0,0,.17,1.31,1.31,0,0,0,2.43.44,8.22,8.22,0,0,0,1.27-4.61c0-.42,0-.89-.07-1.4a3.23,3.23,0,0,1,1,1.32,1.31,1.31,0,0,0,2.5-.56,10.92,10.92,0,0,0-1.41-4.84l4-4A2.37,2.37,0,0,0,563.2,58.22Z" transform="translate(-394.45 -19.56)"/><path class="cls-3" d="M562.32,57.35a4.33,4.33,0,0,0-1.39-3,25.58,25.58,0,0,0-4.49-3.55l.12-.12a2.37,2.37,0,0,0,.67-1.71,4,4,0,0,0-.85-2.35,30.29,30.29,0,0,0-4.62-4.92l2-3a1.07,1.07,0,0,0,.18-.6,1,1,0,0,0-.1-.43l1.71-3.25a1,1,0,0,0,.12-.49,1.06,1.06,0,0,0-1.87-.69l-2.39,2.8a1.06,1.06,0,0,0-.9.47l-1.9,2.82A30.52,30.52,0,0,0,539,35.23a11.8,11.8,0,0,0-2.76-1.55c-.11-.36-.22-.7-.34-1a3.93,3.93,0,0,1,.5-.61,5.63,5.63,0,0,0,1.83-4.12A3.54,3.54,0,0,0,537,25l-.2-.15a1.06,1.06,0,0,0-1.58.34l-.12.23a8.2,8.2,0,0,1-2.46,3l-.37-.17-.32-.15c-.05-.58-.09-1.16-.09-1.71a8.37,8.37,0,0,1,.56-3.52c.21-.38.39-.47.43-.48s.2.1.38.46l0,.07a1.27,1.27,0,0,0,2.37-.65,1.16,1.16,0,0,0-.05-.36l0-.07a3.53,3.53,0,0,0-1.75-2,2.9,2.9,0,0,0-2.37.07,3.19,3.19,0,0,0-1,.65,2.62,2.62,0,0,0-1.73-.76,2,2,0,0,0-1.71,1,4.06,4.06,0,0,0-.52,2.35,15.59,15.59,0,0,0,.14,1.86,1.06,1.06,0,0,0-.82.32,3.12,3.12,0,0,0-.82,2.19,4.14,4.14,0,0,0,0,.42,4.08,4.08,0,0,0,.83,2,3,3,0,0,0-.88,1.44l-3.63,2.15a2.66,2.66,0,0,0-1.23,2.11l0,.4a3.94,3.94,0,0,0,.07.72,31,31,0,0,0-5,2.65,17.93,17.93,0,0,1-2-4.25,1.06,1.06,0,0,0-.84-.73,3.49,3.49,0,0,0-4,2.67,1.08,1.08,0,0,0,0,.24,1.06,1.06,0,0,0,.38.82,17.89,17.89,0,0,1,3.3,3.63,30.32,30.32,0,0,0-4.6,4.91,4,4,0,0,0-.85,2.35,2.37,2.37,0,0,0,.67,1.71l.12.12a25.63,25.63,0,0,0-4.49,3.55,4.33,4.33,0,0,0-1.39,3,2.37,2.37,0,0,0,.68,1.72l4,4a10.83,10.83,0,0,0-1.4,4.85h0a1.3,1.3,0,0,0,2.52.5l0,.06a3.26,3.26,0,0,1,1-1.32c0,.51-.07,1-.07,1.4A8.25,8.25,0,0,0,509.4,73a1.28,1.28,0,0,0,1.18.74,1.31,1.31,0,0,0,1.31-1.3c0-2.43,1.64-4.89,3.14-6.67a41.67,41.67,0,0,0,3.77,11.61,26.53,26.53,0,0,0,2,3.22l-.61.9A1,1,0,0,0,520,82a.44.44,0,0,1-.24.08c-.53,0-1.61-.7-3.06-2.67a12.23,12.23,0,0,1-1.83-5.5,1.06,1.06,0,0,0-2.11-.1c-.58,3.5,1.05,9.11,4.77,12.43a16.37,16.37,0,0,0,9.2,4.27,1.07,1.07,0,0,0,1.18-1.06s0-.07,0-.11l-.08-.82a1.07,1.07,0,0,0-.82-.93,10.36,10.36,0,0,1-3.6-1.63c-.51-.42-.77-.64-.77-1a1.82,1.82,0,0,1,.36-.87,1.05,1.05,0,0,0,.44-.36,18,18,0,0,0,8.17,4.51h.05a1.1,1.1,0,0,0,.52,0h.05a18,18,0,0,0,7.71-4.12c.08,0,.17,0,.25,0l.45-.06,2.18,3.21a1.07,1.07,0,0,0,.9.47l2.4,2.8a1.06,1.06,0,0,0,1.87-.69,1,1,0,0,0-.12-.49l-1.7-3.25a1,1,0,0,0-.09-1L544.61,83c1-1.15,2.51-4,3-12.11a51.18,51.18,0,0,0,1.19-5.05c1.51,1.79,3.12,4.26,3.14,6.71a1.11,1.11,0,0,0,0,.17,1.31,1.31,0,0,0,2.43.44,8.22,8.22,0,0,0,1.27-4.61c0-.42,0-.89-.07-1.4a3.22,3.22,0,0,1,1,1.32,1.31,1.31,0,0,0,2.5-.56A11,11,0,0,0,557.66,63l4-4A2.37,2.37,0,0,0,562.32,57.35Z" transform="translate(-394.45 -19.56)"/><path class="cls-4" d="M547.25,54.2q-.91-.41-1.82-.77c.38,2.72.94,6.2,1.17,9A77.89,77.89,0,0,0,547.25,54.2Z" transform="translate(-394.45 -19.56)"/><path class="cls-4" d="M541.4,52.11c-.56-.15-1.12-.28-1.68-.4a10.55,10.55,0,0,1-15.62,0,36.89,36.89,0,0,0-6.18,1.91l0,.1h5.63l-5.58.71a1.6,1.6,0,0,1-.05.22l9.41,6.59-9.8-6-.18.15,2.05,6.78-2.72-6.53h-.12c.76,16.82,6.15,27.37,15.29,29.87,4.35-1.19,7.85-4.2,10.4-8.85a44.6,44.6,0,0,0,1-10.63C543.3,59.58,542.57,54.38,541.4,52.11Zm.14,18.59a64.15,64.15,0,0,1-6.42.56v6.42c-1,0-2.11.07-3.2.07s-2.17,0-3.22-.07V71.26c-2.32-.1-4.49-.29-6.42-.56V64.27a64.43,64.43,0,0,0,6.42.56V58.42q1.57.06,3.22.06t3.2-.06v6.42c2.32-.09,4.49-.29,6.42-.56Z" transform="translate(-394.45 -19.56)"/><path class="cls-1" d="M550.72,45.82c-1.1,1,.54,2.09,0,2.6-.24.22-.51,0-.74-.23a2.32,2.32,0,0,1-.54-1l-.73.53a4.34,4.34,0,0,0,.67,1c.6.67,1.4,1.14,2.18.44,1.09-1-.52-2.11,0-2.54.26-.24.58.09.76.29a2.14,2.14,0,0,1,.46.79l.67-.51a3.42,3.42,0,0,0-.58-.88C552.28,45.7,551.44,45.17,550.72,45.82Z" transform="translate(-394.45 -19.56)"/><path d="M560.17,55.14a25.4,25.4,0,0,0-5.44-4.1L555.8,50c.57-.57.46-1.67-.28-2.68a29.26,29.26,0,0,0-5.18-5.36l2.54-3.76-.22-.46L554.61,34l-2.74,3.2-.49,0-2.48,3.68a29.64,29.64,0,0,0-10.3-4.64,10.71,10.71,0,0,0-3.18-1.76,19.28,19.28,0,0,0-.64-1.93,3.77,3.77,0,0,1,.91-1.24,4.62,4.62,0,0,0,1.2-1.74,4.54,4.54,0,0,0,.32-1.63,2.51,2.51,0,0,0-.83-2l-.2-.15-.12.23a9.07,9.07,0,0,1-2.94,3.44c-.37.24-.69.1-1.3-.22a8.15,8.15,0,0,0-.84-.39c-.27-2.25-.21-5.08.54-6.45s2-1.33,2.69,0h0a.21.21,0,0,0,.4-.11.18.18,0,0,0,0,0h0v-.05a2,2,0,0,0-2.7-1.33,2.94,2.94,0,0,0-1.31,1.35c-1.06-1.54-2-1.71-2.61-.86s-.43,3.24.39,6.81A5.66,5.66,0,0,1,526.64,26c-.89.93-.67,3,.87,4l-.39.32a2.12,2.12,0,0,0-1.2,1.72l-4,2.37a1.64,1.64,0,0,0-.71,1.31c0,.09,0,.19,0,.29a1.9,1.9,0,0,0,.31,1.13l0,.16v0a29.68,29.68,0,0,0-6.63,3.53l-.39-.58a19,19,0,0,1-2.34-4.83,2.42,2.42,0,0,0-2.76,1.86,18.91,18.91,0,0,1,3.6,4l.44.65a29.24,29.24,0,0,0-5.17,5.36c-.74,1-.86,2.1-.28,2.68L509.08,51a25.46,25.46,0,0,0-5.44,4.1c-1.09,1.09-1.4,2.48-.71,3.16l4.53,4.54a10.27,10.27,0,0,0-1.64,5.06.24.24,0,0,0,.24.25.24.24,0,0,0,.22-.16c.49-1,.94-1.67,3.32-3a22.62,22.62,0,0,0-.37,3.57,7.17,7.17,0,0,0,1.12,4.07.22.22,0,0,0,.21.13.24.24,0,0,0,.25-.24c0-3.6,3-7.13,4.82-8.91l.07-.09a42.79,42.79,0,0,0,4,13.44,25,25,0,0,0,2.33,3.7l-1,1.5.08.18c-1.32,1.83-3.4.24-5.28-2.31a13.21,13.21,0,0,1-2-6.06c-.5,3.05,1,8.36,4.43,11.46a15.44,15.44,0,0,0,8.6,4l-.08-.82a11.38,11.38,0,0,1-4-1.84c-1.42-1.17-1.54-1.88-.38-3.62h.2l.73-1.08a17.07,17.07,0,0,0,8.58,5.15h.1A16.92,16.92,0,0,0,539.61,83a2,2,0,0,0,.57.09,2,2,0,0,0,.48-.06,2.07,2.07,0,0,0,.48.06h.09l2.46,3.63.49,0,2.73,3.19L545,86.18l.22-.46-2-2.94c2.29-1.45,3.09-7.44,3.36-12.09a52.36,52.36,0,0,0,1.55-7.2l.07.09C550,65.36,553,68.9,553,72.51a.25.25,0,0,0,.24.21.25.25,0,0,0,.21-.12,7.16,7.16,0,0,0,1.13-4.08,22.6,22.6,0,0,0-.37-3.57c2.38,1.37,2.83,2,3.32,3a.25.25,0,0,0,.23.14.25.25,0,0,0,.25-.25,10.41,10.41,0,0,0-1.65-5l4.53-4.54C561.57,57.62,561.26,56.23,560.17,55.14ZM539.55,36.9a29.12,29.12,0,0,1,15.62,10.66c.6.81.74,1.7.33,2.1l0,0a1.61,1.61,0,0,0,0-.23,2.69,2.69,0,0,0-.53-1.43h0a0,0,0,0,0-.07,0,.05.05,0,0,0,0,.07c.32.55.59,1.54.2,2l-.12.11a1.5,1.5,0,0,0,0-.23,2.67,2.67,0,0,0-.53-1.43h0a.05.05,0,0,0-.09.06c.32.55.59,1.54.2,2l-.11.11a1.5,1.5,0,0,0,0-.23,2.69,2.69,0,0,0-.53-1.43h0a.05.05,0,0,0-.07,0,.05.05,0,0,0,0,.07c.32.55.59,1.54.2,2l-.11.11a1.4,1.4,0,0,0,0-.23,2.67,2.67,0,0,0-.53-1.43h0a0,0,0,0,0-.07,0,.05.05,0,0,0,0,.07c.32.55.59,1.54.2,2l-.11.11a1.49,1.49,0,0,0,0-.23,2.69,2.69,0,0,0-.53-1.43h0a.05.05,0,0,0-.07,0,0,0,0,0,0,0,.07c.32.55.59,1.54.2,2l-.11.11a1.52,1.52,0,0,0,0-.23,2.66,2.66,0,0,0-.53-1.43h0a.05.05,0,0,0-.09.05c.32.55.59,1.54.2,2l-.11.11a1.62,1.62,0,0,0,0-.23,2.69,2.69,0,0,0-.53-1.43h0a0,0,0,0,0-.07,0,0,0,0,0,0,0,.07c.32.55.59,1.55.2,2l-.11.11a1.53,1.53,0,0,0,0-.23,2.66,2.66,0,0,0-.53-1.43h0a.05.05,0,0,0-.07,0,.05.05,0,0,0,0,.07c.32.55.59,1.55.2,2h0a2.83,2.83,0,0,0-.5-1.51,23,23,0,0,0-8.28-7.53l-.05,0a10.69,10.69,0,0,0-.09-1.32,2.88,2.88,0,0,0,1,.8,4.47,4.47,0,0,0,1.14.42l.35-.77a2.86,2.86,0,0,1-1-.29,1.29,1.29,0,1,1,1.14-2.33,2.13,2.13,0,0,1,.8.75l.49-.73a4.2,4.2,0,0,0-1-.75,2.05,2.05,0,0,0-3,.78,2.51,2.51,0,0,0-.21.52,10.73,10.73,0,0,0-2.93-4.84Zm8.35,15.42,1.1.63a4.18,4.18,0,0,0,2.06.84,1,1,0,0,1,0,.17,2.61,2.61,0,0,1-2.14-.49s0-.1,0-.15v-.14l-.13-.06a39,39,0,0,0-3.61-1.52l2.65-2.65a22.52,22.52,0,0,1,2.47,2.93l-.05,0a10.24,10.24,0,0,0-1.27-.63h0a.05.05,0,0,0,0,.09l1.09.63.52.3.11.16a3.06,3.06,0,0,1,.28.53,7.43,7.43,0,0,1-1.19-.57,10.66,10.66,0,0,0-1.27-.63h0a0,0,0,0,0-.06,0,.05.05,0,0,0,0,.07l1.09.63a6.71,6.71,0,0,0,1.5.76,1.92,1.92,0,0,1,.06.34,4,4,0,0,1-1.85-.69,10.2,10.2,0,0,0-1.27-.63h0a.05.05,0,0,0-.06,0A.06.06,0,0,0,547.9,52.32Zm3,1.93-.05.07c-.35.35-1.06.3-1.79-.12l-.17-.1c0-.13,0-.27,0-.4A2.76,2.76,0,0,0,550.89,54.25Zm3.52,5.39a9.13,9.13,0,0,0,1.51,1.2,2.93,2.93,0,0,1,.25.57,6.15,6.15,0,0,1-2.2-1.34.05.05,0,0,0-.07,0,.05.05,0,0,0,0,.07,5.4,5.4,0,0,0,2.32,1.51,1.55,1.55,0,0,1,0,.27c-.83.13-1.65-.46-2.78-1.36a.05.05,0,0,0-.07,0,.05.05,0,0,0,0,.07c.85.78,1.8,1.65,2.81,1.54l0,.11c-1,.48-1.89-.16-3.22-1.22a.05.05,0,0,0-.06.08c.87.8,1.92,1.77,3,1.5-1,.82-2.29-.18-2.82-.66a21.15,21.15,0,0,0-2.62-1.91,2.94,2.94,0,0,0-1.76-.51L551.27,57a18.3,18.3,0,0,1,4,3,4,4,0,0,1,.36.42,14.53,14.53,0,0,1-1.19-.88.05.05,0,0,0-.07,0A.05.05,0,0,0,554.41,59.63Zm-5.8-.58c.09-1.06.16-2.15.21-3.27.72.32,1.4.65,2.05,1Zm-2.68,4.88-.23-.09c0-.22,0-.45,0-.68l.07,0c.2.07.44.16.45.26h0c0,.21,0,.41,0,.61Zm.29.68h0c0,.21,0,.41,0,.62l-.28-.12-.24-.1c0-.22,0-.45,0-.69l.07,0C546,64.43,546.22,64.51,546.23,64.62Zm-.34-1.85-.23-.09c0-.22,0-.45,0-.69l.07,0c.2.07.44.15.45.25h0c0,.21,0,.41,0,.62Zm-.06-1.16-.23-.08c0-.23,0-.46,0-.69l.07,0c.2.06.45.14.45.23h0c0,.21,0,.42,0,.63Zm-.08-1.17-.23-.08c0-.23,0-.46-.05-.69l.06,0c.19.05.45.13.46.22h0c0,.21,0,.42,0,.63Zm-.11-1.17-.22-.07c0-.23,0-.46-.07-.69l.06,0c.19,0,.46.12.47.21h0l.06.63Zm-.12-1.16L545.3,58c0-.23-.06-.47-.09-.7h.05c.21,0,.46.1.47.2h0c0,.21.05.42.08.64Zm-2.87,21c-.17-.13-.38-.29-.35-.39h0c.05-.19.1-.38.15-.59l.25.19c.16.11.38.25.37.35s-.12.43-.18.63Zm.07.68c-.08.22-.16.44-.25.64l-.23-.21c-.16-.13-.33-.28-.31-.37s.13-.38.2-.58l.25.2C542.53,79.55,542.71,79.69,542.72,79.77Zm.23-1.83c-.17-.12-.38-.26-.37-.36s.09-.4.13-.61l.27.18c.16.1.39.24.38.33s-.1.43-.15.64ZM531.15,54.7h-1l2.7-4.72h1Zm2.52,0h-1l-.5-.88.5-.87Zm-22.74,6.38a0,0,0,0,0-.07,0c-1.33,1.07-2.24,1.7-3.22,1.22a.88.88,0,0,1,0-.11c1,.11,2-.76,2.81-1.54a.05.05,0,0,0-.07-.08c-1.12.9-2,1.49-2.78,1.36a1.57,1.57,0,0,1,0-.27,5.39,5.39,0,0,0,2.32-1.51.05.05,0,0,0-.07-.08,6.16,6.16,0,0,1-2.2,1.34,2.87,2.87,0,0,1,.25-.57,9.09,9.09,0,0,0,1.51-1.2,0,0,0,0,0,0-.07.05.05,0,0,0-.07,0,13.63,13.63,0,0,1-1.19.88,3.81,3.81,0,0,1,.36-.42,18.27,18.27,0,0,1,4-3l2.56,2.56a3,3,0,0,0-1.77.51A21.44,21.44,0,0,0,510.73,62c-.53.49-1.84,1.48-2.82.67,1.09.26,2.14-.7,3-1.5A.05.05,0,0,0,510.93,61.08Zm2-4.29c.65-.35,1.34-.69,2.06-1q.08,1.68.21,3.27Zm2.1-3.67-.13.06v.14s0,.09,0,.14a2.62,2.62,0,0,1-2.14.49,1.12,1.12,0,0,1,0-.17,4.17,4.17,0,0,0,2.06-.84l1.09-.63a.05.05,0,0,0,0-.07.05.05,0,0,0-.06,0h0a10.44,10.44,0,0,0-1.27.63,3.94,3.94,0,0,1-1.85.69,1.93,1.93,0,0,1,.06-.34,6.76,6.76,0,0,0,1.5-.76l1.1-.63a.05.05,0,0,0,0-.07,0,0,0,0,0-.06,0h0a10.5,10.5,0,0,0-1.27.63,7.43,7.43,0,0,1-1.19.57,2.9,2.9,0,0,1,.28-.53l.11-.15.52-.3,1.09-.63a.05.05,0,0,0,0-.09h0a10.26,10.26,0,0,0-1.27.63l-.05,0A22.48,22.48,0,0,1,516,48.94l2.66,2.66A38.82,38.82,0,0,0,515,53.12Zm-.1,1-.17.1c-.73.43-1.44.48-1.79.12l-.05-.07a2.75,2.75,0,0,0,2-.56C514.93,53.82,514.94,54,514.94,54.09Zm1.37-5.46q.51-.49,1-.93l2.38,3.53-.61.21Zm2.46-2.05a22.43,22.43,0,0,1,2.36-1.49h0a10.72,10.72,0,0,0,1.64,5.28l-1.26.33ZM527.68,40c0,.29,0,.7-.07,1.2a2.82,2.82,0,0,1-.39.52l-.13.12-.13-.26-.12-.21-.2.12a3.33,3.33,0,0,0-.48.35,3.12,3.12,0,0,0-.25.19,3.32,3.32,0,0,0,0-.72l.08-.13a3.4,3.4,0,0,0,1.33-1.06Zm0-.48,0-.06h0s0,0,0,0Zm-1.79,8.92a2.91,2.91,0,0,1,.66,1.11,3.43,3.43,0,0,0-1.07.24,3,3,0,0,1-.54-.43,2.94,2.94,0,0,1-.81-1.8A3,3,0,0,1,525.88,48.46Zm-2-1.86a2.87,2.87,0,0,1-.31-.62,2.93,2.93,0,0,1-.15-1.28,3,3,0,0,1,.19-.68,2.94,2.94,0,0,1,1.36,2.8v0A3.43,3.43,0,0,0,523.88,46.6Zm4.19,4a3,3,0,0,1,1.49,1.28,2.9,2.9,0,0,1-3.45-1.31A3,3,0,0,1,528.06,50.65Zm-.09-.86a3.33,3.33,0,0,0-.53-.15,3,3,0,0,1-.5-1.52,2.93,2.93,0,0,1,2.46,2.71A3.4,3.4,0,0,0,528,49.79Zm-1.29-2.66-.24,0v.24a3.38,3.38,0,0,0,0,.6s0,.05,0,.08a3.26,3.26,0,0,0-.32-.39,3.53,3.53,0,0,0-.52-.43,3,3,0,0,1-.06-.78s0,0,0-.08,0-.17,0-.26a3,3,0,0,1,.28-.74A3,3,0,0,1,526.94,47c0,.06,0,.12,0,.18Zm0-7.34a2.86,2.86,0,0,1-.91.92,3.44,3.44,0,0,0-.52-1,2.9,2.9,0,0,1,.28-.62l.05-.07c.48.12.91.22,1.31.29A2.87,2.87,0,0,1,526.64,39.79Zm-.91,3.08a3.1,3.1,0,0,1,.51-.49,3,3,0,0,1,.23,1.68c0,.09,0,.18-.06.27s0,.11-.06.17l-.23-.17-.2-.13-.12.21a3.49,3.49,0,0,0-.26.54l-.08.16c0-.06,0-.12,0-.18a3.31,3.31,0,0,0-.34-.7c0-.08,0-.17.06-.25v0A3.43,3.43,0,0,0,525.74,42.87Zm-.64-.4h0a2.88,2.88,0,0,1-.42,1.23,3.42,3.42,0,0,0-.88-.68,2.84,2.84,0,0,1,0-.69h0a3,3,0,0,1,.85-1.77A3,3,0,0,1,525.09,42.46Zm-1.53-1.14a3.45,3.45,0,0,0-.45-.55,2.9,2.9,0,0,1,0-.65h0a2.92,2.92,0,0,1,.57-1.52l.42.07a2.93,2.93,0,0,1,.34,1.46A3.38,3.38,0,0,0,523.56,41.32Zm-.26,1.37a3.48,3.48,0,0,0,.05.58,3.45,3.45,0,0,0-.13.39,3.47,3.47,0,0,0-.2.63,3.5,3.5,0,0,0-.68-.43,2.91,2.91,0,0,1-.25-.61,2.82,2.82,0,0,1,.16-2A3,3,0,0,1,523.3,42.69ZM523,45.39a3.35,3.35,0,0,0,.62,1.63c0,.09,0,.18,0,.27a3.39,3.39,0,0,0-1-.28,2.86,2.86,0,0,1-.44-.5,3,3,0,0,1-.51-1.88v0A3,3,0,0,1,523,45.39Zm-.73,2.55a3,3,0,0,1,1.54.36,3.41,3.41,0,0,0,.81,1.4l.14.13a3.38,3.38,0,0,0-.83.07,2.82,2.82,0,0,1-.58-.32A3,3,0,0,1,522.24,47.94Zm3.43,2.86a3.44,3.44,0,0,0,1,1.13,3.37,3.37,0,0,0-.64.3,2.81,2.81,0,0,1-.65-.12,3,3,0,0,1-1.55-1.19A3,3,0,0,1,525.67,50.8Zm2.4,1.7a3.35,3.35,0,0,0,.7,0,3.11,3.11,0,0,1,1.25.58,2.87,2.87,0,0,1-3.67.06A3,3,0,0,1,528.07,52.49ZM530,50h1l.68,1.2-.5.88ZM535,52.54a3.32,3.32,0,0,0,.7,0,3,3,0,0,1,1.72.68,2.87,2.87,0,0,1-3.67-.05A3.11,3.11,0,0,1,535,52.54ZM545,63.94l-.24-.09c0-.22,0-.45,0-.68l.07,0c.2.07.45.16.45.26h0c0,.21,0,.41,0,.61Zm.29.68h0c0,.21,0,.41,0,.62l-.28-.12-.24-.1c0-.22,0-.45,0-.69l.07,0C545,64.43,545.27,64.51,545.27,64.62Zm-.34-1.85-.23-.09c0-.22,0-.45,0-.69l.07,0c.2.07.44.15.45.25h0c0,.21,0,.41,0,.62Zm-.05-1.16-.23-.08c0-.23,0-.46,0-.69l.07,0c.2.06.45.14.45.23h0l0,.63Zm-.08-1.17-.23-.08c0-.23,0-.46-.06-.69l.06,0c.19.05.45.13.46.22h0c0,.21,0,.42,0,.63Zm-.1-1.17-.22-.07c0-.23,0-.46-.07-.69l.06,0c.19,0,.46.12.47.21h0q0,.31.06.63Zm-.12-1.16-.22-.06c0-.23-.06-.47-.09-.7h.05c.21,0,.46.1.48.2h0c0,.21.05.42.08.64ZM544,63.94c-.21-.08-.44-.16-.45-.27h0c0-.2,0-.4,0-.59l.28.11c.2.07.45.16.45.26h0c0,.21,0,.41,0,.61Zm.29.68h0c0,.21,0,.41,0,.62l-.28-.12c-.2-.08-.45-.17-.45-.28s0-.4,0-.6l.28.12C544.08,64.43,544.31,64.51,544.32,64.62ZM544,62.77c-.2-.07-.44-.15-.45-.26h0c0-.2,0-.4,0-.6l.29.11c.2.07.45.15.45.25h0c0,.21,0,.41,0,.62Zm-.06-1.16c-.2-.07-.45-.15-.46-.26h0c0-.2,0-.4,0-.6l.29.1c.2.06.45.14.46.23h0c0,.21,0,.42,0,.63Zm-.08-1.17c-.2-.06-.46-.14-.46-.25h0c0-.2,0-.4-.05-.6l.29.09c.19.05.45.13.46.22h0c0,.21,0,.42,0,.63Zm-.5,11.93.27.15c.19.09.42.21.41.31h0l-.06.62-.28-.16c-.18-.09-.4-.21-.41-.31S543.32,72.58,543.34,72.37Zm.46-.25c-.18-.09-.41-.2-.42-.31s0-.41,0-.62l.26.13c.26.12.44.21.42.33h0c0,.21,0,.41,0,.62Zm.07-1.19c-.19-.09-.41-.19-.4-.29h0c0-.2,0-.41,0-.61l.25.11c.32.13.45.21.44.34h0c0,.2,0,.4,0,.6Zm0-1.19c-.22-.09-.39-.17-.39-.26h0c0-.2,0-.39,0-.59l.28.14c.19.08.43.19.42.28h0l0,.58A2.77,2.77,0,0,0,543.92,69.74Zm.09-1.12c-.2-.09-.44-.19-.44-.3s0-.4,0-.6l.27.12c.26.11.44.19.44.3h0c0,.2,0,.41,0,.61Zm0-1.18c-.2-.08-.42-.18-.42-.29h0c0-.2,0-.4,0-.59l.27.12c.21.08.44.17.44.29h0c0,.2,0,.4,0,.61Zm0-1.17c-.2-.08-.43-.17-.43-.28h0q0-.29,0-.59l.28.12c.2.08.44.17.44.27h0c0,.09,0,.18,0,.28s0,.22,0,.33Zm.36-9.35-.21-.05c0-.21-.06-.42-.09-.63h.05c.21,0,.47.09.48.19h0c0,.18.06.37.09.56Zm-.17-1.1-.21,0c0-.21-.07-.42-.11-.62H544c.19,0,.46.07.48.16s.07.38.1.57Zm-.2-1.09-.21,0c0-.23-.1-.45-.15-.67h0c.2,0,.48.08.51.17l.13.59Zm-1.43-4.46-.27.09-.06,0A4.75,4.75,0,0,0,542,50a.71.71,0,0,1,.13-.18A2.76,2.76,0,0,1,542.6,50.28Zm-.17-.77.22.06,0,.07h0Zm.47,1.19a6.19,6.19,0,0,1,.35.63l-.3,0h-.19c-.09-.19-.17-.36-.27-.52C542.7,50.7,542.86,50.65,542.91,50.7Zm0-.73a.82.82,0,0,1,.13-.18,2.67,2.67,0,0,1,.52.49l-.27.09-.06,0A5.18,5.18,0,0,0,542.91,50Zm.59,1.9c.08.21.17.44.25.67l-.29-.06-.23,0c-.08-.24-.17-.47-.26-.69C543.18,51.76,543.43,51.77,543.5,51.87Zm-.12,1c.21,0,.49.08.54.18s.11.37.16.57l-.31-.06-.21,0c-.06-.22-.12-.43-.18-.64Zm.8-.47c-.08-.24-.17-.47-.26-.69.22,0,.47,0,.53.12s.17.44.25.67l-.29-.06Zm-.26-1.13h-.2c-.09-.19-.17-.36-.27-.52.2-.07.35-.12.4-.08a6.19,6.19,0,0,1,.35.63Zm-.75-2a2,2,0,0,0-1.08-.33H542a.78.78,0,0,0-.27.05,10.68,10.68,0,0,0,1-4l0,0A22.29,22.29,0,0,1,545,46.58Zm-1.54-2.84a2.83,2.83,0,0,1-.44.5,3.4,3.4,0,0,0-1,.28c0-.09,0-.18,0-.27a3.47,3.47,0,0,0,.45-.88,3.31,3.31,0,0,0,.16-.74,3,3,0,0,1,1.29-.78v0A3,3,0,0,1,541.63,46.51Zm.06,3.06,0,.07h0l0,0,0-.05Zm0-6.33a2.89,2.89,0,0,1-.26.61,3.46,3.46,0,0,0-.67.43,3.46,3.46,0,0,0-.2-.63,3.46,3.46,0,0,0-.13-.39,3.37,3.37,0,0,0,.05-.58,3,3,0,0,1,1.05-1.41,3,3,0,0,1,.26,1A3,3,0,0,1,541.71,43.24Zm-1-2.47a3.39,3.39,0,0,0-.45.55,3.46,3.46,0,0,0-.85-1.2,1,1,0,1,1,1.33,0h0A3,3,0,0,1,540.7,40.77Zm-.31,3.93a3,3,0,0,1-.15,1.28,2.87,2.87,0,0,1-.31.62,3.46,3.46,0,0,0-1.09.24v0a3,3,0,0,1,.15-1.28A2.94,2.94,0,0,1,540.2,44,3.13,3.13,0,0,1,540.39,44.7Zm-.7,2.88a2.83,2.83,0,0,1-1.35,2.23,3.45,3.45,0,0,0-1.07-.24,2.9,2.9,0,0,1,.66-1.11A3,3,0,0,1,539.7,47.58Zm-1.31-2.66c0,.06,0,.12,0,.18l-.08-.16a3.39,3.39,0,0,0-.26-.54l-.12-.21-.2.13-.23.17c0-.06,0-.11-.06-.17s0-.18-.06-.27a2.93,2.93,0,0,1,.23-1.68,3.31,3.31,0,0,1,.51.49,3.36,3.36,0,0,0,.59,1.07v0c0,.08,0,.17.05.25A3.36,3.36,0,0,0,538.39,44.93Zm-.47.43a3,3,0,0,1,.27.74c0,.09,0,.17,0,.26s0,.05,0,.07a2.86,2.86,0,0,1-.06.78,3.44,3.44,0,0,0-.52.43,3.27,3.27,0,0,0-.32.39s0-.05,0-.08a3.22,3.22,0,0,0,0-.6v-.24l-.24,0-.29,0c0-.06,0-.12,0-.18A3,3,0,0,1,537.92,45.35Zm-1.05,2.77a3,3,0,0,1-.5,1.52,3.34,3.34,0,0,0-.53.15,3.39,3.39,0,0,0-1.43,1,2.93,2.93,0,0,1,2.46-2.72Zm-1.12,2.53a3,3,0,0,1,2,0,2.9,2.9,0,0,1-3.45,1.31A3,3,0,0,1,535.74,50.65Zm1.37,1.28a3.46,3.46,0,0,0,1-1.13,3,3,0,0,1,1.82.11,3,3,0,0,1-1.55,1.19,2.79,2.79,0,0,1-.65.12A3.33,3.33,0,0,0,537.12,51.93Zm2.79-2a3.31,3.31,0,0,0-.83-.07l.14-.13a3.41,3.41,0,0,0,.82-1.4,3,3,0,0,1,1.54-.36,3,3,0,0,1-1.08,1.64A2.89,2.89,0,0,1,539.91,49.9Zm1.42,0a3,3,0,0,1,.32.33l-.27.09-.19.07-.24-.1A5.47,5.47,0,0,0,541.32,49.95Zm.05.88.15-.05c.21-.08.37-.13.43-.08a6.19,6.19,0,0,1,.35.63l-.3,0c-.22,0-.48,0-.56-.12l-.15-.23Zm.61.91c.22,0,.49,0,.55.12s.17.44.25.67l-.29-.06a1.26,1.26,0,0,1-.53-.16c-.08-.21-.16-.41-.25-.6Zm.44,1.17c.21,0,.49.08.54.18s.11.37.16.57l-.31-.06a1.14,1.14,0,0,1-.49-.15c-.06-.2-.11-.4-.17-.59Zm.32,1.12c.2,0,.47.08.51.17s.09.39.13.59l-.3-.06c-.19,0-.43-.07-.48-.15s-.09-.41-.14-.61Zm.27,1.14c.19,0,.46.07.48.16l.1.57-.31-.07c-.2,0-.43-.08-.47-.17s-.07-.37-.1-.55Zm.19,1.09c.21,0,.46.09.48.19h0c0,.18.06.37.08.56l-.31-.08c-.2,0-.44-.1-.47-.19s-.05-.36-.09-.54Zm.16,1.1c.21,0,.46.1.48.2h0c0,.21.05.42.08.64l-.3-.09c-.19,0-.43-.11-.47-.2s-.05-.42-.08-.62Zm.15,1.17c.19,0,.46.12.47.21h0q0,.31.06.63l-.3-.1c-.2-.06-.44-.12-.47-.22l-.06-.6Zm-.28,15,.27.15c.19.1.42.22.41.32h0c0,.21,0,.42-.08.62l-.27-.16c-.18-.1-.41-.22-.41-.33S543.2,73.73,543.22,73.53Zm.13,1.32c.18.09.42.22.4.32h0l-.1.63-.27-.17c-.19-.11-.42-.24-.4-.34h0l.08-.6ZM543.18,76c.17.1.41.23.39.33h0c0,.21-.08.42-.12.63l-.26-.17c-.18-.11-.4-.24-.39-.35s.07-.39.1-.6Zm.13,3.42,0,0c.14.1.32.24.33.32s-.16.44-.24.64l-.23-.21-.12-.1C543.16,79.88,543.24,79.66,543.31,79.42Zm.29-.32-.16-.12c.06-.22.12-.45.18-.69l0,0c.16.11.38.25.36.35s-.12.43-.18.63Zm.3-1.15-.17-.12q.08-.34.15-.69l0,0c.17.1.39.24.38.33s-.1.43-.15.64Zm.25-1.16-.18-.12c0-.23.08-.46.12-.69h0l0,0c.17.1.41.23.39.33h0c0,.21-.07.42-.12.63Zm.2-1.16-.19-.11c0-.23.07-.46.1-.69l.05,0c.17.09.41.22.4.32h0l-.09.63Zm.17-1.16-.2-.12.08-.69.05,0c.19.1.42.22.41.32h0c0,.21-.05.42-.08.62Zm.13-1.17-.2-.11c0-.23,0-.46.06-.69h0l.06,0c.19.09.42.21.41.31h0c0,.21,0,.42-.06.62Zm.11-1.17-.21-.11c0-.24,0-.47.05-.7l0,0c.26.12.44.21.42.33h0c0,.21,0,.41,0,.62Zm.07-1.19-.2-.1c0-.24,0-.48,0-.71h0l0,0c.32.13.45.21.44.34h0c0,.2,0,.4,0,.6Zm0-1.19-.19-.08c0-.23,0-.45,0-.67l.07,0c.19.08.42.19.42.28h0c0,.19,0,.39,0,.58Zm.09-1.12-.23-.11c0-.24,0-.47,0-.7h0l.06,0c.26.11.44.19.44.3h0c0,.2,0,.41,0,.61Zm0-1.18-.22-.1c0-.25,0-.47,0-.69l.07,0c.21.08.44.17.44.29h0c0,.2,0,.4,0,.61Zm0-1.17-.23-.1s0-.07,0-.1,0-.37,0-.58l.08,0c.2.08.44.17.44.27h0c0,.09,0,.18,0,.28s0,.22,0,.33Zm.36-9.35-.21-.05c0-.21-.06-.42-.09-.63h.05c.21,0,.47.09.48.19h0c0,.18.06.37.09.56Zm-.17-1.1-.21,0-.11-.62h.05c.19,0,.45.07.48.16s.07.38.1.57Zm-.2-1.09-.21,0c0-.23-.1-.45-.15-.67h0c.2,0,.48.08.51.17l.13.59Zm-.27-1.14-.21,0c-.06-.22-.12-.43-.18-.64h0c.21,0,.48.08.54.18l.16.57Zm0-2.19q-.16-.35-.33-.65l2.06-3.06c.36.3.7.61,1,.94ZM540,42.32h0a3,3,0,0,1,0,.69,3.38,3.38,0,0,0-.88.68,2.9,2.9,0,0,1-.43-1.23h0a3,3,0,0,1,.47-1.91A2.94,2.94,0,0,1,540,42.32ZM537.46,36a3,3,0,0,1,1.33,1.45,3,3,0,0,1,.18.63,3.34,3.34,0,0,0-.26.75h0a3.39,3.39,0,0,0-1.25-1.22,3,3,0,0,1-.11-.59A2.91,2.91,0,0,1,537.46,36Zm-.66,1.82a2.93,2.93,0,0,1,1.79,1.86,3.46,3.46,0,0,0-.52,1,2.86,2.86,0,0,1-.91-.92,3,3,0,0,1-.41-1.22A3,3,0,0,1,536.8,37.87Zm1.05,3.34.08.13a3.45,3.45,0,0,0,0,.72l-.25-.19a3.42,3.42,0,0,0-.48-.35L537,41.4l-.12.21-.13.26-.14-.12a3.16,3.16,0,0,1-.3-.37c0-.43,0-.88,0-1.32l.27.09A3.4,3.4,0,0,0,537.85,41.21Zm-1.76-5.57a3,3,0,0,1,.37.54,3.5,3.5,0,0,0,0,1.07l-.13-.05a3.44,3.44,0,0,0-.45-.45c-.08-.5-.18-1-.3-1.53A2.88,2.88,0,0,1,536.09,35.64Zm.21,9c0-.69,0-1.39,0-2.1a4.87,4.87,0,1,1-8.74-.08c0,.65,0,1.38,0,2.18a4.38,4.38,0,1,0,8.77,0Zm-7.71-22.73c.26-.92.88-.45,1.63.5h0a.21.21,0,0,0,.16.08h0a12.08,12.08,0,0,0-.81,6h0C529.17,26.89,528.24,23.11,528.59,21.89ZM528,32.28a.33.33,0,0,1,0-.09h0a3,3,0,0,1,.73-1.26c.39-.34.82-.31,1,0s.09.63-.42.84-.49.55-.66.75a.34.34,0,0,1-.28.15l-.11,0h0A.35.35,0,0,1,528,32.28Zm-5.82,2.5,4.17-2.47v0a6.48,6.48,0,0,1,1.39-1.89A12.71,12.71,0,0,0,529,29.17c-.71,1.9-1.46,3.75-2.43,4.22s-2.94,1.26-3.41,1.45h0a2.16,2.16,0,0,1-1.25.19A.81.81,0,0,1,522.16,34.79ZM522,35.9a3.32,3.32,0,0,0,1.45-.28.41.41,0,0,0-.11-.79.78.78,0,0,1,.75,1.17s.68.79,2.5-.38c2.09-1.35,6.14.44,7.45-3.61-.36-.07-1.11-1.07.2-2.3a7.68,7.68,0,0,0,2-3.2l.06-.1a2.33,2.33,0,0,1,.48,1.52,4.08,4.08,0,0,1-.29,1.46,4.23,4.23,0,0,1-1.1,1.59,4.06,4.06,0,0,0-1,1.46l0,.08v0c1.06,5,0,8.43-4.57,12.33-1.49-1.47-1.68-3.92-1.62-5.14l0-.19a11.84,11.84,0,0,0,1.3.1v-.44a21.18,21.18,0,0,1-5-1c-2.08-.24-2.36-.57-2.43-.9a6.93,6.93,0,0,0,2.83,0l-.07-.43a6,6,0,0,1-2.91,0h0A.8.8,0,0,1,522,35.9ZM509.47,48.62a.05.05,0,0,0,0-.07.05.05,0,0,0-.07,0h0a2.72,2.72,0,0,0-.54,1.44,1.42,1.42,0,0,0,0,.2l-.1-.1c-.39-.45-.12-1.44.2-2a.05.05,0,0,0,0-.07,0,0,0,0,0-.07,0h0a2.72,2.72,0,0,0-.54,1.44,1.28,1.28,0,0,0,0,.2l0,0c-.41-.41-.27-1.3.33-2.11a29.09,29.09,0,0,1,13-9.82c.16.3.53.54,1.41.74a10.72,10.72,0,0,0-1.69,3.87,2.8,2.8,0,0,1-.71.6,1.3,1.3,0,1,1-1.34-2.22,2.12,2.12,0,0,1,1.06-.27l-.35-.81a4.21,4.21,0,0,0-1.15.4,2.05,2.05,0,0,0-1,3,2.09,2.09,0,0,0,3,.68l.25-.15c0,.34-.06.69-.06,1l-.05,0a23,23,0,0,0-8.28,7.53,2.84,2.84,0,0,0-.5,1.51h0c-.39-.45-.12-1.45.2-2a.05.05,0,0,0,0-.07,0,0,0,0,0-.07,0h0a2.71,2.71,0,0,0-.54,1.44,1.44,1.44,0,0,0,0,.21l-.1-.1c-.39-.45-.12-1.45.2-2a.05.05,0,0,0,0-.07.05.05,0,0,0-.07,0h0a2.72,2.72,0,0,0-.54,1.44,1.32,1.32,0,0,0,0,.2l-.1-.1c-.39-.45-.12-1.45.2-2a0,0,0,1,0-.08-.05h0a2.72,2.72,0,0,0-.54,1.44,1.43,1.43,0,0,0,0,.2l-.1-.1c-.39-.45-.12-1.45.2-2a.05.05,0,0,0,0-.07,0,0,0,0,0-.07,0h0a2.71,2.71,0,0,0-.54,1.44,1.42,1.42,0,0,0,0,.2l-.1-.1c-.39-.45-.12-1.45.2-2a.05.05,0,0,0-.08-.05h0a2.72,2.72,0,0,0-.54,1.44,1.3,1.3,0,0,0,0,.2l-.1-.1c-.39-.45-.12-1.45.2-2a.05.05,0,0,0-.09-.05h0a2.72,2.72,0,0,0-.54,1.44,1.27,1.27,0,0,0,0,.2l-.1-.1C508.88,50.16,509.15,49.17,509.47,48.62Zm-2.34,13.24a2.19,2.19,0,0,1,.25-1.92,0,0,0,0,0,0-.07,0,0,0,0,0-.07,0h0a2.72,2.72,0,0,0-.54,1.44,1.45,1.45,0,0,0,0,.21l-.09-.09c-.42-.44-.14-1.46.18-2a.05.05,0,0,0,0-.07.05.05,0,0,0-.07,0h0a2.72,2.72,0,0,0-.54,1.44,1.42,1.42,0,0,0,0,.21l-.09-.09c-.42-.44-.14-1.46.18-2a.05.05,0,0,0,0-.07.05.05,0,0,0-.07,0h0a2.72,2.72,0,0,0-.54,1.44,1.38,1.38,0,0,0,0,.21l-.09-.09c-.41-.44-.14-1.46.19-2a.05.05,0,0,0-.08-.05h0a2.72,2.72,0,0,0-.54,1.44,1.37,1.37,0,0,0,0,.21l-.09-.09c-.41-.44-.13-1.46.19-2a.05.05,0,0,0-.09-.05h0a2.71,2.71,0,0,0-.54,1.44,1.37,1.37,0,0,0,0,.21l-.09-.09c-.41-.45-.13-1.46.19-2a0,0,0,0,0,0-.07,0,0,0,0,0-.07,0h0a2.72,2.72,0,0,0-.54,1.44,1.34,1.34,0,0,0,0,.21l-.09-.09c-.41-.45-.13-1.46.19-2a.05.05,0,0,0,0-.07.05.05,0,0,0-.07,0h0a2.72,2.72,0,0,0-.54,1.44,1.49,1.49,0,0,0,0,.21l-.09-.1c-.4-.45-.13-1.45.19-2a0,0,0,0,0,0-.07.05.05,0,0,0-.07,0h0a2.71,2.71,0,0,0-.54,1.44,1.28,1.28,0,0,0,0,.2c-.49-.5-.16-1.66.72-2.54a25.09,25.09,0,0,1,5.45-4.09l.36.36A19.23,19.23,0,0,0,507.7,53h0a.05.05,0,0,0,0,0v0a.05.05,0,0,0,.07,0s1-.61,2.16-1.21l.36.36a19.3,19.3,0,0,0-2.08,1.27.05.05,0,0,0,.06.08s1-.61,2.17-1.2l.36.36A19.55,19.55,0,0,0,508.71,54h0a0,0,0,0,0,0,0,0,0,0,0,0,0,0,.05.05,0,0,0,.07,0s1-.61,2.18-1.19l.36.36a19.62,19.62,0,0,0-2.09,1.25.05.05,0,0,0,0,.07.05.05,0,0,0,.07,0s1-.6,2.19-1.18l.36.36a19.51,19.51,0,0,0-2.1,1.24h0a.05.05,0,0,0,0,0v0a.05.05,0,0,0,.07,0s1-.6,2.2-1.17l.36.36a19.39,19.39,0,0,0-2.11,1.23h0a0,0,0,0,0,0,0,.06.06,0,0,0,0,0,.05.05,0,0,0,.07,0s1-.59,2.21-1.16l.17.17h0a1.18,1.18,0,0,0,.22.17A19.68,19.68,0,0,0,510.74,56h0a.05.05,0,0,0,0,0v0a0,0,0,0,0,.07,0s1.13-.63,2.35-1.21a2,2,0,0,0,1.27-.07,23,23,0,0,0-3.17,1.7.05.05,0,0,0,0,.07.05.05,0,0,0,.07,0A36.51,36.51,0,0,1,515,54.86c0,.15,0,.3,0,.45a21.68,21.68,0,0,0-6.78,4.39A3.37,3.37,0,0,0,507.13,61.86Zm8.21,1.41c-1.73,1.73-4.52,5.05-4.88,8.58a6.8,6.8,0,0,1-.77-3.33,23.51,23.51,0,0,1,.44-3.94l.08-.45-.4.23c-2.08,1.16-2.91,1.84-3.45,2.64a10.65,10.65,0,0,1,1.46-3.85c.86.57,2,.29,3.22-.81a19.54,19.54,0,0,1,1.6-1.23,5.45,5.45,0,0,1-.43.44,0,0,0,0,0,0,.07.05.05,0,0,0,.07,0h0a5,5,0,0,0,.94-.9l.37-.24a3.14,3.14,0,0,1,.43-.23A5.25,5.25,0,0,1,512.7,62a.05.05,0,0,0,.06.08h0a4.27,4.27,0,0,0,1.55-2,2.27,2.27,0,0,1,.37-.08,4.52,4.52,0,0,1-1.49,2.51.05.05,0,0,0,0,.07.05.05,0,0,0,.07,0h0A3.83,3.83,0,0,0,515,60l.25,0a3.84,3.84,0,0,1-1.48,3,.05.05,0,0,0,0,.07.05.05,0,0,0,.07,0h0a4.09,4.09,0,0,0,1.61-2.2c0,.3.06.61.1.9a5.33,5.33,0,0,1-1.27,1.72.05.05,0,0,0,.06.08h0a4.67,4.67,0,0,0,1.25-1.36c0,.22.06.44.09.65Zm16.58,23c-4.69-1.22-8.43-4.43-11.12-9.43a18.21,18.21,0,0,0,7.9,8.75,19.33,19.33,0,0,1-8.57-8.87c-3-5.7-4.56-13.53-4.76-23.27a38.26,38.26,0,0,1,7.11-2.57l.58-.14a10.76,10.76,0,0,0,17.61.13,2,2,0,0,1,.36.48c1.13,1.91,2.14,7.43,2.14,14.72a50.17,50.17,0,0,1-1.39,12.84A16.93,16.93,0,0,1,531.91,86.27Zm8.6-3.65a1.54,1.54,0,0,1-.33,0l-.19,0,.5-.53v.08A1.33,1.33,0,0,1,540.51,82.62Zm-5.41,3a18.55,18.55,0,0,0,6.45-6,5.06,5.06,0,0,1-.78,1.51h0A17.3,17.3,0,0,1,535.1,85.61ZM541,82.45c0-.1,0-.21,0-.3a1.39,1.39,0,0,1,0-.52l.22-.26a2.64,2.64,0,0,0,.22.26,1.15,1.15,0,0,1,.22.29A2.41,2.41,0,0,1,541,82.45Zm.73-1.13c-.16-.17-.29-.32-.25-.4h0c.1-.17.2-.37.29-.58a2.61,2.61,0,0,0,.23.2c.18.15.31.26.29.34a5.85,5.85,0,0,1-.38.65Zm.22,1.13c0-.07,0-.14,0-.21h0a4.57,4.57,0,0,0,.44-.6,1.07,1.07,0,0,1,.21.28A2.41,2.41,0,0,1,541.92,82.45Zm.73-1.13-.08-.09c.12-.22.23-.45.34-.7h0c.18.15.3.26.29.34a5.73,5.73,0,0,1-.38.65Zm.22,1.13c0-.07,0-.14,0-.21a4.57,4.57,0,0,0,.44-.6,1.07,1.07,0,0,1,.21.28A2.43,2.43,0,0,1,542.87,82.45Zm.92-.91-.18-.21-.08-.09c.12-.22.23-.45.34-.7h0c.18.15.31.26.29.34A5.72,5.72,0,0,1,543.79,81.53Zm.6-1.12-.23-.21-.12-.1c.08-.22.16-.44.23-.68l0,0c.14.1.32.24.33.32S544.47,80.21,544.39,80.41Zm.41-1.12-.23-.19L544.4,79c.06-.22.12-.45.18-.69l0,0c.16.11.38.25.36.35S544.86,79.09,544.79,79.29Zm.32-1.15-.25-.19-.17-.12q.08-.34.15-.69l0,0c.17.1.39.24.38.33S545.17,77.92,545.11,78.13Zm.25-1.17-.26-.17-.18-.12c0-.23.08-.46.12-.69h0l0,0c.17.1.41.23.39.33h0C545.45,76.55,545.41,76.75,545.37,77Zm.21-1.16-.27-.17-.19-.11c0-.23.07-.46.1-.7h0l0,0c.18.09.42.22.4.32h0C545.64,75.38,545.61,75.59,545.58,75.8Zm.17-1.17-.27-.16-.2-.12c0-.23.06-.46.08-.69l.05,0c.19.1.42.22.41.32h0Zm.14-1.17-.28-.16-.2-.11c0-.23,0-.46.06-.69l.05,0c.19.09.42.21.41.31h0C545.93,73,545.91,73.24,545.88,73.45Zm.11-1.17-.28-.15L545.5,72c0-.24,0-.47.05-.7l0,0c.26.12.44.21.43.33h0C546,71.87,546,72.07,546,72.28Zm.09-1.19-.3-.16-.2-.1q0-.36,0-.71l0,0c.32.13.45.21.44.34h0C546.11,70.69,546.1,70.89,546.08,71.09Zm.07-1.2-.32-.15-.19-.08q0-.34,0-.67l.07,0c.19.08.43.19.42.28h0C546.17,69.5,546.16,69.7,546.15,69.89Zm0-1.13-.27-.14-.23-.11c0-.24,0-.47,0-.7l.06,0c.26.11.44.19.44.3h0C546.21,68.35,546.21,68.56,546.2,68.76Zm0-1.18-.29-.14-.22-.1c0-.25,0-.47,0-.69l.07,0c.21.08.44.17.44.29h0C546.24,67.17,546.23,67.38,546.23,67.58Zm0-1.17-.29-.13-.23-.1v-.1c0-.17,0-.37,0-.58l.08,0c.2.08.44.17.44.27h0v.28C546.25,66.18,546.25,66.29,546.24,66.41Zm.4,2.24c0-1,0-1.92,0-2.57,0-2.79-.16-10-1.71-14.08,1.18.43,2.34.91,3.48,1.46A69.25,69.25,0,0,1,546.64,68.64ZM557.47,67c-.54-.8-1.37-1.48-3.45-2.64l-.4-.23.08.45a23.56,23.56,0,0,1,.43,3.94,6.81,6.81,0,0,1-.77,3.33c-.36-3.53-3.15-6.85-4.88-8.58l-.3-.35.09-.65a4.69,4.69,0,0,0,1.25,1.36h0a.05.05,0,0,0,.07,0,.05.05,0,0,0,0-.07,5.32,5.32,0,0,1-1.27-1.72c0-.3.07-.6.1-.9a4.1,4.1,0,0,0,1.6,2.19h0a.05.05,0,0,0,.06-.08,3.82,3.82,0,0,1-1.48-3l.24,0a3.83,3.83,0,0,0,1.67,2.6h0a0,0,0,0,0,.07,0,.05.05,0,0,0,0-.07A4.54,4.54,0,0,1,549.12,60a2.33,2.33,0,0,1,.37.08,4.27,4.27,0,0,0,1.55,2h0a.05.05,0,0,0,.07,0,.05.05,0,0,0,0-.07,5.24,5.24,0,0,1-1.31-1.81,3,3,0,0,1,.43.23l.37.24a5,5,0,0,0,.94.9h0a.05.05,0,0,0,.07,0,.05.05,0,0,0,0-.07,5.46,5.46,0,0,1-.43-.44,20.21,20.21,0,0,1,1.61,1.24c1.2,1.1,2.35,1.38,3.21.81A10.65,10.65,0,0,1,557.47,67Zm3.11-9h0a1.52,1.52,0,0,0,0-.23,2.69,2.69,0,0,0-.53-1.43h0a.05.05,0,0,0-.07,0,.05.05,0,0,0,0,.07c.32.55.6,1.56.19,2l-.1.11a1.52,1.52,0,0,0,0-.23,2.69,2.69,0,0,0-.53-1.43h0a.05.05,0,0,0-.09.06c.32.55.6,1.56.19,2l-.1.1a1.53,1.53,0,0,0,0-.23,2.69,2.69,0,0,0-.53-1.43h0a0,0,0,0,0-.07,0,.05.05,0,0,0,0,.07c.32.55.6,1.57.19,2l-.1.1a1.44,1.44,0,0,0,0-.23,2.69,2.69,0,0,0-.53-1.42h0a.05.05,0,0,0-.07,0,.05.05,0,0,0,0,.07c.33.55.6,1.57.19,2l-.1.1a1.37,1.37,0,0,0,0-.24,2.68,2.68,0,0,0-.53-1.43h0a0,0,0,0,0-.07,0,.05.05,0,0,0,0,.07c.33.56.6,1.57.19,2l-.1.1a1.62,1.62,0,0,0,0-.23,2.69,2.69,0,0,0-.53-1.43h0a.05.05,0,0,0-.09.05c.32.56.6,1.57.18,2l-.1.1a1.47,1.47,0,0,0,0-.23,2.69,2.69,0,0,0-.53-1.43h0a.05.05,0,0,0-.07,0,.05.05,0,0,0,0,.07c.32.56.6,1.58.18,2l-.1.1a1.38,1.38,0,0,0,0-.24,2.7,2.7,0,0,0-.53-1.43h0a0,0,0,0,0-.07,0,0,0,0,0,0,0,.07,2.18,2.18,0,0,1,.25,1.92,3.38,3.38,0,0,0-1.08-2.15,21.67,21.67,0,0,0-6.78-4.39c0-.15,0-.3,0-.45a37.11,37.11,0,0,1,3.67,1.77.05.05,0,0,0,.07,0,.05.05,0,0,0,0-.07,22.93,22.93,0,0,0-3.17-1.7,2,2,0,0,0,1.27.07c1.23.58,2.34,1.21,2.35,1.21a0,0,0,0,0,.07,0,0,0,0,0,0,0,0,0,0,0,0,0,0,0h0a19.89,19.89,0,0,0-2.16-1.24,1.14,1.14,0,0,0,.22-.17h0l.17-.17c1.17.57,2.2,1.15,2.21,1.16a.05.05,0,0,0,.07,0,0,0,0,0,0,0,0,0,0,0,0,0,0,0h0a19.39,19.39,0,0,0-2.11-1.23l.36-.36c1.16.57,2.19,1.16,2.2,1.17a.05.05,0,0,0,.07,0,.05.05,0,0,0,0,0,.05.05,0,0,0,0,0h0a19.33,19.33,0,0,0-2.1-1.24l.36-.36c1.16.58,2.18,1.17,2.19,1.18a.05.05,0,0,0,.07,0,.05.05,0,0,0,0-.07,19.46,19.46,0,0,0-2.09-1.25l.36-.36c1.15.58,2.17,1.18,2.18,1.19a0,0,0,0,0,.07,0,0,0,0,0,0,0,0,0,0,0,0,0,0,0h0A19.41,19.41,0,0,0,553,52.76l.36-.36c1.15.59,2.16,1.19,2.17,1.2a.05.05,0,0,0,.07,0,.05.05,0,0,0,0-.07,19.3,19.3,0,0,0-2.08-1.27l.36-.36c1.15.59,2.15,1.2,2.16,1.21a0,0,0,0,0,.07,0,0,0,0,0,0,0,0,.05.05,0,0,0,0,0h0a19.44,19.44,0,0,0-2.06-1.28l.36-.36a25.1,25.1,0,0,1,5.45,4.09C560.75,56.33,561.07,57.5,560.58,58ZM534.21,31.45h0a6.28,6.28,0,0,1,.76-.89,3.7,3.7,0,0,0,1-1.38,3.52,3.52,0,0,0,.23-1.09,7.89,7.89,0,0,1-1.55,2,1.48,1.48,0,0,0-.56,1s0,0,0,0A.44.44,0,0,0,534.21,31.45Z" transform="translate(-394.45 -19.56)"/><path class="cls-1" d="M514.1,47.1c-1.1-1-2,.77-2.52.33-.27-.23,0-.59.19-.79a2.2,2.2,0,0,1,.73-.56l-.58-.6a3.4,3.4,0,0,0-.8.69c-.53.61-1,1.5-.23,2.15,1.11,1,2-.78,2.58-.29.24.21.08.5-.14.76a2.37,2.37,0,0,1-.94.66l.61.66a4.26,4.26,0,0,0,.93-.79C514.52,48.64,514.89,47.79,514.1,47.1Z" transform="translate(-394.45 -19.56)"/><path class="cls-1" d="M515.77,46.12l1.18-1,.78.48.92-.75-3.77-2.15-1,.84,1.37,4.11.85-.69Zm-.89-2.31h0l1.37.92-.79.64Z" transform="translate(-394.45 -19.56)"/><path class="cls-1" d="M548.62,42.49l-3.72,2.22.86.68.79-.48,1.19.94-.3.87.93.73,1.29-4.14ZM548,45.1l-.8-.63,1.39-.92h0Z" transform="translate(-394.45 -19.56)"/></svg>